<?xml version="1.0" standalone="no"?>
<!DOCTYPE svg PUBLIC "-//W3C//DTD SVG 1.1//EN" "http://www.w3.org/Graphics/SVG/1.1/DTD/svg11.dtd" >
<svg xmlns="http://www.w3.org/2000/svg" xmlns:xlink="http://www.w3.org/1999/xlink" version="1.1">
<metadata>
Created by FontForge 20170731 at Tue Nov  1 00:29:34 2016
 By Aleksey,,,
Copyright (c) 2016 by Francis John S. Villo. All rights reserved.
</metadata>
<defs>
<font id="Amarillo" horiz-adv-x="560" >
  <font-face 
    font-family="Amarillo"
    font-weight="400"
    font-stretch="normal"
    units-per-em="1000"
    panose-1="0 0 5 0 0 0 0 2 0 4"
    ascent="750"
    descent="-250"
    x-height="758"
    cap-height="1357"
    bbox="-1524 -1368 5835 1794.33"
    underline-thickness="50"
    underline-position="-150"
    unicode-range="U+000D-FB02"
  />
<missing-glyph horiz-adv-x="500" 
 />
    <glyph glyph-name="l_l" unicode="ll" horiz-adv-x="910" 
d="M387 1105q25 0 41.5 -15.5t26.5 -38t13 -49t2 -47.5q-6 -67 -34.5 -134t-70.5 -130.5t-93 -121t-103 -104.5l-5.5 -20t-12 -52t-13.5 -72t-11 -79q-2 -13 -2 -24.5v-22.5q0 -48 13 -81t46 -33q41 0 81 37t76.5 91t67.5 114t54 107l5 12q12 69 31 152.5t45.5 168.5
t59 164.5t72 141t85 99t96.5 37.5q24 0 40.5 -17t26.5 -42t14.5 -53.5t4.5 -51.5q-7 -72 -37 -145t-73.5 -143t-96 -132.5t-105.5 -113.5v1l-5.5 -22t-13 -57t-14.5 -78.5t-11 -86.5q-2 -20 -2.5 -31.5t-0.5 -20.5q0 -26 3 -48.5t10.5 -39.5t19.5 -26.5t30 -9.5q34 0 67 25
t64 65.5t59 91.5t53 102.5t46.5 98.5t38.5 80q10 5 17 5q8 0 14.5 -6.5t10.5 -14.5q-22 -48 -48.5 -106.5t-56.5 -118t-63.5 -116t-70 -100.5t-76.5 -70.5t-82 -26.5q-51 0 -84 22.5t-52.5 59t-27 82.5t-7.5 93v23.5t1 24.5q-29 -57 -62 -112t-69.5 -98t-77 -69.5
t-83.5 -26.5q-49 0 -80.5 21t-50 54.5t-26 75.5t-7.5 85v27.5t2 26.5v-1q3 36 12 90t23 118.5t34 134.5t45 138t55 129.5t64.5 108t74 74t83.5 27.5zM872 1120q-17 0 -43 -38.5t-56 -107.5t-61 -163.5t-58 -205.5q14 13 36 38t47 58t51 72.5t47.5 82t37 86t20.5 84.5
q1 14 1 30.5t-2.5 30.5t-7.5 23.5t-12 9.5zM401 1026q-16 0 -41 -36.5t-54 -100t-59 -150.5t-56 -189q21 18 57.5 60t73.5 96.5t66 116t34 118.5q1 13 1 27.5t-2.5 27.5t-7.5 21.5t-12 8.5z" />
    <glyph glyph-name="A_r" unicode="Ar" horiz-adv-x="2202" 
d="M385 646q44 0 80 -13.5t61.5 -37.5t39.5 -57t14 -71q0 -42 -17 -89q60 46 129.5 77t140.5 46.5t138 15.5t123 -16q61 98 117.5 202.5t105 212t88 216t66.5 214.5v-1q2 6 7 11.5t11 7.5q12 16 41 16q45 0 73.5 -14.5t45 -39t23 -56.5t6.5 -67v-24.5t-1 -25.5
q-8 -69 -23.5 -154.5t-36 -181t-44 -196.5t-47.5 -201q66 1 129.5 32.5t122.5 94.5q-32 5 -54.5 21t-36.5 39t-19.5 51t-2.5 57q4 32 18.5 66t37 62t52.5 46t66 18q45 0 63.5 -26t15.5 -78q-3 -28 -11 -59t-17 -58.5t-17.5 -49.5t-12.5 -33q24 -6 46.5 -7t42.5 -1
q21 0 37.5 -1t28 -7.5t16.5 -19.5t3 -37q-2 -17 -6 -34l-10 -41q-9 -36 -18.5 -76t-18 -79.5t-15.5 -75.5t-10 -63q-2 -32 4.5 -53.5t17.5 -23.5q18 7 41.5 31.5t48 59.5t50.5 76.5t49.5 83t43.5 80t35 66.5l3 7h-1q5 10 9.5 16t15.5 6q13 0 25 -20l-11 -21l-32.5 -65
t-40 -78t-46 -83t-49 -80t-50 -69.5t-48.5 -50.5q-20 -17 -47.5 -28t-55.5 -11q-26 0 -44 14.5t-29.5 39t-16.5 56.5t-5 67q0 11 0.5 22.5t1.5 22.5q2 25 10 67t19 87.5t23 87.5t23 69l-68 3l-7 1q-36 -46 -73.5 -77.5t-76.5 -52.5t-80 -31.5t-83 -14.5q-13 -71 -19.5 -151
t-6.5 -161q0 -93 12 -182t41 -158t77 -111t121 -42q29 0 65.5 9t76.5 27q29 -10 29 -24q0 -7 -5 -17t-13 -19q-61 -26 -114.5 -37.5t-104.5 -11.5q-69 0 -124 24t-96.5 67t-71 101.5t-48 128t-27 146.5t-8.5 156q0 65 5.5 133.5t16.5 133.5q-51 9 -98.5 21t-101.5 27
q-88 -137 -190 -262t-208 -218q-35 -30 -72 -58t-77.5 -49.5t-85.5 -34.5t-96 -13q-74 0 -143 28t-121.5 80.5t-84 126t-31.5 165.5q0 78 25.5 159t74 147t118.5 108t158 42zM1052 441q-36 9 -68.5 12.5t-61.5 3.5q-121 0 -226 -58t-195 -160q-6 -4 -14 -7t-14 -3
q-12 0 -21.5 6.5t-8.5 20.5q18 21 35 45.5t29 52.5t17.5 57.5t0.5 59.5q-16 43 -43.5 61t-51.5 20q-38 1 -76.5 -27.5t-72 -76.5t-59 -109.5t-36.5 -125.5q-10 -53 -2.5 -116.5t34.5 -119t74 -93t116 -37.5q31 0 61.5 8.5t64.5 24.5q58 31 122 85t131 126t134.5 159.5
t132.5 185.5zM1454 1077q-54 -133 -130.5 -286t-170.5 -310q45 -14 87.5 -26t87.5 -22q45 203 78.5 364t53.5 278zM1782 660q-2 -19 4.5 -32t26.5 -17q4 9 12.5 28.5t17 44t15.5 49.5t9 45q1 21 -3 21q-8 0 -21 -13.5t-26 -34.5t-23 -45.5t-12 -45.5z" />
    <glyph glyph-name="A_s" unicode="As" horiz-adv-x="2175" 
d="M344 646q44 0 80 -13.5t61.5 -37.5t39.5 -57t14 -71q0 -42 -17 -89q60 46 129.5 77t140.5 46.5t138 15.5t123 -16q61 98 117.5 202.5t105 212t88 216t66.5 214.5v-1q2 6 7 11.5t11 7.5q12 16 41 16q45 0 73.5 -14.5t45 -39t23 -56.5t6.5 -67v-24.5t-1 -25.5
q-8 -69 -23.5 -154.5t-36 -181t-44 -196.5t-47.5 -201q133 2 248 124q-24 42 -38.5 90.5t-14.5 98.5q0 48 16.5 93t57.5 78q18 16 42.5 24t49.5 8q17 0 33 -4t28 -13t19.5 -23.5t7.5 -34.5q0 -31 -14 -71t-33 -85q-9 -23 -18.5 -46t-17.5 -47q39 -58 74 -117t62 -114
t43 -103t17 -83q23 34 45 71t42.5 73.5t37.5 69.5t29 58q0 1 2 3q1 1 1 2l8 16h-1q5 10 9.5 16t15.5 6q18 0 26 -20l-6 -12l-3 -3q-14 -29 -34 -68t-43 -82t-49 -87t-53 -84t-55 -72.5t-54 -52.5q-24 -17 -53.5 -30t-60.5 -22t-62.5 -14t-59.5 -5q-33 0 -61.5 6t-49 18.5
t-31.5 31.5t-9 45q2 14 14.5 28.5t28.5 14.5q12 0 14 -11t1 -23q0 -16 7.5 -26t20 -15t27.5 -6.5t30 -0.5q80 3 116 51t39 131q-1 54 -30 135t-87 169l-2 2q-67 -73 -138 -104.5t-148 -38.5q-13 -71 -19.5 -151t-6.5 -161q0 -93 12 -182t41 -158t77 -111t121 -42
q29 0 65.5 9t76.5 27q29 -10 29 -24q0 -7 -5 -17t-13 -19q-61 -26 -114.5 -37.5t-104.5 -11.5q-69 0 -124 24t-96.5 67t-71 101.5t-48 128t-27 146.5t-8.5 156q0 65 5.5 133.5t16.5 133.5q-51 9 -98.5 21t-101.5 27q-88 -137 -190 -262t-208 -218q-35 -30 -72 -58
t-77.5 -49.5t-85.5 -34.5t-96 -13q-74 0 -143 28t-121.5 80.5t-84 126t-31.5 165.5q0 78 25.5 159t74 147t118.5 108t158 42zM1011 441q-36 9 -68.5 12.5t-61.5 3.5q-121 0 -226 -58t-195 -160q-6 -4 -14 -7t-14 -3q-12 0 -21.5 6.5t-8.5 20.5q18 21 35 45.5t29 52.5
t17.5 57.5t0.5 59.5q-16 43 -43.5 61t-51.5 20q-38 1 -76.5 -27.5t-72 -76.5t-59 -109.5t-36.5 -125.5q-10 -53 -2.5 -116.5t34.5 -119t74 -93t116 -37.5q31 0 61.5 8.5t64.5 24.5q58 31 122 85t131 126t134.5 159.5t132.5 185.5zM1413 1077q-54 -133 -130.5 -286
t-170.5 -310q45 -14 87.5 -26t87.5 -22q45 203 78.5 364t53.5 278zM1830 675q9 22 19.5 48.5t18.5 50.5t12 43.5t0 27.5h1q-6 12 -13 13q-9 1 -19.5 -11.5t-19.5 -34t-15 -48.5t-6 -54q0 -32 12 -59z" />
    <glyph glyph-name="A_x" unicode="Ax" horiz-adv-x="2482" 
d="M374 646q44 0 80 -13.5t61.5 -37.5t39.5 -57t14 -71q0 -42 -17 -89q60 46 129.5 77t140.5 46.5t138 15.5t123 -16q61 98 117.5 202.5t105 212t88 216t66.5 214.5v-1q2 6 7 11.5t11 7.5q12 16 41 16q45 0 73.5 -14.5t45 -39t23 -56.5t6.5 -67v-24.5t-1 -25.5
q-8 -69 -23.5 -154.5t-36 -181t-44 -196.5t-47.5 -201q65 2 127 31.5t119 89.5q17 18 35 46.5t37 59.5t40 62.5t45 57t51 41.5t59 17q47 1 75 -19t44 -54.5t21.5 -80.5t7.5 -98l150 228q7 1 14.5 1t13 -2.5t9 -9t3.5 -18.5l-24 -38l-164 -250q1 -16 1.5 -30.5t2.5 -30.5
q5 -61 12.5 -118t19.5 -98.5t29 -62t41 -8.5q28 19 59 57t59.5 81.5t53.5 86.5t41 73l13 26q10 18 21 38l22 40q15 6 27 5t15 -22q-15 -26 -28.5 -49.5t-24.5 -46.5l-26 -45q-38 -69 -79.5 -139t-94.5 -130q-30 -33 -63.5 -57t-70.5 -32t-65.5 8.5t-50 50t-37.5 80t-27 97.5
l-173 -262l-16 -25l-6 2l-10 -2t-10 1t-9.5 7.5t-6.5 16.5l218 332q-9 57 -14.5 113t-10.5 105t-8.5 86t-10.5 53q-11 24 -23 24q-17 0 -36 -22.5t-39 -53t-39.5 -62t-35.5 -48.5q-36 -42 -72.5 -70.5t-73.5 -47t-74.5 -28t-76.5 -12.5q-13 -71 -19.5 -151t-6.5 -161
q0 -93 12 -182t41 -158t77 -111t121 -42q29 0 65.5 9t76.5 27q29 -10 29 -24q0 -7 -5 -17t-13 -19q-61 -26 -114.5 -37.5t-104.5 -11.5q-69 0 -124 24t-96.5 67t-71 101.5t-48 128t-27 146.5t-8.5 156q0 65 5.5 133.5t16.5 133.5q-51 9 -98.5 21t-101.5 27
q-88 -137 -190 -262t-208 -218q-35 -30 -72 -58t-77.5 -49.5t-85.5 -34.5t-96 -13q-74 0 -143 28t-121.5 80.5t-84 126t-31.5 165.5q0 78 25.5 159t74 147t118.5 108t158 42zM1041 441q-36 9 -68.5 12.5t-61.5 3.5q-121 0 -226 -58t-195 -160q-6 -4 -14 -7t-14 -3
q-12 0 -21.5 6.5t-8.5 20.5q18 21 35 45.5t29 52.5t17.5 57.5t0.5 59.5q-16 43 -43.5 61t-51.5 20q-38 1 -76.5 -27.5t-72 -76.5t-59 -109.5t-36.5 -125.5q-10 -53 -2.5 -116.5t34.5 -119t74 -93t116 -37.5q31 0 61.5 8.5t64.5 24.5q58 31 122 85t131 126t134.5 159.5
t132.5 185.5zM1443 1077q-54 -133 -130.5 -286t-170.5 -310q45 -14 87.5 -26t87.5 -22q45 203 78.5 364t53.5 278z" />
    <glyph glyph-name="A_z" unicode="Az" horiz-adv-x="2542" 
d="M394 646q44 0 80 -13.5t61.5 -37.5t39.5 -57t14 -71q0 -42 -17 -89q60 46 129.5 77t140.5 46.5t138 15.5t123 -16q61 98 117.5 202.5t105 212t88 216t66.5 214.5v-1q2 6 7 11.5t11 7.5q12 16 41 16q45 0 73.5 -14.5t45 -39t23 -56.5t6.5 -67v-24.5t-1 -25.5
q-8 -69 -23.5 -154.5t-36 -181t-44 -196.5t-47.5 -201q61 2 119.5 27.5t112.5 78.5q6 6 13.5 14t18.5 23t26 39.5t38 63.5l37 76q0 7 2.5 22.5t7 31t11 26.5t15.5 10q7 -2 9 -7t4 -13l4 -10q6 -10 20.5 -17t35.5 -11t47 -6t54 -2q40 0 80.5 2.5t76.5 4.5q51 3 79 3
q27 0 54 -7.5t47.5 -22.5t31 -38t4.5 -55q-1 -6 -4 -11t-10 -5t-13 5l-2 1q-72 -38 -148 -97t-149 -127.5t-139.5 -140.5t-120.5 -137q10 -5 46 -5q21 0 48 2t57 4q36 2 73.5 4.5t72.5 2.5q38 0 69.5 -4t50.5 -16q14 -9 26 -18.5t21 -24.5q14 27 28.5 53.5t29.5 52.5v-1
l177 310l2 2q17 10 26 5t15 -16l-130 -236l-129 -232q0 -5 -0.5 -13t-1.5 -13q-5 -16 -16 -16q-29 28 -76 37.5t-104 9.5q-38 0 -77.5 -2.5t-78.5 -5.5q-36 -3 -70 -5.5t-63 -2.5q-25 0 -46 2.5t-37 7.5q-48 13 -48 59q0 19 9.5 42t31.5 51q32 40 74.5 83t90.5 85.5t98.5 84
t98 78t89 67.5t72.5 54l42 32q-12 3 -35 3q-17 0 -41 -1.5t-48 -3.5q-32 -3 -69 -5.5t-72 -2.5q-54 0 -101.5 9t-78.5 35l-22 -42q-10 -20 -19.5 -38t-21 -35.5t-25 -35.5t-31.5 -37q-66 -71 -136.5 -102t-146.5 -38q-13 -71 -19.5 -151t-6.5 -161q0 -93 12 -182t41 -158
t77 -111t121 -42q29 0 65.5 9t76.5 27q29 -10 29 -24q0 -7 -5 -17t-13 -19q-61 -26 -114.5 -37.5t-104.5 -11.5q-69 0 -124 24t-96.5 67t-71 101.5t-48 128t-27 146.5t-8.5 156q0 65 5.5 133.5t16.5 133.5q-51 9 -98.5 21t-101.5 27q-88 -137 -190 -262t-208 -218
q-35 -30 -72 -58t-77.5 -49.5t-85.5 -34.5t-96 -13q-74 0 -143 28t-121.5 80.5t-84 126t-31.5 165.5q0 78 25.5 159t74 147t118.5 108t158 42zM1061 441q-36 9 -68.5 12.5t-61.5 3.5q-121 0 -226 -58t-195 -160q-6 -4 -14 -7t-14 -3q-12 0 -21.5 6.5t-8.5 20.5
q18 21 35 45.5t29 52.5t17.5 57.5t0.5 59.5q-16 43 -43.5 61t-51.5 20q-38 1 -76.5 -27.5t-72 -76.5t-59 -109.5t-36.5 -125.5q-10 -53 -2.5 -116.5t34.5 -119t74 -93t116 -37.5q31 0 61.5 8.5t64.5 24.5q58 31 122 85t131 126t134.5 159.5t132.5 185.5zM1463 1077
q-54 -133 -130.5 -286t-170.5 -310q45 -14 87.5 -26t87.5 -22q45 203 78.5 364t53.5 278z" />
    <glyph glyph-name="r_r" unicode="rr" horiz-adv-x="838" 
d="M742 -492q-54 0 -101.5 18.5t-83.5 56t-57.5 94t-22.5 132.5q-146 45 -331 45q-77 0 -159.5 -7t-170.5 -21q-122 -19 -239 -55t-217.5 -91t-177.5 -130t-120 -172q-1 -2 -2.5 -5.5t-2.5 -6.5q-3 -8 -6.5 -17t-8.5 -17t-12 -13.5t-16 -6.5q-10 0 -18.5 7t-15.5 18
t-12.5 24.5t-9.5 28.5q-10 34 -10 73q0 44 14 87.5t37.5 84t54.5 76.5t65 65q59 46 136.5 81.5t165 61.5t181.5 43.5t186 26.5q48 5 98 6.5t97 1.5q141 0 270.5 -22.5t238.5 -74.5q16 99 37.5 185t45 161t48 140.5t46.5 122.5q8 23 15.5 44.5t17.5 44.5h-17.5t-14.5 1
q-8 0 -19.5 0.5t-19.5 1.5q-49 -101 -94 -190t-86 -162t-78.5 -126t-70.5 -80q-20 -17 -47.5 -28t-55.5 -11q-26 0 -44 14.5t-29.5 39t-16.5 56.5t-5 67q0 11 0.5 22.5t1.5 22.5q2 25 10 67t19 87.5t23 87.5t23 69l-68 3q-17 -35 -35 -71l-35 -70l-42 10l69 137
q-34 3 -58.5 18.5t-40 39t-22 52.5t-3.5 59q4 32 18.5 66t37 62t52.5 46t66 18q45 0 63.5 -26t15.5 -78q-3 -28 -11 -59t-17 -58.5t-17.5 -49.5t-12.5 -33q24 -6 46.5 -7t42.5 -1q21 0 37.5 -1t28 -7.5t16.5 -19.5t3 -37q-2 -17 -6 -34l-10 -41q-9 -36 -18.5 -76t-18 -79.5
t-15.5 -75.5t-10 -63q-2 -32 4.5 -53.5t17.5 -23.5q27 17 57 52t61 81t61 99t57.5 105.5t51 101t41.5 85.5q-38 2 -63.5 18t-41 41t-21 57t-2.5 65q3 37 17 73.5t37 66t55 48t70 18.5q44 0 63.5 -28.5t16.5 -82.5q-3 -27 -9.5 -56t-14.5 -57t-16 -51.5t-13 -38.5l-4 -12
q11 -2 26 -3t29 -1q8 0 17 0.5t18 0.5q8 0 16.5 0.5t15.5 0.5q18 0 33.5 -2t27.5 -7q26 -11 26 -56q0 -26 -8 -59.5t-19.5 -69t-25 -69.5t-23.5 -60q-4 -10 -9 -21.5t-8 -21.5q-20 -59 -40.5 -120.5t-39.5 -122.5t-34.5 -120t-25.5 -112q24 -19 43 -35.5t37 -38.5
q0 68 30.5 112t77.5 61q39 15 75 15q37 0 66.5 -14.5t50.5 -38.5t32.5 -55.5t11.5 -66.5q0 -37 -16.5 -75t-48.5 -72.5t-80 -61.5t-111 -42q-15 -3 -32 -4.5t-32 -1.5zM735 -364q-8 23 -30.5 52.5t-71.5 58.5q3 -32 12 -64t25.5 -56.5t41.5 -38.5t60 -9q43 6 76 26
t55.5 48.5t33.5 60.5t11 62q0 37 -17 62t-52 25q-6 0 -14.5 -1t-18.5 -4q-18 -6 -34 -19t-28 -32t-19 -42.5t-7 -49.5q0 -34 14 -66l-1 1q6 -12 2.5 -18t-14.5 -12q-10 -5 -15.5 0.5t-8.5 14.5v1zM581 730q-2 -20 4.5 -34t26.5 -19q4 10 12.5 31.5t17.5 47.5t16.5 53t9.5 48
q1 22 -4 22q-8 0 -21.5 -14.5t-26.5 -37t-23 -48.5t-12 -49zM63 660q-2 -19 4.5 -32t26.5 -17q4 9 12.5 28.5t17 44t15.5 49.5t9 45q1 21 -3 21q-8 0 -21 -13.5t-26 -34.5t-23 -45.5t-12 -45.5z" />
    <glyph glyph-name="t_t" unicode="tt" horiz-adv-x="860" 
d="M302 990q-3 -29 -10 -68.5t-17 -84.5l32 3q59 4 117.5 8t115.5 5q15 64 25 113t12 72q1 17 -0.5 28.5t-3.5 21.5q-1 5 -1.5 9.5t-0.5 8.5q2 14 13 18.5t25 4.5q39 0 62.5 -12t35.5 -31.5t15 -44.5t1 -51q-3 -29 -9 -66.5t-16 -81.5q81 -13 145.5 -45.5t103.5 -91.5
q3 -5 2 -10.5t-5 -9.5t-11 -6t-14 1l-1 1q-45 35 -106 54t-132 26q-11 -47 -23 -94.5t-24 -92.5l-10 -37l-3 -13q-6 -26 -17 -70.5t-21.5 -96t-18 -103.5t-7.5 -94q0 -29 4.5 -50.5t15.5 -29.5q10 -7 30 -1t49 27q31 25 60.5 63.5t56 82.5t49 88.5t39.5 80.5h-1
q13 28 25 49.5t23 35.5q1 1 11 1q16 0 23 -19l-36 -75h1q-33 -67 -70.5 -141t-81 -136t-92.5 -102.5t-103 -40.5q-89 0 -124.5 44t-35.5 124q0 11 0.5 21.5t1.5 22.5t3 25.5t4 30.5q-28 -52 -59 -100.5t-65 -85.5t-70.5 -59.5t-76.5 -22.5q-44 0 -74.5 11.5t-49.5 33
t-27 52.5t-8 70q0 11 0.5 22t1.5 23q3 35 13 90t24.5 121t31.5 139t34 144l10 43h-11q-90 0 -158 18.5t-100 64.5q-3 5 -4 12t1.5 12t9 7t17.5 -2q46 -14 100.5 -20.5t112.5 -6.5h25.5t27.5 1q17 73 28.5 129t13.5 81q1 17 -0.5 28.5t-3.5 21.5q-1 5 -1.5 9.5t-0.5 8.5
q2 14 12.5 18.5t24.5 4.5q39 0 62.5 -12t36 -31.5t15.5 -44.5t1 -51zM519 766q-52 -2 -105.5 -5t-105.5 -7q-14 -2 -27 -2.5t-25 -1.5l-44 -176l-10 -37l-3 -13q-7 -26 -18 -70.5t-21.5 -96t-18 -103.5t-7.5 -94q0 -29 4.5 -50.5t16.5 -29.5q10 -7 29.5 -1t48.5 27
q31 25 60.5 63.5t56 82.5t49 88.5t39.5 80.5h-1q1 4 4 8q14 64 30 133t33 137z" />
    <glyph glyph-name=".notdef" horiz-adv-x="500" 
 />
    <glyph glyph-name=".null" horiz-adv-x="0" 
 />
    <glyph glyph-name="nonmarkingreturn" unicode="&#xd;" horiz-adv-x="500" 
 />
    <glyph glyph-name="NULL" horiz-adv-x="0" 
 />
    <glyph glyph-name="NULL" horiz-adv-x="0" 
 />
    <glyph glyph-name="space" unicode=" " horiz-adv-x="500" 
 />
    <glyph glyph-name="exclam" unicode="!" horiz-adv-x="228" 
d="M33 515q25 116 42.5 195t28.5 129.5t16.5 77t7.5 37.5q8 26 14.5 56t4.5 59q2 14 -2.5 24.5t-3.5 13.5q-2 7 5 9.5t15 0.5q31 -6 50.5 -10t28.5 -21q12 -16 15 -41t1 -52t-6.5 -51.5t-7.5 -38.5q-27 -113 -45.5 -191.5t-30.5 -130.5t-18 -81t-9 -42q-10 -30 -17 -63.5
t-7 -67.5q-2 -16 2 -28l5 -15q0 -8 -6.5 -11t-14.5 -1q-29 7 -50.5 15.5t-29.5 28.5q-11 18 -12 45t3.5 56t11 55.5t9.5 42.5zM69 150q-11 18 -22.5 25.5t-23.5 7.5q-13 0 -25 -8t-21.5 -20.5t-16.5 -28t-10 -31.5q-4 -21 -1.5 -36t9 -24t16.5 -13t22 -4q13 0 27 4.5t26 13
t20.5 21t11.5 28.5q7 29 -12 65z" />
    <glyph glyph-name="quotedbl" unicode="&#x22;" horiz-adv-x="425" 
d="M213 1086q-25 -25 -47.5 -50.5t-39.5 -49.5t-26.5 -46t-9.5 -38q2 -13 -1.5 -22t-8.5 -12q-8 -5 -19 2.5t-24 32.5q-11 26 -7 60.5t16 69t29 64.5t32 45q10 12 23 16.5t26 3.5t25 -6.5t21 -14.5q22 -19 24.5 -31.5t-13.5 -23.5zM404 1086q-25 -25 -47.5 -50.5
t-39.5 -49.5t-26.5 -46t-9.5 -38q2 -13 -1.5 -22t-8.5 -12q-8 -5 -19 2.5t-24 32.5q-11 26 -7 60.5t16 69t29 64.5t32 45q10 12 23 16.5t26 3.5t25 -6.5t21 -14.5q22 -19 24.5 -31.5t-13.5 -23.5z" />
    <glyph glyph-name="numbersign" unicode="#" horiz-adv-x="745" 
d="M316 162q1 -21 7.5 -34t5.5 -19q2 -9 -5 -14t-18 -5q-35 -1 -57 9t-36 27q-15 19 -21 52t-6.5 68.5t2.5 69.5t6 55l1 8q-32 1 -66 2.5t-70 -3.5q-15 -3 -28 -6.5t-17 -5.5q-11 -1 -12.5 3t-1.5 10q2 23 14 39.5t29 26.5q29 16 75 20.5t88 4.5l8 60q-34 1 -68.5 2.5
t-72.5 -3.5q-16 -3 -29 -6.5t-16 -5.5q-11 -1 -13 3t-2 10q2 23 14.5 39.5t29.5 26.5q14 8 34.5 13t43.5 7.5t46.5 3.5t44.5 1q1 10 1.5 19.5t2.5 19.5q5 41 9.5 85t2.5 87q0 21 -6 34.5t-7 18.5q0 19 24 19q35 1 57.5 -8.5t34.5 -27.5q16 -19 22 -52t6.5 -69t-2.5 -70
t-5 -55v-3q28 -2 55.5 -3t55.5 -2q1 9 1.5 18.5t2.5 19.5q5 41 9.5 85t2.5 87q0 21 -6 34.5t-7 18.5q0 19 25 19q67 1 92 -36q16 -19 22 -52t6 -69t-3 -70t-5 -55v-2h23.5t33.5 1q17 2 29.5 6.5t17.5 3.5q11 3 14 -1t2 -11q-5 -23 -16 -38.5t-27 -26.5q-17 -9 -40 -14.5
t-48 -7.5l-9 -63h26t38 1q17 2 29.5 6.5t17.5 3.5q11 3 13.5 -1t2.5 -11q-5 -23 -16 -38.5t-27 -26.5q-18 -10 -43.5 -15t-52.5 -8q-1 -11 -2.5 -23t-2.5 -23q-1 -9 -2 -20t-2.5 -30t-3.5 -48t-5 -74q1 -21 7.5 -34t5.5 -19q2 -9 -4.5 -14t-17.5 -5q-36 -1 -57.5 9t-35.5 27
q-16 19 -22 52t-6.5 68.5t2.5 69.5t6 55l1 7q-29 0 -57 1t-56 3q-1 -11 -2 -20.5t-2 -19.5q-2 -9 -3 -20t-2 -30t-3 -48t-5 -74zM465 521q-29 0 -56.5 1t-55.5 2l-8 -56q29 -2 57 -3l56 -2q2 14 3.5 29t3.5 29z" />
    <glyph glyph-name="dollar" unicode="$" horiz-adv-x="679" 
d="M258 450q-35 6 -68 15t-60.5 24.5t-48.5 38t-33 54.5q-6 17 -9 39.5t-1 47.5t9 53t18 57q17 42 44.5 81t61.5 71.5t72.5 56t78.5 33.5v14q1 14 -1.5 24.5t-4.5 15.5v-2q-2 1 -2.5 5t0.5 6q1 11 10 19.5t23 3.5h-1l11 -4q23 -5 39 -12.5t26 -27.5v1q10 -18 14 -39
q48 -10 90.5 -39.5t72.5 -70.5t45 -89.5t9 -97.5q-5 -36 -24.5 -67t-47 -54t-59.5 -36t-62 -13q-17 0 -30.5 3t-27.5 14l-8 -56q13 -5 24 -9.5t22 -9.5q32 -15 59 -40t41 -62q5 -14 6.5 -31t-0.5 -33q-3 -32 -17 -61t-36 -54t-50.5 -44.5t-58.5 -32.5q-7 -3 -18 -7t-20 -6
q-1 -18 0 -37q0 -2 0.5 -3t-0.5 -3q0 -12 1.5 -23t3.5 -19q-3 4 -5 -3l-2 -8l10 1q2 -18 -8.5 -25.5t-24.5 -2.5q-24 8 -47.5 22.5t-29.5 38.5l1 -1q-13 24 -16 57q-44 6 -84 22t-70 41t-46 57.5t-12 71.5q1 9 4.5 24t11 29.5t18 25.5t24.5 11q5 0 9.5 -5.5t2.5 -13.5l-2 -1
q-5 -7 -6.5 -18.5t3.5 -27.5q16 -47 56.5 -71.5t94.5 -28.5q2 15 3.5 29t3.5 28q3 19 3 30zM202 640q11 -26 29 -44t40 -31l22 185q13 112 18 138q3 19 5.5 37.5t4.5 38.5l1 4q-35 -5 -60.5 -24t-42 -47.5t-25.5 -64t-10 -71.5q-3 -75 18 -121zM539 735q-3 53 -28 105.5
t-67 87.5q-1 -14 -1.5 -28t-2.5 -26l-2 -16t-1 -15l-2 -20q-8 -55 -14.5 -101.5t-11.5 -88.5q20 -26 45 -26q16 0 32 9.5t28 26.5t19 40.5t6 51.5zM427 420q-12 3 -21.5 5t-22.5 4q-3 -32 -7.5 -62.5t-7.5 -61.5q-1 -7 -2 -12.5t-1 -10.5q-2 -9 -2.5 -15.5t-1.5 -11.5l2 1
q20 7 45 20t45 29.5t31.5 36.5t5.5 41h1q-5 13 -23 21.5t-41 15.5z" />
    <glyph glyph-name="percent" unicode="%" horiz-adv-x="814" 
d="M219 997q50 0 77 -15.5t39 -39.5t12.5 -53.5t-1.5 -56.5q-3 -29 -15 -63.5t-34.5 -64.5t-56.5 -50t-81 -20q-44 0 -69.5 17.5t-38.5 43.5t-16 56t-1 55q2 26 15.5 59t37 62.5t57 49.5t75.5 20zM222 957q-20 0 -36 -24t-27.5 -55.5t-18 -61.5t-7.5 -42q-1 -11 -1.5 -28
t2.5 -34t11 -29t25 -12q19 0 35 17.5t28.5 44.5t20.5 59.5t11 62.5q4 45 -6.5 73.5t-36.5 28.5zM637 502q50 0 77 -15.5t39 -39.5t12.5 -53.5t-1.5 -56.5q-3 -29 -15 -63.5t-35 -64.5t-57 -50t-81 -20q-44 0 -69.5 17.5t-38.5 43.5t-16 56t-1 55q2 26 15.5 59t37.5 62.5
t57.5 49.5t75.5 20zM640 462q-20 0 -36 -24t-27.5 -55.5t-18 -61.5t-7.5 -42q-1 -11 -1.5 -28t2.5 -34t11 -29t25 -12q19 0 35 17.5t28.5 44.5t20.5 59.5t11 62.5q4 45 -6.5 73.5t-36.5 28.5zM177 57q-8 -20 -10 -35.5t-6 -20.5q-2 -10 -8.5 -10.5t-12.5 6.5
q-24 21 -33.5 43.5t-10.5 47.5q-1 28 9.5 62t26 67t32.5 61.5t28 46.5q13 22 42.5 71t66.5 111.5t78.5 131t78.5 130t65 108.5t40 67q23 34 45 71.5t39 78.5q9 20 11.5 35.5t4.5 20.5q3 10 9.5 10.5t13.5 -6.5q45 -40 43 -92q2 -27 -8.5 -61t-26 -67t-32.5 -62.5t-28 -47.5
q-13 -22 -42.5 -70.5t-67 -110.5t-78.5 -130t-78.5 -129t-66.5 -108.5t-41 -67.5q-5 -8 -10 -18t-14 -26t-23 -41.5t-36 -65.5z" />
    <glyph glyph-name="ampersand" unicode="&#x26;" horiz-adv-x="861" 
d="M643 490q-11 17 -4 44.5t35 47.5q24 16 53 16q15 0 29.5 -8t22.5 -26q14 -32 18 -66.5t2 -64.5q-7 -75 -50 -141.5t-106 -119.5l2 -2q24 -36 49 -76.5t44.5 -83.5t32 -89t12.5 -94v-13.5t-1 -14.5q-2 -17 -8 -44t-19.5 -53t-37 -45t-59.5 -19q-21 0 -34.5 12t-11.5 37
q1 9 3.5 19t7.5 21q26 54 39 91.5t16 68.5q3 47 -23.5 101.5t-74.5 129.5l-4 5q-82 -54 -173.5 -83.5t-172.5 -29.5q-50 0 -92.5 12.5t-72.5 39t-45 68.5t-10 101q4 50 23 100.5t47.5 100.5t64.5 100t75 100q-34 68 -52 140t-18 157q0 14 0.5 31t2.5 33q6 60 32 127t70 123
t106 93t139 37q56 0 92 -24t56.5 -60t28.5 -78t8 -78v-16.5t-1 -15.5q-9 -71 -35.5 -139t-63 -131.5t-80 -122.5t-86.5 -113l-48 -59q30 -44 64 -88t69 -89q24 -32 47.5 -61.5t46.5 -61.5q29 33 49 71t25 76q2 25 -5 53t-24 54zM264 723q2 -5 3 -9.5t3 -7.5q2 -4 3 -7l1 -1
q44 55 86 109t76 107.5t56.5 104.5t26.5 100q2 15 2 28v25q0 71 -18.5 98.5t-46.5 27.5q-44 0 -83.5 -31.5t-70.5 -80t-51.5 -106.5t-24.5 -112q-2 -12 -2 -23.5v-23.5q0 -51 10 -100.5t30 -97.5zM192 181q-2 -28 4 -48t19 -32.5t31.5 -18.5t41.5 -6q27 0 58.5 7.5t64 21
t65 33t62.5 42.5q-24 34 -49.5 67t-51.5 65q-31 38 -60.5 76t-58.5 78q-50 -67 -84.5 -138t-41.5 -147z" />
    <glyph glyph-name="quotesingle" unicode="'" horiz-adv-x="249" 
d="M213 1086q-25 -25 -47.5 -50.5t-39.5 -49.5t-26.5 -46t-9.5 -38q2 -13 -1.5 -22t-8.5 -12q-8 -5 -19 2.5t-24 32.5q-11 26 -7 60.5t16 69t29 64.5t32 45q10 12 23 16.5t26 3.5t25 -6.5t21 -14.5q22 -19 24.5 -31.5t-13.5 -23.5z" />
    <glyph glyph-name="parenleft" unicode="(" horiz-adv-x="327" 
d="M571 1121q8 -5 10 -12.5t-1.5 -14.5t-11 -11t-19.5 -2q-51 11 -98.5 -15t-90 -79t-79 -127.5t-65.5 -159.5q-9 -24 -25 -80t-32.5 -127.5t-28.5 -150.5t-12 -149.5t16 -124.5t56 -75q3 -3 9 -6.5t11.5 -7.5t8.5 -9.5t1 -11.5q-4 -7 -16.5 -10.5t-27 -4.5t-27.5 0.5
t-18 4.5q-71 29 -107.5 98.5t-45 163t8.5 202.5t54 216q26 75 60.5 146t75.5 132.5t88 110t97 78.5t103 38t107 -11z" />
    <glyph glyph-name="parenright" unicode=")" horiz-adv-x="327" 
d="M10 1142q59 4 105.5 -17.5t81.5 -62.5t58.5 -99t36 -126.5t14.5 -144.5t-5 -153q-7 -74 -23 -146.5t-40 -139.5t-56 -125t-71 -102t-85.5 -71.5t-98.5 -33.5q-6 -2 -19 0t-26 6.5t-23 11t-11 14.5q1 6 6 10t12 7t14 4.5t12 3.5q35 7 65 35.5t55 71.5t46 96.5t37.5 110
t29 113t21 105.5t13.5 86t7 56q9 88 6.5 167t-20 140t-51.5 98t-87 40q-12 1 -17.5 7t-5.5 13.5t5.5 14t14.5 9.5z" />
    <glyph glyph-name="asterisk" unicode="*" horiz-adv-x="480" 
d="M383 412q8 -10 14.5 -14.5t8.5 -7.5q6 -5 4.5 -9.5t-5.5 -8.5q-15 -13 -28 -16.5t-26 -1.5q-14 5 -28.5 20t-28 33t-24.5 36.5t-17 30.5l-11 16q-14 -13 -28 -25.5t-27 -26.5q-5 -4 -10 -9.5t-13 -14.5t-21.5 -23.5t-34.5 -36.5q-9 -12 -12 -23.5t-6 -14.5q-3 -5 -8 -3
t-8 8q-16 23 -20.5 42.5t-2.5 38.5q3 21 15 42.5t27 41t30.5 35.5t25.5 26l6 6q-6 0 -9 1q-22 2 -44 4.5t-48 0.5q-8 0 -16.5 -1.5t-10.5 -3.5q-6 0 -7.5 2.5t-1.5 7.5q7 29 32 42q11 5 27 7.5t33 3t33.5 -0.5t28.5 -2l-10 19q-14 23 -27 47.5t-32 47.5q-8 8 -15 13t-9 7
q-4 6 -3 9t5 8q14 14 28 17.5t27 -0.5q14 -5 28.5 -19.5t27.5 -32.5t24 -35.5t18 -29.5q6 -12 15 -24l40 39q19 19 40.5 39.5t38.5 45.5q9 11 12.5 22t5.5 15q4 5 8.5 3t8.5 -9q16 -23 20.5 -42.5t1.5 -37.5q-2 -16 -9.5 -32.5t-18 -32t-22.5 -30t-23 -26.5q9 -2 25 -2.5
t45 -1.5q11 0 19 2.5t10 2.5q7 0 8 -3t1 -7q-8 -28 -31 -42q-11 -6 -26.5 -8.5t-33 -2.5t-34 1t-28.5 2l18 -30q3 -6 6.5 -12t9.5 -16t16 -25.5t26 -40.5z" />
    <glyph glyph-name="plus" unicode="+" horiz-adv-x="632" 
d="M565 525q15 2 25 6t14 3q9 3 11.5 -1t1.5 -10q-4 -22 -13 -36.5t-23 -25.5q-17 -10 -42 -15t-51 -7t-50 -1.5t-39 0.5h-15l-13 -98q-1 -8 -2 -16.5t-1.5 -23.5t-2 -38t-4.5 -59q2 -17 8 -27t6 -15q2 -8 -5 -11.5t-17 -3.5q-35 -1 -55.5 6.5t-34.5 21.5q-15 16 -21.5 42
t-7 54.5t2 55t4.5 43.5l9 74l-59 3q-31 0 -61.5 2t-65.5 -3q-13 -2 -23.5 -5.5t-14.5 -5.5q-8 -1 -9.5 3t-2.5 9q3 23 13.5 38t24.5 25q16 10 40.5 15t50.5 7t50 1.5t39 -0.5h30l9 67q5 32 8.5 67.5t0.5 69.5q-1 17 -6.5 27.5t-7.5 14.5q0 8 6.5 11.5t17.5 3.5
q34 1 55.5 -6.5t33.5 -21.5q16 -15 22 -41.5t7 -55t-1.5 -55.5t-4.5 -44l-6 -43q11 -1 21.5 -1h21.5q7 0 15 -0.5t21.5 -0.5t35 0.5t54.5 0.5z" />
    <glyph glyph-name="comma" unicode="," horiz-adv-x="253" 
d="M115 163q12 10 31 8t35 -13.5t24.5 -31.5t-0.5 -46q-9 -24 -30.5 -58t-50 -65.5t-61 -54.5t-63.5 -26q-20 -2 -38.5 6t-33.5 30q-5 8 2.5 8h20.5q25 0 46.5 14t38.5 36t30.5 48.5t22.5 51.5q4 10 6 24.5t4.5 28t6 24.5t9.5 16z" />
    <glyph glyph-name="hyphen" unicode="-" horiz-adv-x="487" 
d="M425 549q12 2 20 7t11 5q5 2 7 -2.5t1 -11.5q-2 -25 -8 -40.5t-17 -26.5q-12 -12 -30 -18t-37.5 -8.5t-37.5 -2t-30 0.5q-42 2 -80 3.5t-75 3.5q-23 1 -47 2t-47 -4q-11 -2 -19.5 -6.5t-10.5 -5.5q-10 -1 -8 15q3 48 25 67q11 12 29.5 18t38 8.5t37.5 2t30 -0.5
q42 -2 79.5 -3.5t75.5 -3.5h11h16t26 0.5t40 0.5z" />
    <glyph glyph-name="period" unicode="." horiz-adv-x="213" 
d="M147 150q11 -19 15.5 -35t2.5 -30q-3 -32 -28 -49.5t-52 -17.5q-23 0 -40.5 17t-13.5 60q1 16 7 31.5t14.5 28t20 20.5t25.5 8q12 0 24.5 -7.5t24.5 -25.5z" />
    <glyph glyph-name="slash" unicode="/" horiz-adv-x="601" 
d="M63 57q-8 -20 -10 -35.5t-6 -20.5q-2 -10 -8.5 -10.5t-12.5 6.5q-23 21 -32.5 43.5t-10.5 47.5q-1 28 9.5 62t25.5 67t32 61.5t28 46.5q13 22 42.5 71t66.5 111.5t78.5 131t78.5 130t65 108.5t40 67q23 34 45 71.5t39 78.5q9 20 11.5 35.5t4.5 20.5q3 10 9.5 10.5
t13.5 -6.5q45 -40 43 -92q2 -27 -8.5 -61t-26 -67t-32.5 -62.5t-28 -47.5q-13 -22 -42.5 -70.5t-67 -110.5t-78.5 -130t-78.5 -129t-66.5 -108.5t-41 -67.5q-5 -8 -10 -18t-14 -26t-23 -41.5t-36 -65.5z" />
    <glyph glyph-name="zero" unicode="0" horiz-adv-x="759" 
d="M462 1119q75 0 126 -21.5t83.5 -58.5t49.5 -86t22.5 -104t3.5 -113.5t-7 -113.5q-5 -59 -20 -127t-41 -135.5t-63 -130.5t-85 -111t-108.5 -76.5t-132.5 -28.5q-65 0 -112 25t-79 66.5t-50 95.5t-26.5 112t-9 116.5t4.5 108.5q5 54 21.5 118t44 129t65 125t85.5 107
t105 75t123 28zM470 1058q-37 0 -69.5 -38.5t-60 -98.5t-49.5 -133.5t-38 -143t-26 -127t-12 -86.5q-2 -23 -4.5 -58.5t-2 -75.5t5 -80t16.5 -72t32.5 -52t52.5 -20q35 0 66.5 27t60 73.5t52.5 108t43 130.5t32 141.5t19 140.5q7 80 3 147t-18.5 115t-40 75t-62.5 27z" />
    <glyph glyph-name="one" unicode="1" horiz-adv-x="487" 
d="M360 368q-6 -26 -11 -51t-9 -50.5t-8 -53t-7 -60.5q-3 -39 0 -65.5t6 -42.5q1 -6 2 -10.5t0 -7.5q0 -7 -7.5 -9.5t-13.5 -2.5q-37 5 -61.5 29.5t-38.5 59t-18 75t-1 77.5q3 36 12 86t21.5 107.5t27.5 120t30 123.5q17 69 29 121.5t21 100.5q-32 -41 -61.5 -77t-50.5 -59
q-14 -15 -30.5 -29t-34 -25t-34 -17.5t-30.5 -6.5q-27 0 -43 22v-1q-2 1 -2 7q-4 7 1 12v-1q-2 -2 4 2t11 9q9 6 24 18.5t32 28.5q32 34 58 63.5t51 61.5l122 175q4 10 13 13t20 2q37 -3 60 -19t34 -40q10 -25 12.5 -57t-1.5 -67q-2 -27 -6.5 -55.5t-10 -54.5t-11 -48
l-9.5 -38l-41 -169q-13 -51 -26 -99.5t-25 -97.5z" />
    <glyph glyph-name="two" unicode="2" horiz-adv-x="622" 
d="M43 15q-8 0 -16 -0.5t-14 -1.5q-20 -2 -35 0.5t-18 26.5v-1q-2 14 0.5 25t8.5 27l20 32l3 3v-1q23 30 52.5 63.5t64.5 72.5q40 44 85.5 93.5t90 102t85.5 107t73.5 107t53 102.5t24.5 95q1 16 0 31t-6.5 28t-16.5 22.5t-30 14.5q-31 3 -70.5 -8.5t-81 -34t-81 -54
t-70.5 -68t-50.5 -76t-19.5 -78.5v1q4 -15 1 -22.5t-9 -9.5t-13.5 0.5t-13.5 7.5q-20 20 -27 46t-4 56q3 33 16 69t31.5 70t40.5 64t43 51q64 64 128.5 94t121.5 30q46 0 85.5 -19t66.5 -55t40 -88.5t7 -118.5q-2 -24 -6.5 -50t-12.5 -53q-22 -76 -62 -150t-87 -142.5
t-96.5 -129t-91.5 -108.5l-31 -34l99 -9l77 -7q32 -1 59 0.5t67 10.5q24 4 40 12l26 13q9 6 11 6l-1 -1q11 2 9 -17q-1 -36 -15 -63.5t-34.5 -47t-44.5 -31.5t-46 -17q-20 -4 -44 -5t-50 -1q-41 0 -87.5 2.5t-92.5 6.5q-41 3 -80.5 6t-71.5 3z" />
    <glyph glyph-name="three" unicode="3" horiz-adv-x="700" 
d="M37 242q6 -29 22.5 -51.5t40.5 -39.5t53.5 -27.5t62.5 -14.5q55 -7 105.5 12t90.5 56t65 89.5t29 112.5q4 67 -11 116t-46.5 78.5t-78 38.5t-105.5 -4q-17 -4 -31 -3t-25 9q-11 7 -13 13.5t0.5 12.5t8.5 12t13 14q24 29 44.5 53.5t39.5 46.5q64 76 98.5 118t50 62
t17 23.5t0.5 3.5q-51 -5 -103.5 -11t-107.5 -8q-16 -2 -41.5 -3t-52.5 1.5t-51.5 11t-38.5 26.5q-10 18 -15 42t0 62q2 12 5.5 20t8.5 7q6 -2 16.5 -9t27.5 -9q17 -4 50.5 -3.5t75.5 3t89.5 5.5t93 5.5t84.5 2t65 -5.5q39 -8 55 -31t16 -54q0 -48 -19.5 -92t-48.5 -85.5
t-63.5 -81t-64.5 -79.5q41 -1 80.5 -20t71 -50t52.5 -71t25 -82q8 -102 -19.5 -184.5t-85 -141t-143 -90t-192.5 -31.5q-38 0 -83.5 15t-85 42t-65 63t-21.5 78q1 7 2.5 15t5.5 17q3 5 10.5 9t15.5 4t13.5 -4t5.5 -14h1v0z" />
    <glyph glyph-name="four" unicode="4" horiz-adv-x="731" 
d="M561 358q-7 -27 -12.5 -52.5t-10 -52t-8.5 -55t-7 -62.5q-2 -29 -0.5 -51t4 -38t4.5 -26.5t2 -14.5q-1 -9 -18 -7q-40 3 -65.5 27t-39 59t-17 76.5t-0.5 80.5q2 29 9 66.5t16 81.5q-29 1 -57.5 2t-57.5 3q-48 2 -96 4.5t-79 2.5q-8 0 -20.5 -1t-24.5 -2l1 1l-7 -2l-24 -5
q-2 -1 -4 -1h-4q-16 -2 -23 3t-10 13q2 14 8 30.5t15 27.5h-1l13 6q52 36 109 90t112 115.5t104 126t87 121.5t60.5 102.5t24.5 68.5l12 -3l1 8q2 11 10.5 15.5t20.5 2.5q38 -3 61 -18.5t34 -39.5q13 -30 13.5 -74.5t-6 -91.5t-16.5 -90.5t-16 -70.5l-66 -252q13 1 25.5 1.5
t26.5 2.5q20 4 36.5 8t25.5 7q8 4 15 4q5 1 10 -2.5t6 -9.5q-1 -24 -15.5 -42.5t-36.5 -31t-48.5 -20t-51.5 -9.5v1q-2 0 -4.5 -1t-5.5 -1q-2 0 -3.5 -0.5t-3.5 -0.5q-2 -8 -3.5 -15t-3.5 -15zM431 486q2 0 3.5 -0.5t3.5 -0.5q12 51 25 104t25.5 105t24.5 101t22 91
q-32 -52 -68 -106.5t-74 -105.5t-76 -97t-73 -80h16q43 -2 86 -4.5t85 -6.5z" />
    <glyph glyph-name="five" unicode="5" horiz-adv-x="717" 
d="M-6 270q3 6 10.5 10t16 4t14.5 -4.5t6 -15.5h1q6 -36 25 -64t46.5 -47t61.5 -29t70 -10q64 0 113 36.5t83.5 91.5t54.5 120.5t25 123.5q4 44 -1 84t-20 70t-41 48t-63 18q-39 0 -79 -22.5t-72 -60.5q-12 -10 -20.5 -20t-15.5 -18q-7 -9 -12 -16t-9 -11q-11 -10 -31 -14.5
t-41 -4.5q-14 0 -26.5 2t-20.5 7h1q-20 12 -20.5 39.5t2.5 65.5l1 10q4 34 7.5 69.5t7.5 77.5t8.5 92.5t10.5 115.5q3 31 8 48.5t14.5 26t24 9.5t36.5 0q5 0 15 -0.5t18 -0.5q31 0 68.5 1.5t75.5 3.5q42 2 82 4t76 2q23 0 44.5 -1t37.5 -4q20 -4 41 -14.5t37 -28t24 -42.5
t3 -58q-1 -10 -3 -14.5t-10 -3.5q-5 0 -10 5q-7 5 -20 12t-34 10q-35 8 -61 9t-55 1l-42 -4q-40 -4 -81 -7.5t-83 -5.5q-2 0 -4.5 -0.5t-4.5 -0.5q-8 -1 -18 -1.5t-20 -0.5q-5 -30 -9 -70.5t-9 -82.5q-4 -30 -6.5 -60.5t-6.5 -54.5q45 32 91.5 46.5t92.5 16.5
q81 2 138 -23.5t92 -70.5t49 -103.5t8 -122.5q-6 -75 -38.5 -150t-88.5 -135.5t-134.5 -98t-176.5 -37.5q-39 0 -86.5 17t-88 46t-66 69t-21.5 86q1 8 2.5 16.5t5.5 18.5z" />
    <glyph glyph-name="six" unicode="6" horiz-adv-x="739" 
d="M652 1014q-14 15 -29.5 22t-30.5 8q-48 3 -89.5 -19.5t-76.5 -61.5t-63.5 -89.5t-51 -103t-39 -102.5t-26.5 -87q26 24 55 39.5t58 24.5t57 12.5t51 3.5q68 0 113 -26t70.5 -69t32.5 -98t-2 -113q-10 -68 -38 -127.5t-72 -105t-104 -75t-134 -36.5q-8 -1 -16 -1h-14
q-77 0 -132 31t-90.5 82.5t-51.5 118t-16 137.5q1 14 1 27t2 28q6 69 25.5 146t51.5 153t77 145t102 122t125.5 84.5t148.5 31.5q24 0 45 -3q17 -2 34 -6.5t31 -13.5t23 -23t11 -33q1 -5 -3 -12t-10 -12t-12.5 -5.5t-12.5 7.5v-1zM399 590q-41 -4 -76.5 -34t-62 -72t-42 -88
t-15.5 -82q0 -32 7 -70.5t24.5 -71.5t45.5 -55t69 -22q23 -1 44 7t40 22q34 27 57 73t34.5 99t10 106.5t-16.5 96.5t-44.5 68.5t-74.5 22.5z" />
    <glyph glyph-name="seven" unicode="7" horiz-adv-x="684" 
d="M394 703l16 28h-1q42 74 77 136t52 103q-27 1 -60.5 1h-66.5h-81t-78 1t-68.5 3t-53.5 6q-24 4 -47.5 14t-41 25.5t-24.5 37.5t2 51q2 7 5 12.5t8 3.5q4 0 15 -7q8 -5 22 -11t35 -11q42 -7 73.5 -9t65.5 -3l242 3q9 1 20 1h20q24 0 49 -3t46.5 -12.5t36.5 -28t19 -48.5
q3 -29 -7 -67t-26 -77.5t-35.5 -76.5t-34.5 -65q17 -2 32 -6.5t23 -14.5q9 -9 13.5 -23.5t0.5 -36.5q-2 -8 -6 -13.5t-13 -3.5q-4 0 -6 0.5t-4 1.5q-4 2 -9 3.5t-10 2.5q-6 1 -13.5 1h-16.5h-19.5t-22.5 -1q-41 -69 -78 -134.5t-73 -130.5q-26 -45 -51 -96t-45 -105
q-13 -37 -18.5 -65.5t-7.5 -44.5q0 -12 -2 -18v1q-3 -9 -10.5 -9.5t-15.5 3.5q-22 9 -36 25t-22.5 36t-10.5 44t0 49q2 30 9 60t18 57q12 28 29 64.5t38 77.5t45 85.5t50 89.5q-11 -1 -22 -0.5t-21 0.5h-28t-23 2q-17 3 -34.5 10t-31 18.5t-20.5 28t-3 39.5q2 7 5 12t8 0
q6 -2 11 -4q7 -3 16.5 -7t23.5 -7q20 -2 37 -3.5t31 -1.5q8 0 15 0.5t15 0.5z" />
    <glyph glyph-name="eight" unicode="8" horiz-adv-x="661" 
d="M440 1129q61 2 108.5 -16t79 -49.5t46.5 -75t12 -92.5q-3 -43 -18 -87.5t-41 -85t-63 -74.5t-84 -57q44 -11 75.5 -33t51 -52t27.5 -67t6 -77q-4 -66 -32.5 -132t-78.5 -119.5t-119.5 -88t-154.5 -37.5q-66 -2 -118.5 16.5t-88 53t-53 82t-14.5 101.5q2 45 18.5 92.5
t46 90.5t71.5 78.5t96 56.5q-60 22 -94 59.5t-46 83.5t-5 96.5t30 99.5t59 93t80.5 76.5t96.5 50t106 13.5zM338 512l-2 -1q-35 -5 -63 -31t-48.5 -63.5t-32.5 -82.5t-15 -88q-2 -34 6 -64.5t24 -53.5t40 -37t56 -14q50 4 90 29t68.5 61t45 79t18.5 84q1 37 -7.5 71
t-27.5 60t-49 40.5t-72 13.5q-15 0 -31 -3zM422 1050q-47 -2 -81.5 -33.5t-55.5 -78.5t-28.5 -102t0.5 -103.5t31.5 -82.5t63.5 -39q46 4 84 33t66 69.5t44 87.5t18 88q3 74 -35 119t-107 42z" />
    <glyph glyph-name="nine" unicode="9" horiz-adv-x="741" 
d="M85 112q14 -15 29.5 -22t30.5 -8q48 -3 89.5 19.5t76.5 61.5t63.5 89.5t51 103t38.5 102t27 87.5q-26 -24 -55 -39.5t-58 -24.5t-57 -12.5t-51 -3.5q-68 0 -113 26t-70.5 69t-32.5 98t2 113q10 68 38 127.5t72 105t104 74.5t134 37q8 1 16 1h14q77 0 132 -31t90 -82.5
t51.5 -118t16.5 -137.5q-1 -14 -1 -27t-2 -28q-6 -69 -25.5 -146t-51.5 -153t-77 -145t-102 -122t-125.5 -84.5t-148.5 -31.5q-24 0 -45 3q-17 2 -34 6.5t-31 13.5t-23 22.5t-11 33.5q-1 5 3 12t10 12t12.5 5.5t12.5 -7.5v1zM338 536q41 4 76.5 34t62 72t42 88t15.5 82
q0 32 -7.5 70.5t-24.5 71.5t-45 55t-69 22q-23 1 -44 -7t-40 -22q-34 -27 -57 -73t-34.5 -99t-10 -106.5t16.5 -96.5t44.5 -68.5t74.5 -22.5z" />
    <glyph glyph-name="colon" unicode=":" horiz-adv-x="327" 
d="M246 338q11 -19 15.5 -35t2.5 -30q-1 -16 -8.5 -28.5t-19 -21t-25.5 -13t-27 -4.5q-23 0 -40.5 17t-13.5 60q1 16 7 31.5t14.5 28t20 20.5t25.5 8q12 0 24.5 -7.5t24.5 -25.5zM280 609q21 -38 18 -65q-3 -32 -28 -49.5t-52 -17.5q-23 0 -40.5 17t-13.5 60q1 16 7 31.5
t14.5 28t20 20.5t25.5 8q12 0 24.5 -7.5t24.5 -25.5z" />
    <glyph glyph-name="semicolon" unicode=";" horiz-adv-x="327" 
d="M285 609q11 -19 15.5 -35t3.5 -30q-3 -32 -28 -49.5t-52 -17.5q-23 0 -40.5 17t-13.5 60q1 16 6.5 31.5t14 28t20 20.5t25.5 8q12 0 24.5 -7.5t24.5 -25.5zM184 365q12 10 31 8t35 -13.5t24.5 -31.5t-0.5 -46q-9 -24 -30.5 -58t-50 -65.5t-61.5 -54.5t-64 -26
q-20 -2 -38 6t-33 30q-5 8 2 8h20q26 0 47.5 14t38.5 36t30.5 48.5t22.5 51.5q4 10 6 24.5t4.5 28t6 24.5t9.5 16z" />
    <glyph glyph-name="less" unicode="&#x3c;" horiz-adv-x="497" 
d="M392 170q3 -6 5 -15.5t2 -19.5t-2 -18t-7 -11q-2 -1 -13 6t-24 16t-24.5 17.5t-15.5 10.5q-10 4 -29.5 14.5t-45 24.5t-54.5 31t-56.5 34t-51.5 33.5t-39 29.5q-8 3 -13 10t-8.5 16t-5 18t-0.5 16q2 1 2 2t1 2q0 11 7 16q13 20 40.5 51t62 65.5t72 71t72 68t61 55.5
t38.5 35q6 5 19.5 20.5t29 32.5t28.5 30.5t17 13.5q10 0 18 -6.5t13.5 -16t7.5 -20.5t1 -19q-4 -22 -29.5 -55t-62.5 -71.5t-82 -80t-88.5 -80.5t-80.5 -73t-59 -57q36 -21 82 -46.5t89.5 -52t77.5 -52t45 -46.5z" />
    <glyph glyph-name="equal" unicode="=" horiz-adv-x="546" 
d="M454 708q12 2 19.5 7t10.5 5q11 2 9 -14q-2 -25 -8 -40.5t-17 -26.5q-12 -12 -30 -18t-37.5 -8.5t-37.5 -2t-30 0.5q-41 2 -79.5 3.5t-75.5 3.5q-23 1 -47 2t-47 -4q-11 -2 -19 -6.5t-11 -5.5q-10 -1 -8 15q3 48 25 67q12 12 30 18t37.5 8.5t37.5 2t30 -0.5
q42 -2 80 -3.5t75 -3.5h11h16t26 0.5t40 0.5zM438 503q11 2 19 7t11 5q5 2 7 -2.5t1 -11.5q-2 -25 -8 -40.5t-17 -26.5q-12 -12 -30 -18t-37.5 -8.5t-37.5 -2t-30 0.5q-42 2 -80 3.5t-75 3.5q-23 1 -47 2t-47 -4q-11 -2 -19 -6.5t-11 -5.5q-10 -1 -8 15q3 48 25 67
q11 12 29.5 18t38 8.5t37.5 2t30 -0.5q42 -2 79.5 -3.5t75.5 -3.5h11h16.5t26 0.5t40.5 0.5z" />
    <glyph glyph-name="greater" unicode="&#x3e;" horiz-adv-x="497" 
d="M-9 170q18 21 60.5 46.5t95 52t107.5 52t98 46.5q-14 23 -39 57t-54.5 73t-60 80.5t-54 80t-37 71.5t-9.5 55q1 8 7 19t14.5 20.5t18.5 16t20 6.5q4 0 12.5 -13.5t18.5 -30.5t18.5 -32.5t12.5 -20.5q8 -11 26 -35t40.5 -55.5t47.5 -68t47 -71t38.5 -65.5t22.5 -51
q3 -2 3 -6.5v-9.5q2 -2 -1 -4q-1 -7 -5 -16t-10.5 -18t-14.5 -16t-17 -10q-19 -13 -48.5 -29.5t-62.5 -33.5t-68 -34t-65.5 -31t-54 -24.5t-33.5 -14.5q-5 -2 -20 -10.5t-31.5 -17.5t-29.5 -16t-15 -6q-3 3 -2.5 11t4 18t9 19.5t11.5 15.5z" />
    <glyph glyph-name="question" unicode="?" horiz-adv-x="597" 
d="M299 377h-3l-78 -112q-7 -16 -9 -28t-4 -16q-2 -8 -9.5 -9t-14.5 4q-29 14 -41.5 31t-14.5 36q-2 15 2.5 33.5t13.5 38t20.5 38t23.5 35.5l6 13l1 3v-1q16 22 35 47t44 55h1q14 22 32.5 45.5t38.5 49.5l3 -1q21 27 45.5 57.5t46 64t37.5 68t19 68.5q2 25 -3 42
q-4 21 -16.5 30t-29.5 12q-27 3 -62.5 -7.5t-72 -30t-72 -47t-63.5 -59.5t-44.5 -67t-16.5 -69v1q3 -14 0.5 -20.5t-8 -8t-12.5 1t-12 6.5q-18 17 -24 40t-4 49q2 30 13.5 61.5t28 61.5t36 56t38.5 44q58 57 115.5 83t108.5 26q42 0 77 -16.5t59 -48t35.5 -77.5t6.5 -104
q-2 -17 -5.5 -34t-12 -39.5t-23 -51.5t-36.5 -68q-23 -34 -57 -85t-85 -126zM204 134q11 -19 15.5 -35t2.5 -30q-3 -32 -28 -49.5t-52 -17.5q-23 0 -40.5 17t-13.5 60q1 16 7 31.5t14.5 28t20 20.5t25.5 8q12 0 24.5 -7.5t24.5 -25.5z" />
    <glyph glyph-name="at" unicode="@" horiz-adv-x="897" 
d="M810 534q-17 -33 -37.5 -70.5t-41.5 -71.5t-41 -58t-36 -30q-8 2 -11.5 15.5t-1.5 37.5q3 31 10 61t15 59l14 55q2 20 -12 28t-35 8q-27 0 -40.5 -9t-21.5 -35v1q-14 -26 -33.5 -62t-42 -69t-46.5 -56t-45 -23q-12 0 -19 6t-10.5 15t-4 20t0.5 22q2 20 11.5 53.5t25 71.5
t35.5 77t43 70.5t47.5 51t49.5 19.5q19 0 32.5 -10t21.5 -26t10.5 -35t1.5 -38q-1 -7 -2 -13.5t-5 -14.5q7 -11 17 -11q3 0 9.5 3t8.5 5l1 1q7 17 8 39q3 30 -4.5 60t-23.5 54.5t-40 39.5t-55 15q-41 0 -79 -20t-71.5 -53t-62 -75.5t-49.5 -87.5t-34 -89t-16 -80
q-3 -28 0.5 -54t14.5 -46t31 -32t51 -12q28 0 55.5 14.5t53 37.5t48.5 53t43 62l-1 -3q-3 -30 -1 -58.5t9.5 -51.5t21.5 -37t35 -14q20 0 39 7.5t35 20.5q21 18 43.5 49t44 67.5t41.5 75t36 71.5zM811 541q30 80 24 144t-37.5 110.5t-84 74t-114.5 33.5t-129.5 -9.5
t-129.5 -55.5q-63 -41 -108 -104t-73.5 -135.5t-39.5 -148t-6 -141.5q0 -48 16 -88t43.5 -68t63 -43t74.5 -13t79 22t77 62q3 6 7.5 6t2.5 -10q-18 -54 -62.5 -92.5t-98.5 -49.5q-63 -13 -117.5 4.5t-96 53.5t-67.5 86t-31 102q-9 82 12.5 168.5t65 166t104.5 146t130 109.5
q68 42 141.5 60t142 12.5t126.5 -34t95 -79.5t48 -123.5t-15 -165.5h-42z" />
    <glyph glyph-name="A" unicode="A" horiz-adv-x="1680" 
d="M344 646q44 0 80 -13.5t61.5 -37.5t39.5 -57t14 -71q0 -42 -17 -89q60 46 129.5 77t140.5 46.5t138 15.5t123 -16q61 98 117.5 202.5t105 212t88 216t66.5 214.5v-1q2 6 7 11.5t11 7.5q12 16 41 16q45 0 73.5 -14.5t45 -39t23 -56.5t6.5 -67v-24.5t-1 -25.5
q-8 -69 -23.5 -154.5t-36 -181t-44 -196.5t-47.5 -201q80 2 155 46.5t142 135.5q17 13 27 6.5t13 -23.5q-41 -61 -82.5 -101.5t-85 -65t-89.5 -37t-94 -16.5q-13 -71 -19.5 -151t-6.5 -161q0 -93 12 -182t41 -158t77 -111t121 -42q29 0 65.5 9t76.5 27q29 -10 29 -24
q0 -7 -5 -17t-13 -19q-61 -26 -114.5 -37.5t-104.5 -11.5q-69 0 -124 24t-96.5 67t-71 101.5t-48 128t-27 146.5t-8.5 156q0 65 5.5 133.5t16.5 133.5q-51 9 -98.5 21t-101.5 27q-88 -137 -190 -262t-208 -218q-35 -30 -72 -58t-77.5 -49.5t-85.5 -34.5t-96 -13
q-74 0 -143 28t-121.5 80.5t-84 126t-31.5 165.5q0 78 25.5 159t74 147t118.5 108t158 42zM1011 441q-36 9 -68.5 12.5t-61.5 3.5q-121 0 -226 -58t-195 -160q-6 -4 -14 -7t-14 -3q-12 0 -21.5 6.5t-8.5 20.5q18 21 35 45.5t29 52.5t17.5 57.5t0.5 59.5q-16 43 -43.5 61
t-51.5 20q-38 1 -76.5 -27.5t-72 -76.5t-59 -109.5t-36.5 -125.5q-10 -53 -2.5 -116.5t34.5 -119t74 -93t116 -37.5q31 0 61.5 8.5t64.5 24.5q58 31 122 85t131 126t134.5 159.5t132.5 185.5zM1413 1077q-54 -133 -130.5 -286t-170.5 -310q45 -14 87.5 -26t87.5 -22
q45 203 78.5 364t53.5 278z" />
    <glyph glyph-name="B" unicode="B" horiz-adv-x="1312" 
d="M772 996q-11 -68 -25.5 -157.5t-30.5 -186.5t-33 -195t-32 -184.5t-27.5 -155t-20.5 -105.5q-11 -30 -26.5 -58t-38.5 -48.5t-55.5 -30.5t-77.5 -4q-19 7 -32 16.5t-4 27.5q0 10 7 20q7 8 13.5 22.5t14.5 32.5l-1 -1q18 59 32.5 130t27 148.5t23.5 157t20 154.5
q8 62 15.5 119t15 106t15.5 89t17 67q-50 -29 -108.5 -53t-114.5 -31q-32 -3 -59 2.5t-46.5 18t-29.5 32t-8 45.5q2 17 9.5 37t24.5 42q25 35 63 67t78.5 58.5t79.5 47t66 32.5q48 21 103.5 39t113.5 31t116.5 19.5t112.5 5.5q80 -2 151.5 -23t125 -66.5t84 -116.5
t29.5 -171q0 -7 -0.5 -16.5t-1.5 -17.5q-6 -77 -33.5 -151.5t-75 -137.5t-116 -109.5t-156.5 -68.5q112 -44 169.5 -115.5t67.5 -154.5q2 -20 2.5 -41.5t-1.5 -41.5q-8 -90 -49.5 -169.5t-106.5 -146t-147.5 -119t-171.5 -88.5t-179.5 -55t-171.5 -19q-58 0 -111 11
q-93 19 -170 62t-130.5 106t-80.5 144.5t-19 177.5q3 30 8.5 59.5t15.5 60.5q22 67 65 123.5t96 97t110.5 63.5t108.5 23q35 0 64.5 -11t50.5 -35.5t30.5 -62.5t5.5 -92q-1 -10 -2.5 -22t-3.5 -23q-14 -20 -25 -20t-18 9q3 48 -2.5 82t-17.5 55.5t-29 31.5t-38 10
q-32 0 -68.5 -20t-71 -53.5t-64 -78t-46.5 -93.5q-11 -34 -18.5 -68.5t-9.5 -65.5q-6 -78 10.5 -146t53.5 -120t93.5 -85t130.5 -42q12 -2 23 -2.5t22 -0.5q72 0 148.5 24.5t149 67.5t137 101.5t113.5 126.5t78 141.5t30 147.5q1 47 -13 88t-45.5 72.5t-82 53t-122.5 29.5
q-4 4 -4.5 11.5t1 16t5.5 16t10 11.5q88 26 153 71t108.5 102.5t67 123t29.5 132.5q1 9 1.5 17.5t0.5 16.5q1 56 -12 99t-36.5 74t-56.5 51t-72 31q-51 15 -113 15q-66 0 -138.5 -16.5t-138.5 -39.5q-86 -35 -147 -73.5t-90 -70.5q-16 -18 -25 -34t-10 -29q-2 -17 13.5 -25
t47.5 0q19 6 41.5 16t47 22t49 26t47.5 27q32 19 62 35.5t47 23.5q20 8 39 12.5t33 4.5q22 0 35.5 -9t21 -25.5t9.5 -39t1 -49.5z" />
    <glyph glyph-name="C" unicode="C" horiz-adv-x="1378" 
d="M1421 398q-37 -64 -79.5 -136t-88 -144t-92.5 -140t-94 -124q-54 -63 -121.5 -113.5t-141 -83.5t-148.5 -47t-144 -5q-98 13 -159 62t-93 122.5t-38.5 165t3.5 188t32 192t49 177.5q-59 1 -103.5 29.5t-74 74.5t-43.5 106t-11 125q4 49 20 108t41 112t59 91.5t75 46.5
q11 2 19 -1t13 -9t7 -13t2 -13q1 -15 -9 -15q-5 -1 -8.5 -0.5t-7.5 1.5h-8q-24 -5 -45.5 -31t-38.5 -62.5t-28 -78t-15 -78.5q-1 -55 11 -107.5t37.5 -93.5t64.5 -64.5t92 -20.5q30 75 73 158t97.5 163.5t120 153.5t140.5 128.5t159 88t176 32.5q55 0 102.5 -23.5
t82.5 -74.5q22 -33 38 -71.5t26.5 -80.5t15 -85t2.5 -83q-2 -44 -12 -82.5t-28 -68.5t-45 -51t-63 -28q-29 -5 -60 2t-56.5 25.5t-42.5 49t-17 73.5q-33 -38 -79.5 -78t-102.5 -78t-120.5 -72t-133.5 -60q-37 -103 -65 -213.5t-37 -218.5q-2 -17 -2.5 -33.5t-1.5 -33.5
q-7 -45 -3 -91.5t19 -89t41.5 -76.5t63.5 -53q45 -24 94.5 -20.5t98.5 24.5t95 55t84 71q49 54 97.5 120.5t93.5 136t86 138t75 126.5h-1l41 71q29 19 45 -14zM1122 947q-3 -10 -4.5 -20t-3.5 -20q-3 -34 4 -65t22 -54t37.5 -35t49.5 -9q30 10 48.5 48.5t20.5 92.5
q2 42 -2.5 87.5t-16 88.5t-29.5 81t-41.5 65.5t-53 41.5t-63.5 9q-57 -13 -115.5 -67.5t-113.5 -135.5t-104.5 -180t-89.5 -200q59 20 118.5 47t114.5 63t101.5 81.5t79.5 101.5q11 12 20 13.5t15 -3t7.5 -13.5t-1.5 -18z" />
    <glyph glyph-name="D" unicode="D" horiz-adv-x="1395" 
d="M747 993h1q-10 -69 -24.5 -158t-30.5 -186.5t-33 -196t-32 -185t-27.5 -155.5t-19.5 -106v1q-9 -26 -22.5 -51.5t-33 -45t-46.5 -31.5t-64 -12h-23.5t-10.5 1h1q-18 7 -30 15.5t-4 26.5q-2 6 1 11.5t5 9.5q5 8 12.5 21.5t15.5 30.5q17 55 32 128.5t27.5 153.5t23.5 161
t20 152l7 54q7 51 13.5 99.5t13 91.5t13.5 78.5t15 59.5q-24 -14 -52.5 -27.5t-57.5 -25t-58 -20t-55 -12.5q-30 -3 -56 2t-45.5 16.5t-31 29.5t-11.5 42q0 35 34 86q26 34 65 66t80 58.5t79 46.5t64 32q114 51 215 74.5t185 23.5q126 0 217.5 -47t151.5 -128.5t89 -190.5
t29 -233q0 -46 -5.5 -98t-14.5 -106t-21.5 -107t-26.5 -100q-42 -116 -111 -233t-158.5 -220t-196 -184.5t-223.5 -126.5q-66 -20 -138 -33t-138 -13q-88 0 -172 24.5t-153 72.5q-78 62 -127.5 152.5t-49.5 200.5q0 36 7 78.5t18 82.5q24 63 68 118.5t97.5 97t110 66
t106.5 24.5q32 0 59 -9.5t47 -30.5t31.5 -53t11.5 -77q0 -41 -7 -75v1q-11 -19 -23 -18.5t-20 8.5q1 11 1.5 21t0.5 19q0 73 -24 105.5t-62 32.5q-32 0 -69.5 -20t-72.5 -54t-64.5 -79t-45.5 -95q-14 -48 -22 -94t-8 -85q0 -81 25.5 -148.5t76.5 -115.5q45 -45 104.5 -64.5
t125.5 -19.5t132 18.5t123 50.5q73 44 142.5 118.5t129.5 167.5t109.5 198t83.5 212q16 54 29.5 110t23.5 112t15 110t5 103q0 96 -18.5 178.5t-57.5 143t-100.5 95t-147.5 34.5q-54 0 -122.5 -16.5t-145.5 -49.5q-81 -34 -144 -73.5t-93 -72.5q-35 -40 -35 -67
q0 -15 15.5 -22t45.5 0q20 6 43.5 16.5t48.5 23t49 26t46 26.5l41 24q22 12 39.5 21.5t28.5 13.5q21 8 40 12.5t32 4.5q22 0 35 -9t20 -25.5t8.5 -39t0.5 -49.5z" />
    <glyph glyph-name="E" unicode="E" horiz-adv-x="1462" 
d="M544 -503q-77 13 -132 45.5t-89.5 78.5t-50.5 102.5t-16 118.5q0 83 26 171t71.5 168.5t108 147.5t136.5 108q-59 25 -98 64.5t-61 81.5q-53 5 -99.5 26t-84 56t-63.5 83.5t-37 109.5q-3 15 -4.5 34t-1.5 38v17.5t1 17.5q3 42 12 86t25 82t39 66t54 40q25 7 39 -5t15 -25
q0 -5 -1.5 -9.5t-6.5 -6.5q-4 -2 -9.5 -2h-10.5q-7 0 -9 -1q-18 -7 -32 -25.5t-23.5 -44t-15.5 -55.5t-7 -61q-2 -18 -1 -39.5t4 -39.5q9 -41 26 -81t41.5 -74t55 -58.5t65.5 -32.5q-1 13 -1.5 28.5t0.5 29.5q4 65 30.5 134.5t70 136t100 127t120.5 108.5t132 80.5t134 43.5
q7 1 16.5 1h15.5q91 0 154.5 -40.5t103.5 -105t58 -144t17 -157.5q-2 -39 -12 -78t-27.5 -71.5t-42.5 -55.5t-57 -31q-29 -4 -61 3t-59 25.5t-45.5 49t-20.5 73.5q-24 -29 -59.5 -61.5t-78 -64.5t-90 -62.5t-96.5 -56.5q12 -21 37 -32.5t48 -16.5q9 -2 20.5 -3t19.5 -1
q15 0 28 1.5t27 3.5q2 0 2.5 0.5t2.5 0.5t2.5 0.5t2.5 0.5q19 2 36 3t31 -2q31 -9 28 -34q0 -12 -8.5 -23.5t-23.5 -19.5q-40 -20 -86 -58t-91.5 -88t-87 -109t-73.5 -122t-51 -126t-19 -120q0 -61 28 -114t88 -87q46 -22 91 -22q55 0 110.5 27t106 68t94 89.5t74.5 91.5
q75 106 160.5 248.5t185.5 322.5q26 13 35 6q7 -5 5 -20q-95 -180 -181 -324t-157 -250q-50 -72 -116 -142.5t-141.5 -125.5t-159 -89t-168.5 -34q-34 0 -68 6zM1094 945q-2 -12 -3.5 -22t-1.5 -20q-2 -33 6.5 -64.5t24.5 -54.5t38 -36t48 -10q27 11 44.5 49.5t18.5 92.5
t-6.5 113.5t-26 109.5t-51 82.5t-80.5 32.5q-25 0 -56.5 -11.5t-66.5 -33.5q-59 -40 -117.5 -96t-106 -120t-78 -131.5t-33.5 -129.5q-2 -14 0 -30q57 19 115.5 47t112 65t99 84t77.5 106q6 8 12.5 10.5t11.5 2.5q12 0 17.5 -12t1.5 -24z" />
    <glyph glyph-name="F" unicode="F" horiz-adv-x="1301" 
d="M750 337q-47 -25 -84.5 -63t-58.5 -91q-6 -7 -15.5 -1t-11.5 15q13 93 61.5 158t116.5 95q2 25 2.5 51t1.5 53q0 4 0.5 10.5t0.5 10.5q1 5 1 11.5v11.5q0 13 1 25.5t1 25.5q3 71 9 163q-16 -8 -38 -16.5t-47.5 -15t-52.5 -11t-53 -4.5q-37 0 -66 15.5t-36 49.5
q-4 16 -4 34q0 38 18.5 73.5t48 64t66 47.5t73.5 24q4 0 9.5 0.5t10.5 1.5q8 1 16.5 1.5t16.5 0.5q49 0 94.5 -16.5t82.5 -52.5q101 29 212 54t225 48q82 17 168 36t170 39.5t164.5 43.5t151.5 48h-1q8 3 25.5 9.5t36 14.5t34 18t19.5 21q1 5 2 9t1 7q0 5 1 9t7 6h-1
q6 2 13 -1t11 -11q10 -18 -0.5 -39t-29.5 -40.5t-40.5 -34.5t-32.5 -22q-84 -51 -192 -93t-222.5 -77t-226.5 -62.5t-205 -49.5l-50 -12q-54 -12 -99.5 -23t-77.5 -23q0 -6 0.5 -12t1 -15.5t1 -23.5t0.5 -35v-44.5t-1 -60t-2.5 -80t-5.5 -104.5h6t7 1h4t3 1h-1q47 9 94 19
t90.5 24.5t80.5 34t63 47.5q5 7 9 7t7 -4.5t5 -11.5t3 -13q-7 -47 -37 -80t-74 -55.5t-99 -38t-112 -27.5l-29 -5q-6 -2 -12 -3.5t-17 -2.5v-22q0 -2 -0.5 -3t-0.5 -2v-4h1q-10 -103 -29 -215t-55 -219t-92.5 -203t-140.5 -166q-29 -21 -63 -38t-71 -29t-76 -19t-76 -7h-43
q-84 12 -150.5 52t-112.5 101t-70.5 140t-24.5 168q0 71 18.5 141t53 130t84.5 106t113 69q20 7 39.5 9.5t37.5 2.5q47 0 79 -19.5t52 -52.5t29 -76.5t9 -91.5q0 -35 -2 -62t-4 -47v1q-6 -13 -12.5 -19t-12.5 -7.5t-11 0t-8 3.5q-1 5 -0.5 9.5t0.5 9.5v64q0 3 0.5 6t0.5 7
q0 30 -2.5 60t-11.5 54t-25.5 39.5t-44.5 16.5q-25 2 -49.5 -11t-48.5 -38t-45.5 -59.5t-39.5 -75t-31.5 -85t-20.5 -89.5q-4 -26 -5 -43t-1 -27q0 -65 16 -123t44.5 -102t67.5 -70.5t86 -27.5q62 4 113.5 33.5t94 77t75.5 109t58.5 129.5t43.5 139t30 137q16 88 24 174z
M758 950q-2 34 -19.5 49.5t-40.5 15.5q-19 0 -40 -8.5t-40 -24t-33 -36.5t-18 -45q0 -6 9.5 -6.5t24 2t32 7.5t35.5 10l17 5q30 9 52 17t21 13v1z" />
    <glyph glyph-name="G" unicode="G" horiz-adv-x="1255" 
d="M851 88q-22 -22 -43 -42t-43 -38q-54 -46 -109.5 -82t-110.5 -61t-107 -38t-98 -13q-55 0 -102 17.5t-81.5 54t-54 93t-19.5 133.5q0 13 1 28t3 30q4 40 13.5 87t24 97t33 102.5t41.5 103.5q-66 10 -115 44.5t-82 84t-49.5 111.5t-16.5 128q0 12 0.5 23t1.5 23
q4 54 23 115.5t49.5 114.5t71.5 88t91 35q13 0 21.5 -5t14 -12t7.5 -15t1 -15q-2 -15 -10 -15h-9q-13 8 -21 8q-27 0 -52 -24t-45.5 -60.5t-34.5 -80t-20 -83.5q-1 -8 -1 -19v-19q0 -57 14 -111.5t42 -98.5t70.5 -73t100.5 -36q69 132 157 250.5t188 208t208 142t217 52.5
q83 0 153.5 -35t118.5 -114q42 -70 63.5 -156.5t21.5 -168.5q0 -11 -0.5 -21.5t-1.5 -20.5q-5 -47 -17.5 -87.5t-34 -70.5t-53 -47.5t-73.5 -17.5q-33 0 -68 13.5t-63 39.5t-45.5 63.5t-17.5 84.5q-40 -34 -96 -68.5t-123.5 -65t-142.5 -55t-152 -37.5q-28 -65 -48 -121
t-33.5 -106t-21.5 -94t-12 -85q-1 -12 -1.5 -25t-0.5 -24q0 -76 24.5 -121.5t78.5 -45.5q51 0 104 25.5t105 66t100 90.5t88 100q2 15 2 20t-1 16q0 8 -4 16t-9 14q-1 4 -2.5 4.5t-2.5 4.5q-2 9 10.5 18.5t30.5 11.5q56 6 90 2q24 -3 41 -10.5t28 -18t17 -22.5t8 -23
q0 -55 -10 -122.5t-26.5 -141t-38.5 -150t-46 -150.5t-48 -142t-45 -125q-28 -73 -65 -153.5t-86 -151t-110.5 -121.5t-137.5 -64q-11 -1 -20 -2t-20 -3q-69 -8 -114.5 5.5t-73.5 42.5q-25 23 -35 45.5t-12 46.5q-2 22 1.5 45t14.5 46q18 40 50.5 81t74.5 82t91 81
t98.5 76.5t97.5 68.5t89 59q38 113 69 216.5t60 210.5zM1052 911q2 0 4.5 -0.5t4.5 -0.5h13q-7 -21 -10 -39.5t-5 -33.5q-3 -39 5.5 -75t26 -63.5t42 -43.5t53.5 -16q18 0 32 11t24.5 29.5t17 44t9.5 54.5q1 11 2 25t1 26q0 67 -14.5 138.5t-42.5 129.5t-70 95.5t-96 37.5
q-66 0 -134 -48t-134 -126t-126.5 -177.5t-111.5 -201.5q68 9 141 26t141 44t126 66.5t97 95.5zM494 -919q27 41 54.5 96t53.5 114.5t49 118t41 106.5q-52 -36 -115 -81t-121.5 -94.5t-106.5 -99.5t-70 -95q-13 -25 -11.5 -51t15 -47.5t37 -35t55.5 -13.5q28 1 61 24t58 58z
" />
    <glyph glyph-name="H" unicode="H" horiz-adv-x="1540" 
d="M1308 1095q2 28 -3 46t-4 26q2 13 12 17t24 4q42 0 67.5 -12.5t39 -33.5t17 -47t1.5 -53q-5 -53 -17 -121.5t-30 -147t-39.5 -163.5t-43.5 -171q48 1 91.5 9t82.5 25q9 6 13 4t5 -7.5t-0.5 -13t-4.5 -13.5q-31 -59 -86.5 -82.5t-127.5 -25.5q-17 -63 -32.5 -122
t-29.5 -115q-10 -40 -22.5 -88.5t-22 -101.5t-15.5 -107.5t-3.5 -104.5t15 -94t39 -75.5t69 -49t105.5 -14.5q18 -13 14.5 -23.5t-22.5 -23.5q-119 -15 -194 11.5t-116 80t-54.5 128t-9.5 157t19.5 165.5t31.5 154q11 53 25 111.5t30 121.5q-54 6 -110.5 14t-113.5 13
q-24 -91 -51 -177t-48 -167q-26 -90 -53.5 -169.5t-53.5 -129.5q-12 -26 -30.5 -47t-44 -33t-59 -11t-77.5 21q-16 5 -25 13.5t-4 19.5q5 8 21.5 21.5t29.5 39.5q9 18 22 52.5t28 81.5q37 118 77.5 238.5t75.5 247.5q-70 -8 -131.5 -33t-109.5 -77q-11 -5 -18.5 5.5
t-0.5 20.5q24 49 55 83.5t67.5 57.5t78 35.5t86.5 17.5q15 66 30 145.5t21.5 162.5t2 163t-28.5 148t-71 118t-123 72q-52 10 -107.5 -13.5t-105 -70.5t-87 -112.5t-53.5 -139.5q-14 -68 -9 -135t23.5 -121t48.5 -89.5t66 -39.5q29 -5 57.5 7.5t55.5 36t51 54t43.5 62.5
t32.5 62t19 51q3 0 9.5 3t13.5 3t12.5 -5t5.5 -20q-13 -48 -36.5 -96t-56 -90.5t-72.5 -75.5t-84.5 -52t-92 -20.5t-96.5 20.5q-59 30 -95.5 81t-52.5 113t-11.5 132.5t29.5 139.5q30 86 81.5 157t119 120.5t148 74.5t167.5 19q86 -8 161 -45t123 -98q55 -72 79.5 -156.5
t27.5 -178t-12 -192.5t-39 -199q55 -5 110.5 -13t111.5 -15q25 96 49.5 191.5t45.5 180.5t35 155.5t18 116.5z" />
    <glyph glyph-name="I" unicode="I" horiz-adv-x="1053" 
d="M1090 1085q-17 -120 -50 -254t-73 -283q-33 -129 -57 -226.5t-39.5 -173t-23.5 -134t-8 -109.5q0 -59 11 -111.5t38.5 -91t74 -59.5t117.5 -18q21 -17 17 -29.5t-26 -26.5q-44 -6 -84 -6q-93 0 -154 30t-97 80.5t-50.5 118t-14.5 142.5q0 48 6 100.5t17 116t28 139.5
t40 170q14 55 30.5 118t32 128.5t30 131.5t26 126.5t18 112.5t6.5 91q0 45 -10.5 67.5t-33.5 16.5q-66 -21 -143 -66t-151 -105q-19 -15 -60 -50.5t-91.5 -83.5t-104 -105.5t-97.5 -116.5t-72.5 -116t-28.5 -105q0 -12 2.5 -24t7.5 -23l3 -8q4 -10 7 -23.5t-7 -21.5
q-7 -5 -19 -0.5t-24.5 13t-23 18.5t-14.5 16q-14 28 -22 60t-8 62q0 68 28.5 142t78 147.5t116.5 143t143 129.5q54 43 118.5 83t131 71t132.5 49.5t123 18.5q44 0 81.5 -13t65 -41.5t43 -74t15.5 -111.5v-16t-1 -16z" />
    <glyph glyph-name="J" unicode="J" horiz-adv-x="1014" 
d="M843 1240q-68 -23 -141 -66.5t-145 -100.5q-23 -18 -64.5 -54.5t-90.5 -84.5t-100.5 -104.5t-93.5 -114t-68.5 -113t-26.5 -101.5q0 -11 2 -22t7 -23l-1 1l2 -7q5 -12 8.5 -26.5t-7.5 -21.5q-8 -5 -20.5 -0.5t-25 13t-22.5 19t-13 16.5q-15 27 -22.5 58t-7.5 61
q0 67 28.5 140.5t77 146.5t114.5 142.5t141 129.5q54 42 117 81.5t128.5 70t129.5 49t120 18.5q43 0 80 -13t63.5 -41.5t41.5 -73.5t15 -110v-33q-9 -59 -21.5 -121t-26.5 -124.5t-29 -124t-30 -117.5q-4 -14 -7 -27.5t-6 -26.5l-10 -34l-6 -22l-17 -67
q-18 -70 -41.5 -159.5t-52.5 -183.5t-64.5 -185.5t-76.5 -165t-87.5 -122t-99.5 -57.5h-3q-7 -1 -14 -1.5t-23 -0.5q-63 0 -102 27.5t-61 73.5q-35 76 -35 152q0 35 7 71.5t17 71.5q30 88 87.5 175t126 166.5t139.5 149t128 122.5q20 68 42.5 152.5t41 169.5t30.5 162
t12 130q0 45 -9.5 67t-34.5 13zM513 -227q27 59 56.5 141.5t58 172.5t54 179.5t46.5 163.5q-52 -49 -110 -108.5t-111 -124.5t-96 -134.5t-65 -139.5q-9 -32 -15 -61.5t-6 -56.5q0 -6 1 -15t3 -23q10 -54 28.5 -79.5t43.5 -25.5q28 -1 57.5 28t54.5 83z" />
    <glyph glyph-name="K" unicode="K" horiz-adv-x="1312" 
d="M802 1162q54 -70 78.5 -152.5t27.5 -173.5t-12 -188t-39 -194q60 28 125 81t128 122q17 17 52.5 59.5t77 98.5t82.5 120.5t69.5 127t37 117t-15.5 91.5q-2 3 -5.5 8.5t-6 11.5t-3 11.5t3.5 9.5q6 6 17 4t23 -7t22.5 -12t14.5 -11q44 -57 45.5 -135t-29 -164.5t-87.5 -175
t-130 -167.5q-44 -48 -92 -90.5t-97.5 -77t-99 -59.5t-96.5 -37q55 -98 108 -209t109.5 -219.5t120.5 -206t140.5 -168t168.5 -106t206 -19.5q9 2 14.5 6t15.5 -6q8 -11 -0.5 -22t-19.5 -14q-122 -31 -223 -27.5t-184.5 34.5t-151 84.5t-121.5 122t-96 148.5t-74 164
t-56.5 167.5t-43.5 158.5q-20 -67 -39.5 -131t-36.5 -125q-26 -88 -53 -165.5t-52 -126.5q-12 -25 -30.5 -47.5t-44 -35.5t-59.5 -13.5t-77 18.5q-15 5 -22.5 18t-2.5 24q13 17 28.5 26.5t28.5 23.5q17 20 32.5 53t26.5 63q24 73 44.5 145.5t39 146t36.5 149t37 153.5
q15 64 30 142.5t22.5 160.5t3.5 162t-27.5 148t-69.5 118t-123 72q-51 10 -105.5 -13t-103 -69t-86 -110t-52.5 -136q-14 -66 -9 -131.5t23 -118.5t47.5 -87.5t65.5 -38.5q28 -5 56.5 7t55 35t50 53t42.5 61t32 60t19 50q3 0 9 3t13 3t12.5 -4.5t5.5 -19.5q-13 -47 -36 -94
t-55 -88.5t-71 -74t-83 -51t-91 -19.5t-95 20q-58 30 -94.5 79t-52 110t-11 129.5t28.5 136.5q30 84 81 153.5t117.5 118t145.5 72.5t165 18q85 -7 158.5 -43t121.5 -96z" />
    <glyph glyph-name="L" unicode="L" horiz-adv-x="1161" 
d="M220 -339q-63 14 -106.5 39t-70 57.5t-37 69.5t-8.5 75q2 41 17.5 80t41.5 71q34 38 80.5 58.5t91.5 20.5q32 0 62 -9.5t53.5 -28.5t38.5 -47.5t18 -65.5q0 -38 -14 -70q36 26 80.5 41.5t98.5 23.5q30 58 55.5 125t47 134.5t39 132t31.5 117.5q2 5 3.5 10t2.5 10
q-24 -8 -47 -11t-47 -3q-27 0 -53 3.5t-50 8.5q-71 16 -121.5 55.5t-82.5 92.5t-46 116t-11 128q3 66 24.5 129t58.5 114.5t89 86.5t117 46q8 2 18.5 2.5t18.5 0.5q54 0 96.5 -21.5t71 -54.5t41.5 -72t7 -73q-11 -24 -21 -23.5t-19 9.5q-1 35 -9.5 59t-21 39.5t-26 23
t-25.5 10.5q-17 3 -34 3q-53 0 -95.5 -28.5t-72.5 -74t-47.5 -103.5t-20.5 -117q-2 -39 2.5 -77t16 -72t29.5 -62t43 -46q27 -20 60 -31.5t70 -11.5q25 0 54.5 7.5t57.5 18.5l32 112q25 94 53 189t62 178.5t76 148.5t96 101q34 20 76 32.5t83 12.5q49 0 89 -22t54 -73
q7 -28 6 -62q-3 -49 -24 -108t-55 -121t-77.5 -123t-91 -114.5t-95.5 -95.5t-90 -65l-29 -118q-14 -53 -29 -112t-33 -119.5t-40 -121.5t-50 -118q67 -5 129.5 -21t129.5 -37q106 -34 203 -84t170.5 -110t116 -128t38.5 -139q-1 -9 -2 -19.5t-3 -18.5t-9 -20t-17 -23.5
t-21 -19t-19 -5.5q-7 2 -10 8t-3.5 13t0.5 14t3 11q2 35 -20 70.5t-59.5 71t-87.5 69t-104 64t-109 57t-103 47t-85.5 34.5t-56.5 19q-19 7 -33 11t-26 6.5t-23 4t-24 3.5q-9 2 -18.5 3t-21.5 3q-37 -46 -86 -84t-104.5 -65.5t-114 -43t-115.5 -15.5q-20 0 -39.5 1.5
t-38.5 5.5zM988 658q30 13 66.5 44.5t74 75t73.5 95.5t64.5 106t47 106.5t20.5 97.5q2 33 -6 57t-23.5 35t-38 7t-49.5 -27q-49 -43 -83.5 -107t-59.5 -135.5t-41 -143.5t-28 -129zM281 -199q12 15 24 33t22 37.5t16.5 39.5t7.5 40q1 15 -2 32q-9 37 -36.5 55t-59.5 18
q-25 0 -49.5 -11t-41.5 -31q-20 -23 -30.5 -53.5t-12.5 -61.5q-2 -46 14 -89t54 -66q23 -15 45.5 -21.5t43.5 -6.5q34 0 66 14t61 36.5t54.5 50t46.5 55.5q-59 -6 -104 -28t-68 -62q-8 -7 -17 -8.5t-17 1t-13 9t-4 16.5v1z" />
    <glyph glyph-name="M" unicode="M" horiz-adv-x="2038" 
d="M1153 1096q4 21 1.5 38.5t-5.5 29.5v-1q-2 7 -3 12.5t0 12.5q4 17 19 21.5t34 5.5q52 -4 83.5 -17.5t50.5 -36.5q22 -25 37 -62t25 -78.5t16 -84t10 -78.5l4 -27q6 -60 11 -131t10 -146q6 -96 11.5 -176.5t14.5 -143.5q39 84 93.5 182.5t113 198t114 193t95.5 168.5v8
q2 14 -0.5 24l-4.5 18q-1 5 -2 8.5t0 8.5q0 14 11.5 19t26.5 7q40 4 65.5 -5t39 -25.5t17.5 -39t2 -46.5q-4 -53 -17.5 -127t-33 -159t-42 -175.5t-44.5 -175.5q-23 -87 -39 -150.5t-26.5 -111.5t-16.5 -84t-9 -69q-4 -45 -1.5 -88t15.5 -77.5t38.5 -58.5t67.5 -33
q6 -2 15.5 -1.5t20.5 0.5h26.5t24.5 -2t18 -6.5t7 -12.5q0 -13 -24 -31q-78 -15 -139 -12q-77 4 -123.5 35t-70 79t-29 109.5t0.5 126.5q5 57 15.5 114t21.5 105q8 37 18 81t21 90.5t23 94t24 91.5q10 39 18 71.5t15.5 62.5t14 60t14.5 63q-8 -17 -18 -35.5t-25.5 -46
t-38 -67.5t-56.5 -100.5t-80.5 -144.5t-109.5 -199v1q-2 -8 -5 -15t-5 -14q-9 -26 -22 -45t-42 -26q-22 -5 -38.5 -1.5t-28 12.5t-19 22t-11.5 28q-11 42 -19.5 104t-15 134t-11.5 149t-9 149l-5 101q-20 -63 -38 -119.5t-35 -109.5q-29 -97 -56 -181t-57 -165
q-40 -112 -89.5 -221t-112.5 -205t-141 -175t-175 -130q-52 -28 -109 -42t-114 -14q-35 0 -69 5t-66 16h1q-74 23 -128 68.5t-88 106.5t-48 135.5t-7 156.5q4 57 20 119q21 81 61 155t95 132.5t122 96t141 45.5q72 4 121.5 -25t79.5 -79.5t41 -116.5t5 -135q-2 -16 -4.5 -33
t-5.5 -32q0 -3 -2 -9q-2 -12 -5.5 -28t-9 -30t-13.5 -24t-19 -10q-17 -2 -22 6.5t-3 20.5q0 7 2 14.5t4 13.5q2 4 3 9t1 4q6 21 11 46t7 51q3 39 0.5 78.5t-13.5 72t-32 54.5t-55 27q-35 9 -84 -16t-99.5 -73t-97 -113t-77.5 -137q-14 -38 -24 -81t-14 -79q-5 -59 3 -113
t27.5 -96.5t50.5 -70.5t72 -36h-1q8 -1 15 -1h14q82 0 154 37.5t134.5 99.5t115.5 142.5t97 166.5t79 170.5t61 155.5q16 42 40 113.5t50.5 156t52.5 174t47.5 167t35.5 135t15 77.5z" />
    <glyph glyph-name="N" unicode="N" horiz-adv-x="1830" 
d="M1333 1050q6 -9 11 -24.5t9 -33.5t7 -37t6 -36l3 -28h1q16 -92 27.5 -185.5t22.5 -188t24 -189t33 -188.5q42 105 79.5 211.5t74.5 213.5t77.5 214.5t88.5 215.5q24 51 55 98.5t67.5 85.5t79.5 62.5t92 28.5q35 -1 78.5 -12.5t82.5 -37.5q8 -17 4.5 -27t-25.5 -16
q-42 20 -80 20q-21 0 -47 -8q-27 -10 -51 -30t-46 -47t-41 -58.5t-35 -64.5q-30 -59 -61 -139t-62.5 -168t-62 -179t-60 -173.5t-56 -151t-48.5 -110.5q-15 -30 -40 -54.5t-60 -24.5q-26 0 -49 11q-12 8 -14 18q-2 2 -4 6.5t-2 6.5q-25 82 -39.5 171t-24.5 182t-19 188
t-23 190q-10 -34 -21 -69t-23 -70q-8 -26 -17 -52.5t-17 -53.5l-22 -68q-21 -72 -47.5 -151.5t-53.5 -151.5q-39 -104 -88 -206t-111.5 -193t-139.5 -166t-172 -124q-49 -25 -106 -38.5t-114 -13.5q-71 0 -136 20q-75 22 -130 64.5t-90 100.5t-49.5 129t-7.5 149q2 23 7 50
t15 59v-1q20 76 59.5 146.5t93.5 125t120.5 90t140.5 42.5q72 4 121.5 -23.5t79.5 -74.5t41.5 -109t5.5 -127q-2 -14 -4 -30t-4 -30q-1 -2 -1 -6t-1 -6q-2 -12 -6.5 -28t-11 -29.5t-15.5 -21.5t-21 -3q-8 3 -11.5 7.5t-4 10t1.5 11.5l4 12l6 14v-1q4 14 7 35t6 50
q3 41 -0.5 82t-15.5 74t-33 54.5t-54 23.5q-35 9 -83 -15.5t-98 -70t-96 -107.5t-77 -129q-13 -34 -23 -74t-13 -73q-5 -55 4 -105.5t30 -91t52 -68t71 -36.5l-1 1h28q80 0 151 35t133 93.5t114.5 134.5t96.5 156.5t78.5 160.5t60.5 147q49 132 90 268.5t76 261.5l13 45
l8 26t7 26q16 50 25.5 88.5t12.5 59.5q2 17 0 31t-5 23q-3 10 -4 15.5t-1 7.5q2 14 16 20t34 5q52 2 89.5 -9.5t56.5 -40.5z" />
    <glyph glyph-name="O" unicode="O" horiz-adv-x="1364" 
d="M524 655l-2 -14t-3 -15q-8 -36 -17.5 -84t-19 -104.5t-18 -118t-14.5 -124.5q18 2 37 4l38 4h13q6 0 10 1q-7 63 -13.5 153t-6.5 197q0 41 1 84.5t6 86.5q7 71 21.5 142t38 135.5t57 120t79 96.5t104.5 64t134 23q97 0 166.5 -41t114.5 -113t66 -169.5t21 -209.5
q0 -26 -1.5 -56t-3.5 -58q-13 -127 -47.5 -260.5t-88.5 -259.5t-125.5 -238t-157 -196t-184.5 -133t-208 -49q-86 0 -153 33t-115.5 90t-79 133.5t-43.5 163.5q-35 -26 -60 -55t-28 -55q-1 -2 0 -8.5t3 -11.5q1 -4 1 -9v-7q0 -5 -4 -9.5t-11 -4.5q-6 0 -12.5 5t-13 11.5
t-11.5 13t-6 9.5q-2 12 -4 28t-2 27q6 47 42.5 94.5t93.5 88.5q-2 20 -2.5 39.5t-0.5 41.5q0 43 2 83.5t6 79.5q8 97 23.5 181.5t35.5 145.5v-1q34 44 84 65t102 21q43 0 83.5 -15t71.5 -41zM681 110q-32 8 -58.5 10.5t-47.5 2.5q-37 0 -68 -7t-61 -16q-1 -77 9.5 -147.5
t36.5 -124t71.5 -85.5t115.5 -32q76 0 146.5 40t133 108.5t115 161t92 197t65.5 216t36 219.5q2 27 3 54.5t1 53.5q0 99 -17.5 185.5t-54.5 151t-94.5 102t-137.5 37.5q-56 0 -97.5 -39t-70.5 -103t-46.5 -147.5t-26.5 -171.5q-5 -48 -7 -98t-2 -97q0 -49 2.5 -101
t6.5 -101.5t9 -94.5t10 -80l11 -61q3 -11 5 -19.5t1 -14.5q-2 -12 -14 -12q-13 0 -42 8q-5 0 -13 2z" />
    <glyph glyph-name="P" unicode="P" horiz-adv-x="1478" 
d="M488 460q9 13 17.5 33.5t13.5 46.5q7 6 13 9.5t12 3.5t12 -6t12 -20q0 -23 -10.5 -49t-27.5 -55q-26 -39 -61 -64.5t-74 -40.5q-56 -19 -107 -19q-63 0 -111 27.5t-80.5 73.5t-49 106t-16.5 124q0 38 6 77t18 75q31 91 85.5 171t122.5 148t145.5 122.5t154.5 94.5
q49 25 102 45t107.5 33.5t109 21t105.5 7.5q96 0 182.5 -22t156.5 -68q55 -39 95.5 -89.5t67 -109t39 -122.5t12.5 -131q0 -75 -15.5 -149.5t-44.5 -144t-71.5 -131t-96.5 -109.5t-119 -79.5t-139 -41.5q-32 -4 -63.5 -6.5t-63.5 -2.5q-27 -105 -62.5 -201.5t-85.5 -170.5
t-118 -118t-159 -44q-38 0 -81 8t-92 28q-17 17 -15.5 30t28.5 21q22 -7 42 -9.5t40 -2.5q61 0 107.5 29t80.5 76.5t57.5 108t39.5 122.5q22 85 40 182.5t32.5 196.5t24.5 195t16 178q0 15 -3 30t-6 23q-2 4 -3 7.5t-1 8.5q1 14 12.5 20.5t26.5 7.5q45 2 73 -9t43.5 -30.5
t21.5 -45.5t7 -53q2 -110 -12.5 -231.5t-38.5 -268.5q81 0 146.5 43t111.5 114t70.5 161.5t24.5 183.5q0 89 -24 174t-76 151t-132.5 106t-192.5 40q-119 0 -275 -54q-80 -32 -152 -79.5t-129 -110t-96.5 -139t-54.5 -166.5q-4 -20 -5.5 -40t-1.5 -39q0 -51 12 -97.5
t36 -82.5t60.5 -57.5t84.5 -21.5h15t15 2q32 5 60 20.5t49 44.5z" />
    <glyph glyph-name="Q" unicode="Q" horiz-adv-x="990" 
d="M323 7q67 6 123 2t121 -23q46 54 89.5 138.5t81 185t67 210.5t48 216t23.5 201t-7 166q-12 72 -45.5 106.5t-78.5 40.5q-57 8 -119 -26.5t-122 -98t-115 -148.5t-99 -178t-73 -187t-37.5 -175.5t7 -144t61.5 -91.5q6 -4 11 -10t3.5 -11.5t-11.5 -9.5t-32 -5
q-71 -3 -117 28.5t-69 88t-24 132t17.5 161.5t55 176.5t88.5 176t119 161t146 131.5t169 87t189 28q103 -4 164.5 -47t88.5 -128q25 -78 24 -179t-22 -213.5t-59 -229.5t-88 -226t-108.5 -203t-120.5 -160q32 -13 58 -26t57 -30q87 -49 160.5 -113t121 -135.5t62 -147
t-16.5 -147.5q-3 -5 -11 -15t-18.5 -20t-21 -16t-16.5 -2q-5 3 -6 8.5t0.5 12t3.5 12.5t4 10q15 44 -5 93.5t-60 99t-93 96t-104.5 85t-94.5 65.5t-63 38q-15 9 -30 16.5t-29 15.5q-24 -21 -45.5 -35t-40.5 -22q-57 -25 -115 -23.5t-105.5 19t-77.5 47.5t-29 62t39.5 62
t126.5 48zM349 -154q36 0 67 11t65 30q-47 17 -87 25t-79 7q-58 -2 -72.5 -13.5t-2.5 -25t43.5 -24t65.5 -10.5z" />
    <glyph glyph-name="R" unicode="R" horiz-adv-x="1478" 
d="M500 461q11 14 19.5 33.5t12.5 45.5q13 10 24 11.5t22 -25.5q0 -25 -9 -48.5t-24 -49.5q-28 -43 -63 -68.5t-76 -40.5q-53 -20 -107 -20q-63 0 -111 27.5t-80.5 73.5t-49 105.5t-16.5 122.5q0 35 6.5 74.5t20.5 77.5q31 91 86 171t123.5 148.5t145 123.5t150.5 95
q49 25 103 45t108.5 33.5t109 21t104.5 7.5q94 0 180 -22t158 -70q56 -38 96.5 -88.5t66.5 -109t38.5 -123t12.5 -130.5q0 -109 -35.5 -217.5t-100 -199t-154 -154.5t-196.5 -84h1q6 0 3.5 -0.5t-7.5 -1t-12 -1t-10 -0.5h-2l66 -128q36 -71 75 -143.5t81.5 -139t90.5 -124.5
t103.5 -100.5t119.5 -67t138 -24.5h27.5t17.5 0.5t10.5 1t7.5 0.5l1 1q1 1 3 2q5 2 9.5 1t8.5 -6q5 -6 5 -13t-3.5 -12.5t-8 -9.5t-8.5 -5q-98 -21 -181 -21q-108 0 -194.5 32t-155 86t-120.5 125.5t-91.5 151t-68.5 162t-50 159.5q-27 -95 -62.5 -179.5t-84 -149t-112 -102
t-147.5 -37.5q-39 0 -83 9t-93 29q-15 16 -13.5 28.5t29.5 20.5q37 -10 81 -10q61 0 107.5 29t81 76t58 107t39.5 122q22 87 40.5 185t32.5 196.5t24 193.5t16 177h-1q0 16 -2.5 31t-5.5 23l-6 17q0 11 11.5 17t28.5 7q45 2 72.5 -8.5t43.5 -30t21.5 -45t6.5 -52.5
q1 -110 -13.5 -232t-38.5 -269q81 -2 145.5 40.5t110.5 113t70.5 161t24.5 184.5q0 90 -24 175.5t-75.5 151.5t-132 106.5t-193.5 40.5q-56 0 -125.5 -13t-144.5 -39q-76 -33 -148 -82t-130.5 -112t-99.5 -139t-56 -162q-4 -20 -5.5 -40t-1.5 -40q0 -50 12 -96.5t36 -82.5
t60.5 -57.5t85.5 -21.5h31q31 5 58.5 21t49.5 45l-1 -1z" />
    <glyph glyph-name="S" unicode="S" horiz-adv-x="1177" 
d="M88 41q14 0 9 -22l-7 -14q-5 -8 -9 -18t-4 -24q0 -19 10 -49q15 -57 48.5 -98.5t79.5 -68.5t102 -40t116 -13q55 0 112.5 10.5t108.5 27.5q25 10 54.5 24.5t59 32t57.5 38.5t49 44t34 48t13 51q0 24 -7 43q-15 31 -51.5 52t-81.5 34q-42 10 -93.5 19.5t-94.5 17.5l-26 4
q-81 13 -161.5 31t-150 48.5t-122.5 79.5t-79 124q-8 29 -15 63.5t-7 65.5q0 55 14.5 124t42.5 147q33 92 87.5 175.5t122.5 150t147.5 111t163.5 58.5h-1q28 8 51.5 10.5t45.5 2.5q65 0 128 -22t119 -60.5t103 -91.5t81 -114.5t53 -129.5t19 -137q0 -13 -0.5 -28.5
t-2.5 -29.5q-11 -69 -47 -128t-86 -103t-108.5 -69t-114.5 -25q-60 0 -110 35.5t-75 106.5q-5 14 -3.5 27t11.5 21q13 9 23.5 -2.5t18.5 -28.5q20 -48 51.5 -70.5t64.5 -22.5q34 0 67 21t59 58.5t42.5 89t16.5 113.5h1q-3 57 -19.5 116t-44 113.5t-64.5 103t-80.5 84.5
t-92 57t-98.5 21q-83 1 -143.5 -38t-100 -103t-59.5 -146t-22 -166q-1 -13 -1.5 -25.5t-0.5 -25.5q0 -59 8.5 -108t27.5 -92q21 -53 57 -91t80.5 -66t94 -48t96.5 -37l22 -8q31 -11 61.5 -23t56.5 -26q60 -29 111 -78t74 -120q15 -50 15 -100q0 -66 -25 -128t-67 -115
t-98.5 -95.5t-119.5 -70.5q-97 -40 -209 -40q-62 0 -123 13t-116 37t-102 58t-80 76.5t-50.5 91.5t-13.5 104q2 19 9 49t19 58t29 48t40 20z" />
    <glyph glyph-name="T" unicode="T" horiz-adv-x="1260" 
d="M126 899q-6 11 -6 23.5t14 16.5q13 3 15.5 -2.5t8.5 -12.5q9 -9 25 -13t34.5 -5t35.5 0.5t28 2.5q128 10 263.5 48.5t276 90t283.5 109t285 106t281.5 80.5t272.5 33q52 0 100 -12t88.5 -37.5t72.5 -65t53 -93.5q10 -48 3 -98.5t-30 -95.5t-60.5 -81t-87.5 -54
q-19 -7 -39.5 -10t-40.5 -3q-50 0 -91.5 19t-72.5 49.5t-50.5 69t-25.5 77.5q10 21 21.5 20.5t18.5 -5.5q3 -20 17 -52t37 -61t53.5 -48t66.5 -14q40 8 69.5 35t48.5 62.5t27 74.5t7 72q-6 66 -39.5 98.5t-86 41.5t-120 -1.5t-140.5 -30.5t-147 -46t-140 -48
q-40 -14 -75 -26t-68.5 -24t-69 -24t-77.5 -24q-3 -66 -8 -120.5t-12 -103t-15.5 -93t-18.5 -89.5q-24 -103 -46 -213.5t-52 -225.5q-26 -98 -59.5 -192.5t-81 -178t-111 -152.5t-148.5 -115q-72 -39 -156.5 -48t-167.5 12q-81 22 -141.5 70.5t-98 114.5t-50 146.5
t1.5 166.5q11 70 40 134.5t73 115.5t101 84t125 41q73 5 125 -25.5t83.5 -82.5t43 -118.5t5.5 -132.5q-1 -9 -2 -22.5t-4.5 -26.5t-10 -22t-18.5 -9q-11 1 -15 6.5t-4.5 12.5t1 15.5t1.5 15.5q4 37 1.5 84.5t-14.5 91t-35 76t-60 39.5q-34 8 -78 -14t-87 -64.5t-79.5 -101
t-56.5 -123.5q-21 -71 -18.5 -142.5t24.5 -130.5t61 -98.5t91 -46.5q81 -5 147.5 26t121.5 86t98 127.5t76.5 150.5t58 155t42.5 141q40 150 66 293t52 285q10 48 14 81.5t5 52.5l-1 12q-77 -26 -154 -53t-153 -49.5t-151.5 -36t-149.5 -12.5q-24 1 -59.5 3.5t-71.5 9.5
t-66 19t-43 32z" />
    <glyph glyph-name="U" unicode="U" horiz-adv-x="1623" 
d="M1491 964q1 14 -1.5 25.5t-4.5 20.5q-2 5 -3 6.5t0 9.5q2 14 14.5 19.5t29.5 6.5q44 1 72.5 -9.5t45 -28t22 -40.5t4.5 -45q-5 -56 -22 -131.5t-40 -161.5t-50.5 -178t-54.5 -180l-56 -184q-8 -27 -17.5 -59.5t-18 -68t-15.5 -72.5t-10 -73q-5 -52 1 -100t28.5 -84.5
t64.5 -58.5t110 -22q10 0 22 1t23 2q25 -11 21 -23t-30 -27q-34 -6 -65 -8.5t-60 -2.5q-99 0 -159.5 29.5t-92.5 79t-40 113t-2 132.5q5 62 19.5 126.5t30.5 118.5q17 72 38.5 146.5t47.5 161.5q-95 -127 -169.5 -225t-133.5 -171t-104 -122t-81 -79t-64.5 -43t-54.5 -13
q-34 0 -73 21q-26 15 -34.5 43t-5.5 64q1 15 4.5 32.5t8 35.5t9.5 35t9 31q5 17 10 32.5t10 32.5q36 113 74 235t65 242q11 51 21 110.5t15 122.5q5 55 5 110.5t-8 107.5t-25.5 98.5t-46.5 84t-72 64t-102 37.5h1q-54 5 -111 -20t-105.5 -71t-85 -107.5t-49.5 -129.5v1
q-2 -9 -3.5 -18.5t-2.5 -17.5q-5 -57 6 -111t33.5 -96t53.5 -67.5t66 -26.5q39 -5 76.5 16.5t70 55.5t57.5 74.5t38 74.5q1 4 2 7.5t2 7.5q3 15 9 26.5t28 11.5q14 0 18.5 -8.5t2.5 -22.5q-1 -13 -5 -25t-7 -19q-2 -4 -2.5 -5.5t-0.5 -2.5q-20 -53 -55.5 -103t-82 -89
t-101 -63t-113.5 -24q-21 0 -41.5 3.5t-41.5 10.5q-51 19 -88 51t-60 73t-33 89.5t-5 99.5q2 29 7.5 55.5t16.5 54.5q28 79 79.5 148t121 120t153 79.5t175.5 28.5q44 0 88 -7.5t84 -22t74.5 -35.5t61.5 -46q43 -44 71.5 -96.5t43.5 -110.5t19 -120.5t-2 -127.5
q-5 -53 -14 -106.5t-22 -107.5q-35 -139 -69.5 -268t-78.5 -256q-9 -26 -13 -45.5t-5 -33.5q-3 -23 1 -29q8 -5 29.5 11.5t52.5 48t68.5 76.5t79 96.5t84 107.5t82.5 111t76 105.5t63 91.5q15 53 30.5 108.5t28.5 106.5t22 93t12 68z" />
    <glyph glyph-name="V" unicode="V" horiz-adv-x="1732" 
d="M956 1203q71 -56 113 -129.5t62 -158.5t22.5 -179t-5.5 -192q-2 -21 -3.5 -41.5t-4.5 -40.5q-8 -70 -19 -146.5t-23 -146.5l-8 -47q-7 -34 -13 -71t-11 -70q-11 -67 -26 -137t-32 -130q54 50 107 117t103 141t96 151t86 149t72 133.5t54 104.5q38 79 77 168t71 176.5
t54.5 169t28.5 146.5q3 34 1.5 64.5t-6.5 52.5q-3 7 -5.5 17.5t-4 22t-1 22.5t5.5 20q9 10 22 7t26.5 -13t25 -22.5t16.5 -20.5q38 -109 26 -257q-6 -70 -26 -150t-49.5 -165.5t-68.5 -174t-83.5 -175.5t-93 -170t-98.5 -157q-42 -59 -89.5 -119t-96 -114.5t-97 -102.5
t-91.5 -83q-31 -24 -64 -45.5t-67 -38.5t-69 -27t-69 -10q-14 0 -28 0.5t-22 2.5q-16 2 -28 9.5t-8 19.5q1 4 4.5 9.5t6.5 10.5v-1q10 10 20 25t15 32q10 29 23.5 80t28.5 118t30.5 146t29.5 163.5t25.5 171t18.5 169.5q7 82 9 151t0 117q-7 80 -28 158.5t-60.5 142.5
t-98.5 106.5t-142 51.5q-60 -7 -120 -45t-109.5 -95.5t-83 -130t-40.5 -148.5q-6 -72 9.5 -139t45 -118t69.5 -80t82 -25q44 1 84 30t73 72.5t56.5 93.5t34.5 92q0 4 -0.5 8.5t0.5 8.5q2 16 7.5 28.5t27.5 14.5q15 2 19.5 -9.5t2.5 -26.5q-1 -12 -3 -20t-4 -14v1
q-2 -5 -2 -6v-2l1 1l-2 -4l-1 -1q0 -2 -0.5 -3t-0.5 -3h1q-19 -66 -55.5 -130.5t-86.5 -115.5t-112.5 -82.5t-132.5 -31.5q-17 0 -32 1t-26 4q-65 15 -112 50.5t-77 84.5t-42.5 109t-6.5 125q1 11 5 32.5t11 44.5q22 89 72.5 171.5t122 149t159 112.5t183.5 61q24 3 45.5 5
t31.5 2q79 0 149.5 -22t122.5 -66z" />
    <glyph glyph-name="W" unicode="W" horiz-adv-x="1965" 
d="M1341 -226q-8 54 -13 119t-11 132l-2 20q-5 73 -12 135.5t-15 118.5q-34 -62 -72.5 -133t-77.5 -143.5t-76.5 -143.5t-70.5 -134q-3 -5 -7 -12.5t-6 -12.5q-2 -3 -4 -7.5t-3 -6.5q-23 -45 -52.5 -87.5t-77.5 -68.5q-37 -19 -81 -19q-11 0 -27.5 2t-29.5 4
q-17 2 -28.5 9.5t-8.5 19.5q4 9 12 19q8 9 17.5 22.5t14.5 28.5q7 17 15.5 52t15.5 81l8 39q29 131 56.5 266.5t43.5 274.5h-1l2 25q1 8 2 15t1 15q6 64 6.5 135.5t-8.5 143.5t-28.5 139t-54.5 120t-86.5 88.5t-123.5 44.5q-56 -5 -111 -39t-100.5 -86.5t-76.5 -119.5
t-37 -137q-5 -66 9.5 -126.5t41.5 -107t63.5 -72.5t75.5 -23q40 1 76.5 27.5t66.5 66.5t51.5 86t31.5 85h-1q0 1 1 3.5t1 7.5q2 16 7.5 28t26.5 14q16 2 20.5 -9t2.5 -26q-2 -14 -5.5 -28t-5.5 -19v1q-17 -61 -51 -120.5t-81 -106.5t-105 -76t-122 -29q-14 0 -28 1t-27 4
q-60 14 -104 46t-72 77t-39 100t-6 115q1 10 4.5 29.5t9.5 42.5q21 83 68 159.5t112.5 138t147 102.5t172.5 54q23 4 41 5.5t29 1.5q72 0 138 -21t114 -60q62 -51 100.5 -117.5t58 -143.5t23 -161.5t-4.5 -172.5q-3 -40 -9 -80q-7 -65 -18.5 -135t-22.5 -134l-8 -43
q-6 -32 -11.5 -64.5t-9.5 -64.5l-6 -30q-1 -7 -2.5 -15.5t-2.5 -15.5q-2 -11 -1.5 -14t-3.5 -18q35 69 73 141.5t75.5 143.5t73.5 137t68 122q-2 8 -7.5 15t-10.5 12h1q-4 4 -7 10q-2 11 5 16.5t20 13.5q14 7 25.5 10.5t23.5 5.5q13 4 26 -1q20 -4 33.5 -20.5t18.5 -36.5
q10 -39 19.5 -96t17.5 -122t14 -134t11 -133l3 -29q24 72 49 155t51 173l13 44l13 45v-1q29 102 57 199.5t56 182.5q19 58 42.5 124t53.5 132t66.5 126.5t80.5 107t96.5 74.5t114.5 28q42 0 87 -13.5t98 -44.5q3 -9 5 -16t1 -15q-1 -9 -7.5 -15t-23.5 -11q-50 22 -93 22
q-52 0 -95.5 -27.5t-79.5 -73t-65.5 -104t-52.5 -119.5t-41 -120t-32 -106l-39 -131l-26 -88q-26 -93 -56.5 -196.5t-62 -202.5t-61.5 -184.5t-55 -142.5q-15 -30 -41 -59.5t-58 -40.5q-10 -3 -20 -4t-17 -1q-27 0 -42 13.5t-22.5 36.5t-9.5 52t-3 61z" />
    <glyph glyph-name="X" unicode="X" horiz-adv-x="1480" 
d="M614 -382q-6 -5 -14 -9t-15.5 -4.5t-13.5 5.5t-7 23q20 32 52 81t70 107t80.5 122t85 127t81.5 122.5t71 107.5l-12 89l-2 15q-6 50 -12.5 100.5t-16.5 103.5q-12 60 -29 132t-42.5 145t-60.5 142t-82 123t-107.5 88t-137.5 38q-17 1 -35.5 -0.5t-36.5 -3.5
q-44 -12 -82.5 -41.5t-69.5 -71t-51.5 -92.5t-28.5 -105q-1 -8 -2 -17.5t-1 -18.5q-2 -26 0.5 -52.5t6.5 -54.5q15 -58 44 -110.5t66 -92t78 -63.5t80 -26q9 -1 18 -0.5t16 2.5q36 8 63.5 33t47 59t32 74t17.5 79q2 17 3 35.5t1 32.5l-4 15q0 1 -0.5 1.5t0.5 2.5
q-2 12 0.5 22t19.5 15h-1q13 4 19.5 -3.5t9.5 -20.5t3.5 -26.5t0.5 -21.5q0 -18 -1.5 -35.5t-3.5 -31.5q-9 -62 -34.5 -121.5t-66.5 -107t-97 -77.5t-125 -32q-73 4 -134 33.5t-106 78.5t-70.5 113t-27.5 136l-1 -1q-2 14 -2 29.5t1 31.5q1 11 1.5 22t2.5 22q9 73 39.5 142
t79.5 127t114 102.5t145 70.5q49 16 101 23.5t100 5.5q42 -2 82 -11t74 -24q87 -41 150 -108t108 -151t73.5 -179.5t46.5 -194.5q6 -31 10.5 -58.5t8.5 -57.5q53 78 106.5 156.5t103.5 151t95.5 137t81.5 114.5q18 6 32 0t9 -36q-34 -49 -80.5 -116t-100.5 -147t-114 -169
t-122 -181l8 -54q10 -77 20 -153t23 -154q12 -60 26 -121t31.5 -117.5t39.5 -106.5t50 -87t63.5 -59.5t80.5 -24.5q30 -2 64 7t75 29q27 -1 27 -23q0 -5 -4 -13t-9 -17q-78 -45 -142 -63t-119 -16q-84 4 -145 52t-105.5 123t-75.5 169.5t-54 190.5q-9 37 -16 77.5t-13 78.5
l-2 15q-28 -42 -64.5 -96t-76 -112.5t-79.5 -117.5t-75.5 -111.5t-64 -94.5t-44.5 -66z" />
    <glyph glyph-name="Y" unicode="Y" horiz-adv-x="1602" 
d="M1224 -118q43 158 77 308.5t67 302.5q-97 -147 -176 -255.5t-137 -177.5q-77 -85 -137.5 -128t-111.5 -43q-37 0 -75 16q-32 14 -43.5 46t-11.5 70q0 30 4.5 61t9.5 56l17 63q13 50 26.5 104t26 109t23 110t18.5 107q5 46 9.5 98t4.5 106q0 76 -12.5 152.5t-46 141
t-92.5 110t-153 60.5h1q-56 5 -111.5 -18t-101 -64.5t-77 -98t-38.5 -118.5v1q-5 -56 9.5 -110.5t41.5 -97.5t63.5 -69.5t75.5 -27.5q39 -4 75.5 15t66.5 50t51.5 67.5t32.5 68.5q0 3 1 6t1 6q2 13 8 23.5t27 10.5q15 0 19.5 -8t4.5 -19q0 -13 -2 -22.5t-4 -16.5
q-3 -5 -3 -10q-17 -48 -48.5 -93t-74 -80t-96 -56.5t-114.5 -21.5q-21 0 -42.5 2.5t-44.5 8.5q-55 18 -96.5 47.5t-69.5 67.5t-42.5 83t-14.5 93t15 95q21 72 67.5 134.5t112.5 108.5t148.5 72t175.5 26q94 1 181 -26t146 -74q50 -41 84.5 -89t55.5 -102t30.5 -111.5
t9.5 -117.5q0 -47 -4 -95t-11 -94q-8 -58 -22.5 -123.5t-30.5 -128.5q-12 -49 -23 -97t-19 -94l-3 -14q-4 -20 -8.5 -46.5t-4.5 -48.5q0 -15 3 -25.5t10 -14.5q13 -4 37.5 13t54.5 50q29 30 62.5 71.5t69 89.5t71.5 99.5t69.5 101.5t63 97t51.5 86l-1 -1q9 52 15 95.5
t6 73.5q0 13 -3.5 24t-6.5 20q-2 5 -3 6.5t-1 8.5q0 13 12 18t29 6q43 1 71.5 -8.5t46 -26.5t25 -38.5t7.5 -43.5q-4 -80 -18 -177.5t-35 -203t-47 -215.5t-53 -215.5t-54 -202t-50 -175.5q-20 -67 -43.5 -140t-51.5 -143t-60 -134t-68 -113.5t-76.5 -81.5t-84.5 -37
q-8 -1 -17 -1.5t-17 -0.5q-60 0 -98.5 25.5t-61.5 69.5q-18 35 -25 70t-7 70q0 66 22 129q19 55 50.5 109t71.5 106t85.5 100.5t91.5 92.5t90 83t82 72zM981 -826q27 55 55.5 130t55.5 156.5t52 163t45 148.5q-48 -44 -103.5 -98.5t-106.5 -114.5t-93.5 -123.5t-65.5 -125.5
q-8 -28 -14 -55.5t-6 -52.5q0 -8 1 -16.5t3 -17.5q8 -50 26.5 -73t41.5 -23q26 -1 55.5 26t53.5 76z" />
    <glyph glyph-name="Z" unicode="Z" horiz-adv-x="1457" 
d="M1635 1133q30 0 65.5 5.5t64.5 15t45.5 21t9.5 22.5q-6 8 -20 6.5t-33 -8t-39.5 -16.5t-39.5 -19.5t-33.5 -17t-19.5 -9.5zM471 -92q27 30 47 65.5t18 70.5q0 22 -8 38.5t-21 27.5t-30 16.5t-36 5.5q-21 0 -42.5 -7t-37.5 -21q-42 -35 -60 -73.5t-18 -74.5
q0 -31 11.5 -58.5t32.5 -48.5t49.5 -33t62.5 -12q23 0 48.5 5.5t51.5 19.5q30 15 56.5 33t53.5 40q-77 0 -130 -33q2 2 -5.5 -3.5t-11.5 -9.5q-8 -6 -15 -12t-14.5 -8.5t-15 -1t-14.5 10.5q-14 17 -6 28.5t21 22.5zM802 392q-6 -5 -10.5 -3.5t-7.5 6t-3.5 11t2.5 12.5h-1
q18 46 42 76.5t51.5 48.5t58 25t63.5 7q18 0 35.5 -1t34.5 -4q30 62 61.5 123.5t66 119.5t72 112t79.5 101q-88 14 -184 41t-190 55q-64 20 -127.5 38.5t-124.5 33t-118.5 23.5t-108.5 9q-37 0 -71.5 -5t-65.5 -18q-42 -15 -72 -42t-50 -60.5t-29.5 -72t-9.5 -76.5
q0 -24 3 -47t11 -44q13 -42 45.5 -65t75.5 -22q23 1 44 21.5t39 49.5t31 61.5t19 59.5q2 2 2 5t2 7q2 13 6 26t20 11q10 -2 14.5 -8.5t5.5 -15.5t-1 -18t-5 -15q-7 -30 -19 -61.5t-28 -61.5t-36.5 -57t-45.5 -47q-29 -23 -60 -34t-60 -11q-28 0 -54 9.5t-48 27t-38 41
t-23 51.5q-15 57 -15 109q0 80 34.5 147.5t88.5 117.5q45 39 101.5 69t119 50.5t126 31t121.5 10.5q21 0 41.5 -1.5t40.5 -3.5q97 -12 198 -38.5t200 -55.5q90 -27 180 -51t173 -36q62 42 125 67t126 25q34 0 67 -9q26 -8 35.5 -26.5t-1.5 -41.5q-16 -35 -49.5 -62t-76 -46
t-90.5 -31t-93 -17q-41 -50 -79.5 -111t-73 -125.5t-64 -127t-53.5 -114.5l-6 -11q9 -1 19.5 -1.5t18.5 -0.5q26 0 52.5 7t48.5 18q8 6 12.5 4t5.5 -8t0 -14t-4 -14q-21 -50 -57.5 -69t-83.5 -19q-13 0 -26 0.5t-27 2.5q-55 -119 -123 -239.5t-152 -224.5
q66 -16 133.5 -44.5t132.5 -61.5q89 -48 170 -108t143 -126.5t98.5 -136t36.5 -136.5q0 -23 -4 -44.5t-11 -39.5q-4 -7 -15.5 -20.5t-25.5 -25.5t-28 -19.5t-23 -2.5q-8 4 -9.5 11t-0.5 15t3.5 15t4.5 12q5 17 5 31q0 47 -33 98t-84.5 101.5t-114.5 98t-122 86.5
t-107.5 66.5t-71.5 39.5q-44 23 -90 42.5t-94 36.5q-66 -60 -141 -98t-156 -48q-10 -2 -22 -2h-23q-53 0 -110.5 13.5t-106.5 40t-84.5 65.5t-45.5 91q-4 16 -4 35q0 28 8.5 56t23 55t34 51t40.5 44q34 29 75 43t79 14q39 0 74.5 -13t61 -37.5t38 -60t6.5 -80.5
q-2 -17 -6.5 -32t-14.5 -31q74 37 176 35q82 100 147.5 221.5t127.5 249.5q-11 1 -22.5 1.5t-20.5 0.5q-53 0 -98.5 -18t-80.5 -67z" />
    <glyph glyph-name="bracketleft" unicode="[" horiz-adv-x="362" 
d="M592 1188q17 -3 36 -5t39 3q10 0 16 4t9 5q5 2 6 -2.5t-2 -12.5q-7 -25 -11.5 -40t-16.5 -25q-11 -12 -27.5 -17t-34 -6.5t-33.5 -1t-25 1.5q-92 10 -156 17t-96 9q-2 -28 -7 -58t-10.5 -58t-10 -50.5t-4.5 -35.5q-32 -151 -54 -267t-37.5 -206t-26 -158.5t-19 -126
t-17 -108.5t-19.5 -104q72 -6 121 -10t80 -6t47.5 -3.5t24.5 -1.5q17 -3 36 -5t38 3q10 0 16 4t9 5q5 2 7 -2.5t-3 -12.5q-6 -25 -11 -40t-16 -25q-11 -12 -27.5 -17t-34 -7t-33.5 -1t-25 1q-53 6 -90 10.5t-63.5 7t-44 4t-32.5 2.5q-2 -2 -7.5 -3t-10.5 2l-13 4l-23 2
q-27 4 -39.5 44t-14.5 106t5.5 153t21.5 183t32 197t37.5 195.5t39 177t35.5 143.5q16 64 45 98.5t66.5 48.5t81 12.5t87 -8t84.5 -14t75 -5.5z" />
    <glyph glyph-name="backslash" unicode="\" horiz-adv-x="601" 
d="M444 57q-15 40 -25 65.5t-16 41.5t-9.5 26t-6.5 18q-9 20 -29.5 67.5t-47 108.5t-55.5 129t-55.5 130t-47.5 110.5t-31 70.5q-7 18 -18.5 47.5t-21.5 62.5t-14.5 67t1.5 61q7 51 59 92q8 7 14.5 6.5t8.5 -10.5q1 -5 0.5 -20.5t5.5 -35.5q10 -41 25.5 -78.5t32.5 -71.5
l28 -66.5t46 -109t55 -130t56 -131t47.5 -111.5t30.5 -71q7 -18 18.5 -46.5t21.5 -61.5t15 -67t-1 -62q-5 -25 -19 -47.5t-41 -43.5q-8 -7 -14 -6.5t-7 10.5q-2 5 -1.5 20.5t-4.5 35.5z" />
    <glyph glyph-name="bracketright" unicode="]" horiz-adv-x="311" 
d="M-245 -146q-17 3 -36 5t-39 -3q-10 0 -16 -4t-9 -5q-5 -2 -6 2.5t2 12.5q7 25 11.5 40t16.5 25q10 12 27 17t34.5 6.5t33.5 1t25 -1.5q92 -10 155.5 -17t95.5 -9q1 28 6.5 58t11 58t10 50.5t4.5 35.5q32 151 54 267t37.5 206t26 158.5t19 126t17 108t19.5 104.5
q-72 6 -121 10t-80 6t-47.5 3.5t-23.5 1.5q-17 3 -36 5t-38 -3q-10 0 -16 -4t-9 -5q-5 -2 -7 2.5t3 12.5q6 25 11 40t16 25q11 12 27.5 17t33.5 7t33 1t25 -1q53 -6 90 -10.5t63.5 -7t44 -4t32.5 -2.5q2 2 7.5 3t10.5 -2l13 -4l23 -2q27 -4 40 -44t14.5 -106t-6 -153
t-21 -183t-32 -197t-38 -195.5t-39 -177t-35.5 -143.5q-16 -64 -45 -98.5t-66.5 -48.5t-80.5 -12.5t-86.5 8t-84.5 14t-75 5.5z" />
    <glyph glyph-name="asciicircum" unicode="^" horiz-adv-x="570" 
d="M471 884q-13 6 -28 23t-30.5 38.5t-31 46.5t-29.5 48l-17 29q-14 -13 -31.5 -32.5t-38.5 -41.5q-25 -27 -51.5 -55t-51.5 -51.5t-47 -39.5t-38 -18q-6 0 -13.5 2t-14.5 6t-12 10t-5 13q0 3 3.5 7.5t9.5 10t13.5 12t14.5 12.5q8 7 13 12.5t7 7.5l10 10v-1q15 16 42 44.5
t57 58.5t58 56t46 37q2 4 6.5 5t11.5 2q10 2 24.5 -3.5t19.5 -16.5q14 -17 32.5 -43t36 -53t31 -49.5t18.5 -30.5q1 -2 5 -8t9 -13q8 -11 14.5 -20t4.5 -14q-3 -5 -9 -6.5t-13.5 -1.5t-15 2t-11.5 5h1z" />
    <glyph glyph-name="underscore" unicode="_" horiz-adv-x="762" 
d="M701 118q19 2 31.5 7.5t17.5 5.5q9 2 12.5 -3t3.5 -13q-2 -27 -11.5 -44t-27.5 -29q-20 -13 -50 -19.5t-62.5 -9t-63 -2t-50.5 0.5q-69 2 -134 3.5t-128 3.5q-38 1 -78 2t-79 -4q-19 -2 -32.5 -7t-17.5 -6q-8 -1 -11.5 4t-3.5 12q1 27 11 45t27 29q19 13 49.5 19.5
t63.5 9t63.5 2t50.5 -0.5q69 -2 133 -4t129 -4h19h27t43.5 0.5t67.5 1.5z" />
    <glyph glyph-name="grave" unicode="`" horiz-adv-x="297" 
d="M123 1102q6 -23 15 -58.5t22.5 -71.5t34.5 -67t51 -46q5 -3 10.5 -3h9t4 -0.5t-2.5 -4.5q-20 -22 -39 -30t-39 -6q-31 3 -59.5 26t-51.5 54.5t-38.5 65.5t-20.5 58q-5 26 7 46t30 31.5t37 13.5t30 -8z" />
    <glyph glyph-name="a" unicode="a" horiz-adv-x="731" 
d="M532 471q-2 -3 -11.5 -6t-13.5 -3q-12 0 -21 12q4 11 5.5 20.5t3.5 20.5q1 25 -3.5 52.5t-16.5 49.5t-31 36.5t-46 14.5q-35 0 -71 -27.5t-69 -71t-62 -97.5t-51.5 -107.5t-36.5 -100.5t-16 -76q-1 -14 -0.5 -30t5.5 -29.5t15 -22t28 -8.5q31 0 65.5 31.5t67 76.5
t60.5 94.5t47 86.5q3 11 9.5 26t4.5 33q-2 14 11 18.5t28 5.5q59 -5 82.5 -27.5t26.5 -53.5q3 -32 -6.5 -69t-14.5 -69q-1 -7 -3.5 -23t-4.5 -35t-3 -38.5t1.5 -32.5t9 -17t19.5 7q24 24 51 62.5t53.5 82t51 88t44.5 81.5q11 24 22.5 45.5t19.5 35.5q7 3 15 3q9 0 14.5 -5.5
t9.5 -13.5l-10 -22l-32.5 -65t-40 -78t-46 -83t-49 -80t-50 -69.5t-48.5 -50.5q-20 -17 -48 -28t-55 -11q-36 0 -56 25.5t-29.5 61t-10.5 73.5t3 63v2.5t1 7.5q-27 -45 -59.5 -87.5t-69 -75.5t-76.5 -53.5t-82 -20.5q-39 0 -66 14t-43 37t-23 54t-7 65v14t1 15
q6 50 25.5 111t50 123.5t70.5 121.5t87.5 104.5t100.5 73t110 27.5q44 0 78 -21t57 -54.5t33.5 -75t7.5 -83.5q-3 -29 -12 -54z" />
    <glyph glyph-name="b" unicode="b" horiz-adv-x="698" 
d="M750 504q12 13 22.5 9.5t20.5 -17.5q-21 -50 -64.5 -117t-103 -134.5t-132.5 -128t-152 -97.5q-41 -19 -90.5 -35t-99.5 -16q-25 0 -49 6q-57 16 -91.5 63.5t-30.5 125.5q1 44 12 109t26.5 140.5t35 156.5t37.5 157q12 52 23.5 100.5t20.5 89t15 71.5t8 50q1 17 -0.5 29
t-3.5 21q-1 5 -1.5 9.5t-0.5 8.5q1 14 11.5 18.5t24.5 4.5q39 0 62.5 -12t36 -31.5t15.5 -44.5t1 -51q-4 -41 -13.5 -90.5t-22 -104t-27 -112t-29.5 -113.5l-3 -10.5l-2 -7t-2 -8t-3 -11.5q26 39 56 74t63 61.5t68.5 42t72.5 15.5q39 0 66 -13.5t43.5 -36t23.5 -53t7 -63.5
q0 -8 -0.5 -16.5t-1.5 -16.5q-4 -40 -18.5 -90.5t-37.5 -104t-53 -106.5t-65 -98q46 34 92.5 76.5t89 90.5t79 100.5t63.5 108.5zM384 627q-29 0 -59.5 -25.5t-60 -63.5t-56.5 -82t-47 -82l1 1l-6 -24q-6 -21 -13 -50t-13 -59.5t-10.5 -61t-4.5 -55.5q0 -28 6 -45.5
t23 -17.5q12 0 29 9q32 16 62.5 50t58.5 77t52 92t42 95t29.5 86t13.5 66q1 14 0.5 30t-5 29.5t-14.5 22t-28 8.5z" />
    <glyph glyph-name="c" unicode="c" 
d="M539 274q-27 -48 -60 -100.5t-75.5 -95.5t-97 -71t-124.5 -28q-52 0 -88.5 22t-59 58.5t-32.5 84t-10 99.5v25.5t2 26.5v-1q5 56 20 113.5t38.5 112t54.5 102t68.5 83.5t80 56.5t88.5 20.5q44 0 78.5 -20.5t58 -53.5t34.5 -74.5t8 -83.5q-1 -9 -2.5 -20t-5 -21t-11 -16.5
t-20.5 -6.5q-5 1 -9.5 3t-10.5 8q4 14 6.5 26.5t3.5 23.5q1 21 -1 41.5t-8 36.5t-15.5 26t-22.5 10q-20 0 -44.5 -20t-49.5 -54t-50 -79t-45.5 -94.5t-36 -101.5t-22.5 -99q-1 -8 -1.5 -17.5t-0.5 -17.5q0 -24 4 -45t13 -37.5t24 -26t38 -9.5q39 0 74 22.5t65 56t55 72.5
t45 72v-1q24 42 44.5 82.5t37.5 73.5q8 15 18 34t18 33q12 5 15 5q9 0 14.5 -5.5t9.5 -13.5l-10 -22q-18 -37 -44.5 -88.5t-58.5 -106.5z" />
    <glyph glyph-name="d" unicode="d" horiz-adv-x="809" 
d="M517 -7q-88 0 -124.5 44.5t-36.5 125.5q0 9 0.5 19.5t1.5 21.5v11t0.5 8t1 9.5t2.5 15.5q-28 -46 -61 -91t-70.5 -81t-78.5 -58t-84 -22q-39 0 -66 13.5t-43.5 36.5t-23.5 53.5t-7 63.5v16t1 16q6 50 25.5 111t50 123.5t70.5 121.5t87.5 104.5t100.5 73t110 27.5
q27 0 50 -8t43 -23l10 38q11 47 21 90t18 79t13 63t6 42q1 17 -0.5 29t-3.5 21q-1 5 -1.5 9.5t-0.5 8.5q1 14 12.5 18.5t25.5 4.5q39 0 62.5 -12t35.5 -31.5t15 -44.5t1 -51q-2 -23 -9 -62t-18 -88.5t-24.5 -107t-27.5 -118.5q-4 -20 -11 -48.5t-15 -60.5q-11 -42 -22.5 -90
t-21.5 -95.5t-16 -91t-6 -76.5v-17t2 -15q6 -41 36 -41q12 0 26.5 6t28.5 15.5t27 21t23 22.5q26 29 50 65.5t45.5 74.5t40 75.5t33.5 67.5q14 28 23.5 48t15.5 28q4 3 8.5 4t7.5 1q8 0 13.5 -5.5t9.5 -13.5q-10 -18 -19.5 -40t-20.5 -43q-18 -36 -37 -74.5t-39.5 -76.5
t-42 -74t-44.5 -66q-17 -21 -36 -42t-41 -38t-47 -28t-55 -13zM391 396q11 50 23 103.5t25 108.5q2 11 5.5 20.5t5.5 20.5q-20 15 -48 15q-35 0 -71 -27.5t-69 -71t-62 -97.5t-51.5 -107.5t-36.5 -100.5t-16 -76q-2 -14 -1 -30t5.5 -29.5t14.5 -22t28 -8.5q22 0 46 16t48 42
t46.5 59t43 66.5t37 65t28.5 54.5z" />
    <glyph glyph-name="e" unicode="e" 
d="M534 274q-27 -48 -60 -100.5t-75.5 -95.5t-97 -71t-124.5 -28q-52 0 -88.5 22t-59 58.5t-32.5 84t-10 99.5v25.5t2 26.5v-1q5 56 20 113.5t38.5 112t54.5 102t68.5 83.5t80 56.5t88.5 20.5q44 0 78.5 -19t58 -49.5t35 -69t9.5 -78.5q-6 -56 -40 -103t-82 -83t-103.5 -60
t-106.5 -35q-4 -17 -6.5 -35t-4.5 -38q-1 -8 -1 -16.5v-16.5q0 -22 3.5 -42.5t12.5 -37t25 -27t40 -12.5q38 1 72 24t63.5 56.5t54 72t43.5 70.5v-1q24 42 44.5 82.5t37.5 73.5q8 15 18 34t18 33q12 5 15 5q9 0 14.5 -5.5t9.5 -13.5l-10 -22q-18 -37 -44.5 -88.5
t-58.5 -106.5zM457 634q-15 29 -36 29q-19 0 -41.5 -18t-45 -47t-44.5 -65t-39.5 -72t-31 -68.5t-18.5 -53.5q34 4 79 22t86.5 47t71.5 67t34 83q4 37 -15 76z" />
    <glyph glyph-name="f" unicode="f" horiz-adv-x="477" 
d="M204 494q-24 -90 -48 -179t-41 -162q10 -16 20.5 -33t20 -39.5t19 -54t17.5 -76.5q37 24 74 73t71.5 109t65.5 124.5t57 119.5q20 41 34.5 73t28.5 53q15 7 22.5 4.5t18.5 -16.5q-12 -23 -26 -53.5t-31 -65.5q-29 -63 -64.5 -136.5t-75.5 -141t-84 -121t-89 -77.5
q1 -17 1.5 -36t0.5 -40q0 -51 -2 -107.5t-5 -110.5q-3 -43 -7 -80.5t-8 -63.5q-5 -29 -10.5 -64t-15.5 -71t-24.5 -70t-36.5 -60t-52.5 -42t-71.5 -16q-44 0 -74 20.5t-48.5 58.5t-27 91t-8.5 118q0 76 11 168t29.5 193t42.5 207t50.5 210.5t53 202.5t50.5 183
q13 49 26.5 98t25 92t19 77t10.5 53q2 10 2 18v16v18.5t-1 16.5t-1.5 14t0.5 11q3 16 16 21.5t28 4.5q37 -2 61 -14t38 -31.5t20 -45t6 -53.5q0 -13 -1 -27.5t-3 -27.5q-3 -19 -11 -52.5t-19.5 -78t-25 -96t-28.5 -106.5zM145 -177q0 19 -0.5 34.5t-1.5 26.5h-1q-16 2 -38 6
t-44 21q-2 -10 -3.5 -19t-3.5 -18q-17 -88 -32 -179t-26 -194q-6 -65 -6 -125q0 -58 10.5 -99t36.5 -48q14 0 27 18.5t24 50t20 74t15 89.5q5 35 9 73t6 75q5 60 6.5 115.5t1.5 98.5zM78 1q13 -19 32.5 -36.5t30.5 -21.5q-7 53 -19 89.5t-28 52.5z" />
    <glyph glyph-name="g" unicode="g" horiz-adv-x="684" 
d="M719 479q0 1 0.5 1t0.5 1q11 7 21.5 7.5t23.5 -14.5q-26 -53 -59 -113.5t-69 -116.5t-73.5 -101.5t-71.5 -67.5q-22 -110 -49.5 -219.5t-60.5 -209t-73 -185t-87.5 -146t-103 -92t-119.5 -23.5q-57 7 -90.5 55t-33.5 120q0 34 9 69q25 91 68 169.5t98 148t119 132
t132 121.5q8 39 16 77t16 70l16 68q-28 -43 -60 -83.5t-67.5 -72t-74.5 -51t-79 -19.5q-39 0 -65.5 13.5t-43 36.5t-23.5 53t-7 64q0 7 0.5 15.5t1.5 16.5q6 50 25.5 111t50 123.5t70.5 121.5t87 104.5t100 73t110 27.5q44 0 78.5 -21t57.5 -54.5t33.5 -75t6.5 -83.5
q-2 -14 -4.5 -27t-7.5 -27q-2 -3 -12 -6.5t-13 -3.5q-13 0 -22 11q4 11 5.5 21t3.5 21q1 25 -3.5 52.5t-16 49.5t-30.5 36.5t-46 14.5q-35 0 -71 -27.5t-69 -71t-62 -97.5t-51.5 -107.5t-36.5 -100.5t-16 -76q-2 -14 -1 -30t5.5 -29.5t14.5 -22t28 -8.5q28 0 57 23t57.5 59
t54.5 79.5t47 83.5q5 11 10 25t7 28q1 5 1 9.5v9.5l-4 23q-2 6 -2 10.5v7.5q2 14 13 18.5t26 5.5q33 0 56.5 -7.5t38.5 -21t23 -31t11 -38.5q-5 -54 -11 -108.5t-14 -114.5q27 25 54.5 62.5t54 80.5t50.5 88t44 85zM-70 -623q0 -26 11.5 -43t38.5 -17q24 3 45.5 19.5
t41.5 42.5q30 38 56 91.5t49 113.5t42.5 121.5t36.5 115.5l21 69l6 27l4 12q-70 -55 -134.5 -125t-116.5 -149q-11 -18 -28 -51.5t-33.5 -73.5t-28 -80.5t-11.5 -72.5z" />
    <glyph glyph-name="h" unicode="h" horiz-adv-x="695" 
d="M189 473q13 17 24 36t25 39q27 42 56 84.5t61 77t67.5 56t75.5 21.5q27 0 45.5 -9.5t28.5 -26.5t13.5 -39.5t0.5 -49.5q-5 -55 -26.5 -124t-44.5 -138q-23 -66 -42 -127.5t-24 -106.5q0 -10 0.5 -23.5t2.5 -25.5t7 -20t13 -8q16 0 40.5 27.5t53 69.5t57 91t52.5 93t40 75
t19 36l3 7h-1q5 10 9.5 16t16.5 6q8 0 14 -5.5t10 -13.5l-30 -61q-20 -39 -44 -86t-51 -94t-56.5 -90.5t-59.5 -77t-61.5 -54t-61.5 -20.5q-35 0 -58 10t-37.5 28t-20.5 43t-6 55v15t1 15q5 39 16 83t25.5 90t30.5 90.5t31 83.5q20 54 35.5 96t17.5 62q1 18 -9 18
q-18 0 -41.5 -19.5t-50 -51t-53.5 -70.5t-52 -78.5t-45.5 -74.5t-34.5 -58v1l-16 -28h1q-17 -40 -28.5 -93t-16.5 -100q-2 -35 1.5 -60t6.5 -39q3 -9 3 -15q0 -14 -23 -14q-36 0 -59.5 14.5t-37 38t-19 53.5t-5.5 61q0 10 0.5 20t1.5 21q3 35 13 90t24.5 121t31.5 139
t34 144q13 57 26 110.5t22.5 98.5t16 78.5t8.5 51.5q1 17 -0.5 28.5t-3.5 21.5q-1 5 -1.5 9.5t-0.5 8.5q1 14 12 18.5t25 4.5q38 0 61.5 -12.5t36 -32t16 -44.5t1.5 -50q-2 -15 -9.5 -53t-18.5 -88.5t-24.5 -108t-25.5 -111.5z" />
    <glyph glyph-name="i" unicode="i" horiz-adv-x="373" 
d="M90 661q3 16 3 28q0 11 2 19q4 13 16 15.5t26 -1.5q42 -15 61 -33t19 -47q0 -14 -3.5 -31t-9.5 -37q-10 -32 -22.5 -77.5t-24.5 -96t-21.5 -100.5t-14.5 -92q-1 -10 -1.5 -21.5t-0.5 -19.5q0 -35 7 -56.5t24 -22.5q14 0 32.5 17t39.5 45t43 63.5t44 74t42 76t36 68.5
q13 24 22.5 42.5t17.5 30.5q10 5 15 5q13 0 25 -20l-11 -21q-20 -40 -45 -90.5t-54.5 -102t-61.5 -100.5t-64 -87t-64 -61t-61 -23q-35 0 -58.5 14t-38 38.5t-20.5 57t-6 70.5q0 12 0.5 24.5t1.5 24.5q8 98 34 192.5t57 189.5l14 46v-1zM271 918q11 -20 15.5 -36.5
t3.5 -30.5q-3 -34 -29 -52.5t-54 -18.5q-24 0 -42 19.5t-16 61.5q1 16 7 32.5t15 29.5t21.5 21t26.5 8q13 0 26.5 -8t25.5 -26z" />
    <glyph glyph-name="j" unicode="j" horiz-adv-x="311" 
d="M363 503q3 0 6 1q7 2 15.5 2t20.5 -11q-26 -53 -59.5 -114t-69.5 -117t-73 -101t-71 -67q-23 -109 -50.5 -219t-60.5 -209.5t-73 -185t-87 -146t-102.5 -92t-120.5 -23.5q-28 3 -50.5 17.5t-38.5 37.5t-25 53.5t-9 65.5q0 34 9 70q24 92 66.5 170.5t98 147.5t120 131
t132.5 122q9 43 20.5 101t24 121t24.5 126.5t21.5 117t15.5 92.5t7 53q2 17 -0.5 30t-4.5 24q-2 6 -2 10.5v7.5q2 14 13 18.5t26 5.5q33 0 56.5 -7.5t38.5 -21t23 -31t11 -38.5q-4 -51 -9.5 -102.5t-14 -108t-19 -120t-25.5 -138.5q28 23 57 60.5t56.5 82t52.5 92t46 89.5z
M-430 -602q0 -26 11.5 -43.5t39.5 -17.5q23 3 45 20t42 43q29 39 56 95t50.5 117.5t43.5 124.5t36 116q5 16 9 30.5t9 28.5v-1q4 13 6 19t5 20q-70 -56 -135 -126t-116 -149q-11 -18 -28.5 -51.5t-34 -73t-28 -80.5t-11.5 -72zM185 943q8 -20 10 -37t0 -31
q-4 -17 -13.5 -29.5t-22 -20t-27 -10.5t-27.5 -1q-25 3 -41 23t-7 65q4 16 11.5 31t18 27t23.5 18.5t27 5.5q13 -2 25 -11.5t22 -29.5h1z" />
    <glyph glyph-name="k" unicode="k" horiz-adv-x="586" 
d="M302 989q-7 -69 -26 -157t-44 -184q39 38 85 59q26 12 50.5 17.5t45.5 5.5q50 0 78.5 -32.5t25.5 -89.5q-6 -53 -33.5 -107.5t-68.5 -100t-92 -78t-104 -41.5q3 -9 11.5 -29t20.5 -44.5t26.5 -50.5t31 -48t33.5 -36.5t33 -15.5q13 -2 29.5 16t35.5 50t41 76t47 95
q21 45 47 98.5t56 110.5q11 4 21.5 2.5t16.5 -17.5q-29 -58 -53.5 -111.5t-45.5 -98.5q-27 -57 -51.5 -106.5t-47.5 -87t-45.5 -60.5t-44.5 -29q-41 -8 -80.5 11.5t-74 53t-60.5 74t-40 74.5q-5 -28 -8 -49t-5 -46q-1 -9 -1.5 -16.5t-0.5 -15.5q0 -24 3.5 -41.5t6.5 -27.5v1
q3 -9 3 -15q0 -14 -23 -14q-36 0 -59.5 15.5t-37.5 41t-19.5 57t-5.5 64.5q0 11 0.5 21t1.5 21q3 35 13 90t24 121t31.5 139t34.5 144q13 57 25.5 110.5t22.5 98.5t16 78.5t8 51.5q1 17 -0.5 29t-3.5 21q-1 5 -1.5 9.5t-0.5 9.5q2 14 12.5 18t25.5 4q39 0 62.5 -12
t35.5 -31.5t15 -44.5t1 -51zM294 636q-23 -14 -47 -38.5t-43 -51.5q-14 -53 -27.5 -103.5t-24.5 -101.5q39 7 77.5 41.5t69 78.5t49.5 89.5t19 74.5q0 31 -22 31q-16 0 -51 -20z" />
    <glyph glyph-name="l" unicode="l" horiz-adv-x="455" 
d="M387 1105q25 0 41.5 -15.5t26.5 -38t13 -49t2 -47.5q-6 -67 -34.5 -134t-70.5 -130.5t-93 -121t-103 -104.5l-5.5 -20t-12 -52t-13.5 -72t-11 -79q-2 -13 -2 -24.5v-22.5q0 -48 13 -81t46 -33q41 0 81 37t76.5 91t67.5 114t54 107q12 27 22 47t16 28q4 3 8.5 4t7.5 1
q9 0 14.5 -5.5t9.5 -13.5l-34 -69h1q-21 -45 -45 -94t-50.5 -96t-56 -90t-61 -75.5t-66 -51.5t-71.5 -19q-49 0 -80.5 21t-50 54.5t-26 75.5t-7.5 85v27.5t2 26.5v-1q3 36 12 90t23 118.5t34 134.5t45 138t55 129.5t64.5 108t74 74t83.5 27.5zM401 1026q-16 0 -41 -36.5
t-54 -100t-59 -150.5t-56 -189q21 18 57.5 60t73.5 96.5t66 116t34 118.5q1 13 1 27.5t-2.5 27.5t-7.5 21.5t-12 8.5z" />
    <glyph glyph-name="m" unicode="m" horiz-adv-x="1027" 
d="M784 671q2 13 -5 16q-1 0 -2 0.5t-3 0.5q-23 0 -53 -28.5t-62.5 -72t-65 -95.5t-60.5 -99q-22 -35 -39.5 -63t-31.5 -47l1 1q-16 -46 -26.5 -88.5t-14.5 -78.5q-2 -26 2 -52.5t16 -50.5q1 -2 1.5 -4.5t-0.5 -7.5q-1 -13 -23 -13q-36 0 -60.5 11.5t-39.5 32t-21.5 47.5
t-6.5 58v15.5t1 15.5q4 40 15.5 85t25.5 91t30.5 90.5t31.5 83.5q21 54 36 96.5t17 63.5q1 18 -9 18q-18 0 -41.5 -19.5t-49.5 -51t-53 -70.5t-52 -78.5t-45.5 -74.5t-34.5 -58v1l-17 -28h1q-15 -40 -27 -93t-17 -100q-2 -35 1.5 -60t7.5 -39q3 -9 3 -16q-3 -13 -24 -13
q-36 0 -59.5 14.5t-37 38t-19 53.5t-5.5 61q0 10 0.5 20t1.5 21q6 68 21.5 138.5t32.5 135.5q13 54 24.5 103t14.5 85q1 16 -0.5 28t-3.5 22q-1 5 -1.5 9t-0.5 9q2 13 12.5 18t24.5 5q38 0 61.5 -12.5t36 -32.5t16 -44.5t1.5 -49.5q-2 -27 -8 -54.5t-13 -51.5q-4 -17 -6 -23
t-4 -19q13 17 25.5 37t26.5 41q27 42 56 84.5t60.5 76.5t66.5 55.5t75 21.5q28 0 46.5 -10.5t29 -28t14 -40t2.5 -46.5q-3 -35 -14 -76t-26 -83q5 8 9.5 14.5t9.5 14.5q28 43 57.5 87t62 79t68.5 57.5t77 22.5q27 0 45 -9.5t28 -26.5t13.5 -39.5t1.5 -49.5
q-5 -57 -25.5 -126.5t-46.5 -138.5q-23 -65 -42 -126t-23 -106q-1 -10 -1 -23t2.5 -25t7.5 -20t14 -8q15 0 37.5 24.5t49 62.5t53.5 84t51 89t42 77.5t26 49.5q0 3 3 6l3 6h-1q5 10 9.5 16t15.5 6q9 0 15 -5.5t10 -13.5l-30 -60q-20 -40 -44 -86.5t-51 -93.5t-56.5 -91
t-59.5 -77.5t-61.5 -54t-61.5 -20.5q-68 0 -95.5 37.5t-27.5 96.5q0 7 0.5 15.5t1.5 16.5q4 39 15.5 83.5t25.5 90t30.5 90t31.5 83.5q20 54 35.5 96t17.5 63z" />
    <glyph glyph-name="n" unicode="n" horiz-adv-x="689" 
d="M193 513q-3 -11 -5.5 -21t-4.5 -19q12 17 23.5 36t25.5 39q27 42 56 84.5t61 77t67.5 56t75.5 21.5q28 0 46 -9.5t28.5 -26t13.5 -39.5t1 -50q-5 -56 -26 -125.5t-47 -139.5q-22 -64 -41 -126t-24 -105q0 -10 0.5 -23.5t2.5 -25.5t7 -20t13 -8q14 0 37 24.5t49.5 62.5
t53.5 84t51 89t42 77t26 49q0 3 3 6l4 8q5 9 9 15t15 6q10 0 15.5 -5.5t9.5 -13.5q-7 -12 -15.5 -29t-16.5 -34q-20 -39 -43.5 -85.5t-50 -93t-55.5 -90t-59.5 -77.5t-61.5 -54t-62 -20q-35 0 -58.5 10.5t-37.5 28.5t-20.5 43t-6.5 55v14t1 15q4 39 15.5 83t25.5 90
t30.5 90.5t31.5 83.5q20 54 35.5 96t17.5 62q1 18 -9 18q-18 0 -41.5 -19.5t-50 -51t-53.5 -70.5t-52 -78.5t-45.5 -74.5t-34.5 -58v1l-16 -28h1q-17 -41 -29 -93.5t-16 -99.5q-1 -8 -1 -15.5v-15.5q0 -24 3 -41t6 -28q3 -9 3 -14q0 -14 -22 -14q-36 0 -60 14.5t-37.5 38
t-19 53.5t-5.5 61q0 10 0.5 20t1.5 21q3 33 8.5 69t13 72.5t16.5 71.5t17 67q14 54 24.5 101t13.5 81q1 16 -0.5 28t-3.5 22q-1 5 -1.5 9t-0.5 8q1 14 12.5 19t25.5 5q38 0 61 -12.5t35.5 -32.5t16 -44.5t1.5 -49.5q-2 -27 -7.5 -54.5t-12.5 -51.5z" />
    <glyph glyph-name="o" unicode="o" horiz-adv-x="684" 
d="M201 7q-57 0 -95 30.5t-61.5 77.5t-33 104t-9.5 111v29.5t2 26.5q4 48 11 89t18 70q20 24 46.5 35t54.5 11q16 0 32.5 -4t30.5 -11q5 53 17.5 105.5t37 94.5t64 68t99.5 26q49 0 83.5 -20.5t57 -55.5t33 -83t10.5 -103q0 -30 -3 -57v1q-8 -78 -33 -160t-63 -154
q39 8 69 29.5t55 52t45.5 67t39.5 73.5l22 40q5 2 9.5 4t7.5 2q5 0 10 -4t8 -16q-17 -40 -44 -91.5t-64 -97.5t-84.5 -79t-105.5 -36q-26 -39 -55.5 -71t-63.5 -55t-71 -36t-77 -13zM308 520q0 -42 5 -88t19.5 -85.5t40 -68t67.5 -36.5q19 31 35.5 68.5t29.5 77t21.5 81
t11.5 80.5q2 14 2 26.5v25.5q0 43 -7.5 81t-23 66t-40 44.5t-57.5 16.5q-23 0 -40.5 -16.5t-29.5 -44.5t-19 -65t-11 -77q-2 -18 -3 -40t-1 -46zM399 186q-50 15 -86 39.5t-60 57.5t-37.5 73t-18.5 86q-3 -16 -4.5 -33t-3.5 -34q-3 -32 -3 -62q0 -37 4.5 -71.5t15.5 -61
t29 -42.5t44 -16q34 0 63 16t57 48z" />
    <glyph glyph-name="p" unicode="p" horiz-adv-x="762" 
d="M806 502q18 14 29.5 9t20.5 -14q-20 -41 -51 -88.5t-70.5 -96t-87 -96t-100.5 -87.5q-30 -22 -66 -45t-75.5 -41.5t-80.5 -30.5t-80 -12q-38 0 -76.5 16t-67.5 46q-8 -38 -14.5 -73t-13.5 -64q-11 -53 -20 -97t-17 -87t-14.5 -88.5t-11.5 -99.5q-2 -15 -2 -28v-25
q0 -30 2.5 -51.5t4.5 -34.5l1.5 -10.5t0.5 -9.5q-2 -11 -8 -14t-14 -3q-35 0 -58 20t-37.5 53t-20.5 74.5t-6 84.5q0 15 0.5 31.5t2.5 31.5q5 46 16 114.5t25.5 146.5t31 159.5t31.5 155.5q13 64 25.5 126t23 116t17.5 96t9 66q2 21 1 38t-3 31q-1 8 -1.5 14.5t0.5 11.5
q1 17 12 23t25 6q31 0 51.5 -11.5t33 -31.5t17.5 -46.5t5 -56.5q0 -11 -0.5 -22.5t-1.5 -22.5q0 -5 -0.5 -12t-1.5 -12q22 42 48.5 81.5t58 71.5t66.5 55.5t74 33.5q11 3 22 4t22 1q36 0 62.5 -13.5t45 -36.5t30 -53t17.5 -62q6 -33 6 -76q0 -42 -6 -89t-18 -95t-30 -95.5
t-42 -91.5q74 61 142.5 138.5t114.5 165.5zM158 339q-9 -48 -19 -98t-21 -103q10 -17 25 -31.5t33 -24t38 -13t41 1.5q33 7 61.5 36t51 71.5t40 94t29 103.5t17.5 101.5t6 87.5q0 14 -1 26t-3 22q-2 14 -6.5 29.5t-13.5 27t-22 17t-32 1.5q-24 -5 -47.5 -26t-46 -51
t-42.5 -66.5t-36.5 -73.5t-30 -71.5t-21.5 -60.5z" />
    <glyph glyph-name="q" unicode="q" horiz-adv-x="607" 
d="M260 -131q8 54 16 114t17 118q2 17 3.5 30.5t6.5 40.5q-26 -36 -54 -67.5t-58.5 -54.5t-63.5 -36.5t-68 -13.5q-40 0 -66.5 13.5t-42.5 37t-23 54t-7 64.5v14.5t1 15.5q6 50 25.5 111t50.5 123.5t71 121.5t87 104.5t100 73t110 27.5q44 0 78 -21t57 -54.5t33.5 -75
t7.5 -83.5q-3 -28 -12 -53q-2 -4 -12 -7.5t-14 -3.5q-5 0 -10.5 3t-10.5 9q4 11 5.5 20.5t3.5 20.5q1 25 -3.5 52.5t-16 49.5t-30.5 36.5t-46 14.5q-36 0 -71.5 -27.5t-69 -71t-62.5 -97.5t-51.5 -107.5t-36.5 -100.5t-16 -76q-1 -14 -0.5 -30t5.5 -29.5t15 -22t28 -8.5
q25 0 52 20t53 51.5t51 69.5t45 75h-1q10 29 23 54t31 45v-1l5 11h4q19 14 45 21t55 4q14 -2 21.5 -9t4.5 -20q0 -1 -3 -7t-7 -13q-5 -8 -10.5 -19.5t-10.5 -31.5q-6 -18 -12 -47.5t-12 -66.5t-12.5 -80t-13.5 -89l4 10q35 74 69 146t62 131.5l48 102t26 59.5q14 5 25.5 4
t18.5 -25q-9 -22 -35 -79t-62 -133.5t-77.5 -165t-81.5 -173.5q-5 -11 -11.5 -24t-11.5 -24v1q-7 -45 -14 -88.5t-14.5 -83t-15 -73.5t-14.5 -60q-11 -38 -29.5 -76.5t-44.5 -69t-59 -48t-72 -12.5q-9 2 -14 6t-2 12l3 6t6 11q9 14 22 39t25 62q17 60 28 112t19 100z" />
    <glyph glyph-name="r" unicode="r" horiz-adv-x="483" 
d="M1 409l69 137q-34 3 -58.5 18.5t-40 39t-22 52.5t-3.5 59q4 32 18.5 66t37 62t52.5 46t66 18q45 0 63.5 -26t15.5 -78q-3 -28 -11 -59t-17 -58.5t-17.5 -49.5t-12.5 -33q24 -6 46.5 -7t42.5 -1q21 0 37.5 -1t28 -7.5t16.5 -19.5t3 -37q-2 -17 -6 -34l-10 -41
q-9 -36 -18.5 -76t-18 -79.5t-15.5 -75.5t-10 -63q-2 -32 4.5 -53.5t17.5 -23.5q18 7 41.5 31.5t48 59.5t50.5 76.5t49.5 83t43.5 80t35 66.5l3 7h-1q5 10 9.5 16t15.5 6q13 0 25 -20l-11 -21l-32.5 -65t-40 -78t-46 -83t-49 -80t-50 -69.5t-48.5 -50.5q-20 -17 -47.5 -28
t-55.5 -11q-26 0 -44 14.5t-29.5 39t-16.5 56.5t-5 67q0 11 0.5 22.5t1.5 22.5q2 25 10 67t19 87.5t23 87.5t23 69l-68 3q-17 -35 -35 -71l-35 -70zM63 660q-2 -19 4.5 -32t26.5 -17q4 9 12.5 28.5t17 44t15.5 49.5t9 45q1 21 -3 21q-8 0 -21 -13.5t-26 -34.5t-23 -45.5
t-12 -45.5z" />
    <glyph glyph-name="s" unicode="s" horiz-adv-x="456" 
d="M35 904q18 16 42.5 24t49.5 8q17 0 33 -4t28 -13t19.5 -23.5t7.5 -34.5q0 -31 -14 -71t-33 -85q-9 -23 -18.5 -46t-17.5 -47q39 -58 74 -117t62 -114t43 -103t17 -83q23 34 45 71t42.5 73.5t37.5 69.5t29 58q0 1 2 3q1 1 1 2l8 16h-1q5 10 9.5 16t15.5 6q18 0 26 -20
l-6 -12l-3 -3q-15 -29 -34.5 -68t-42.5 -82t-49 -87t-53 -84t-55 -72.5t-54 -52.5q-24 -17 -53.5 -30t-60.5 -22t-62.5 -14t-59.5 -5q-33 0 -61.5 6t-49 18.5t-31.5 31.5t-9 45q2 14 14.5 28.5t28.5 14.5q12 0 14 -11t1 -23q0 -16 7.5 -26t20 -15t27.5 -6.5t30 -0.5
q80 3 116 51t39 131q0 27 -7.5 60.5t-19.5 69.5t-28 71t-35 64l-44 -99l-36 13l53 125q-35 45 -57 105t-22 122q0 48 16.5 93t57.5 78zM111 675q9 22 19.5 48.5t18.5 50.5t12 43.5t0 27.5h1q-6 12 -13 13q-9 1 -19.5 -11.5t-19.5 -34t-15 -48.5t-6 -54q0 -32 12 -59z" />
    <glyph glyph-name="t" unicode="t" horiz-adv-x="430" 
d="M300 990q-2 -26 -7.5 -56t-12.5 -64q44 0 84.5 -5t75 -19t61.5 -38.5t44 -62.5h-1q4 -8 -3 -17t-19 -4q-42 42 -102.5 56.5t-130.5 14.5h-25q-10 -45 -21.5 -90t-23.5 -92l-19 -76l-3 -13q-7 -26 -18 -70.5t-21.5 -96t-18 -103.5t-7.5 -94q0 -29 4.5 -50.5t16.5 -29.5
q9 -7 29 -1t49 27q31 25 60.5 63.5t56 82.5t49 88.5t39.5 80.5h-1q14 28 25.5 49.5t22.5 35.5q1 1 11 1q16 0 23 -19l-36 -75h1q-32 -67 -70 -141t-81.5 -136t-92.5 -102.5t-103 -40.5q-89 0 -124 44t-35 123q0 11 0.5 22t1.5 23q3 34 14 93t26 129.5t33 148t35 149.5l14 57
q-34 -3 -65 -5t-60 -2q-61 0 -107 15t-65 56q-2 5 -3 11.5t1 11t7.5 6t14.5 -4.5l-1 1q30 -13 65.5 -18t73.5 -5q36 0 77 3.5t80 7.5q14 63 24 110.5t12 68.5q1 17 -0.5 28.5t-3.5 21.5q-1 5 -1.5 9.5t-0.5 8.5q2 14 12.5 18.5t24.5 4.5q39 0 62.5 -12t36 -31.5t15.5 -44.5
t1 -51z" />
    <glyph glyph-name="u" unicode="u" horiz-adv-x="710" 
d="M185 741q29 -18 39 -53.5t7 -74.5q-4 -44 -16 -87.5t-23 -73.5q-9 -29 -21.5 -69t-23.5 -82.5t-20.5 -83.5t-12.5 -71q-1 -22 1.5 -38t11.5 -16q13 0 33.5 19t45 50t50 69t50 77t45.5 74t36 59l-1 -1q10 30 18.5 56.5t15.5 52t12 52t7 56.5q1 8 0 16.5t-3 16.5
q-1 3 -1 10q0 3 -1 5q2 20 16 27.5t48 7.5q24 0 39 -9.5t23.5 -25t11 -36.5t0.5 -43q-5 -55 -23 -123.5t-38 -134.5q-18 -60 -33 -112t-17 -88q-1 -10 -1 -23.5t2.5 -25.5t7.5 -20.5t13 -8.5q16 0 40.5 27.5t53 69.5t57.5 91t53 93t40 75t19 36l3 7h-1q5 10 9.5 16t15.5 6
q10 0 15.5 -5.5t9.5 -13.5q-7 -12 -16 -29t-17 -34q-20 -39 -43 -85.5t-49.5 -93t-55.5 -90t-59.5 -77.5t-61.5 -54t-62 -20q-35 0 -58.5 9.5t-38 27t-20.5 41.5t-6 53v29q1 15 3.5 31.5t6.5 33.5q-2 -2 -2.5 -4t-2.5 -4q-26 -41 -54 -81t-59 -72.5t-66.5 -52.5t-75.5 -20
q-52 0 -72.5 34.5t-20.5 91.5q0 10 0.5 20t1.5 21q3 33 10 71.5t16.5 78.5t20.5 80.5t21 77.5q17 60 30.5 114t16.5 87q2 16 -0.5 26.5t-4.5 18.5v-1q-2 5 -2 8v7q1 14 12 19t25 5q20 0 40.5 -6t29.5 -11z" />
    <glyph glyph-name="v" unicode="v" horiz-adv-x="686" 
d="M733 493q12 8 21 6t22 -14q-15 -35 -37.5 -66.5t-50.5 -57t-61 -43t-69 -23.5q-26 -4 -55.5 1.5t-55.5 20.5q-22 -44 -44 -83t-40 -70q-18 -30 -40 -60t-49 -54t-60 -38.5t-73 -12.5q-34 1 -56.5 19.5t-36 50.5t-19 74.5t-5.5 90.5q0 39 3 81t7.5 82.5t9.5 79t10 71.5
q7 43 11 74.5t3 46.5q-1 14 -4.5 24t-6.5 18q-2 4 -3 6.5t-1 7.5q-2 14 8 20t24 8q20 3 42 1t31 -6q32 -16 48 -49.5t18 -71.5q1 -20 -0.5 -42t-3.5 -43.5t-5.5 -40.5t-6.5 -34q-4 -22 -8.5 -50t-9 -59t-8 -63t-5.5 -60q0 -2 -0.5 -5t-0.5 -5q0 -9 -0.5 -20.5t-0.5 -23.5
q0 -15 1.5 -29.5t5.5 -26.5t11.5 -20t20.5 -9q16 -2 30.5 6.5t28 21.5t24.5 28.5t19 29.5q20 32 43 73.5t50 95.5q-27 35 -40 88.5t-13 113.5q0 67 15 136.5t42.5 125t66.5 89t86 30.5q43 -3 60.5 -29.5t17.5 -69.5q0 -34 -9.5 -75.5t-25 -87.5t-36 -94t-41.5 -95l-56 -116
q32 -27 66 -27q6 0 13 1t15 3q25 6 49 20.5t45 34t38.5 43t29.5 49.5zM566 883q-20 5 -38 -12t-33.5 -48.5t-27.5 -73.5t-21 -88t-13.5 -91.5t-4.5 -82.5q0 -56 10 -79l41 77q18 37 39 83.5t39 93.5t29.5 90.5t11.5 73.5q0 50 -32 57z" />
    <glyph glyph-name="w" unicode="w" horiz-adv-x="998" 
d="M1043 493q12 8 21 6t21 -14q-15 -35 -37 -66.5t-50 -57t-61 -43t-69 -23.5q-26 -4 -56 1.5t-56 20.5q-11 -19 -19.5 -35.5t-17.5 -36.5q-21 -42 -45 -86t-55 -80.5t-70 -59.5t-90 -23q-48 0 -74.5 20t-38.5 51.5t-13.5 71t-1.5 77.5q0 13 0.5 17t-0.5 16l-12 -19
q-27 -41 -55 -81t-59 -72.5t-66 -52.5t-76 -20q-52 0 -72 34.5t-20 91.5q0 10 0.5 20t1.5 21q3 34 9.5 72.5t16 78t20 79.5t21.5 79q17 63 30.5 115t16.5 85q2 16 0 26.5t-4 18.5v-1q-2 5 -2 16q2 13 12 18t25 5q19 0 40 -6t29 -11q29 -20 39.5 -55t7.5 -74
q-4 -44 -16.5 -86.5t-23.5 -73.5q-9 -29 -21 -69t-23 -82.5t-20.5 -83.5t-12.5 -71q-1 -22 1.5 -38t11.5 -16q13 0 33.5 19t44.5 50t50 69t50.5 77t45.5 74t35 59l-1 -1q10 30 19 56.5t15.5 52t11.5 52t7 56.5q1 8 0 16.5t-3 16.5q-1 3 -1 10q0 3 -1 5q2 20 16 27.5t48 7.5
q25 0 40.5 -9t24 -25t11 -36.5t0.5 -44.5q-2 -17 -9 -51.5t-18 -79.5q-9 -38 -18.5 -81t-17.5 -85t-14 -81t-7 -70q-3 -44 10 -60.5t33 -11.5q26 6 49.5 27.5t44.5 51t38.5 63t32.5 63.5l19 38q-28 35 -40.5 88.5t-12.5 113.5q0 67 15 136.5t42.5 124.5t66 88.5t86.5 30.5
q43 -3 61 -30.5t18 -70.5q0 -32 -8.5 -71t-22 -80t-30.5 -83t-34 -80l-11 -21l1 1l-8 -16l-28 -59l-28 -57q32 -27 66 -27q6 0 13 1t15 3q25 6 49 20.5t45 34t38.5 43t29.5 49.5zM876 883q-20 5 -38 -12t-33.5 -48.5t-27.5 -73.5t-21 -88t-13.5 -91.5t-4.5 -82.5
q0 -26 2.5 -46t7.5 -32l6 12q8 16 17.5 32t17.5 32q18 37 39 83.5t39 93.5t29.5 90.5t11.5 73.5q0 50 -32 57z" />
    <glyph glyph-name="x" unicode="x" horiz-adv-x="763" 
d="M65 450q-15 -9 -23 -8t-16 6q-2 0 -5.5 0.5t-4.5 0.5l18 39q11 25 27 60t36 72t44 73.5t51 65.5t56 47t61 19q47 1 75 -19t44 -54.5t21.5 -80.5t7.5 -98l150 228q7 1 14.5 1t13 -2.5t9 -9t3.5 -18.5l-24 -38l-164 -250q1 -16 1.5 -30.5t2.5 -30.5q5 -61 12.5 -118
t19.5 -98.5t29 -62t41 -8.5q28 19 59 57t59.5 81.5t53.5 86.5t41 73l13 26q10 18 21 38l22 40q15 6 27 5t15 -22q-15 -26 -28.5 -49.5t-24.5 -46.5l-26 -45q-38 -69 -79.5 -139t-94.5 -130q-30 -33 -63.5 -57t-70.5 -32t-65.5 8.5t-50 50t-37.5 80t-27 97.5l-173 -262
l-16 -25l-6 2l-10 -2t-10 1t-9.5 7.5t-6.5 16.5l218 332q-9 57 -14.5 113t-10.5 105t-8.5 86t-10.5 53q-11 24 -23 24q-13 0 -28.5 -15t-31.5 -38.5t-31.5 -52t-28.5 -56t-23.5 -51t-15.5 -36.5l-5 -10v0z" />
    <glyph glyph-name="y" unicode="y" horiz-adv-x="658" 
d="M706 497q3 0 6 1q7 2 16 2t20 -11q-26 -53 -59 -114t-69 -117t-73.5 -101t-71.5 -67q-23 -109 -50 -219t-60.5 -209.5t-73 -185t-87 -146t-103 -92t-120.5 -23.5q-56 7 -89.5 55t-33.5 119q0 34 9 70q25 92 67.5 170.5t97.5 147.5t119.5 131.5t132.5 121.5
q11 53 23.5 114.5t28.5 140.5l-13 -19q-32 -51 -65.5 -99t-68.5 -85.5t-71.5 -60t-74.5 -22.5q-52 0 -73 34.5t-21 91.5q0 10 0.5 20t1.5 21q3 33 10.5 71.5t17 78.5t20.5 80.5t21 77.5q17 60 30.5 114t16.5 87q2 16 0 26.5t-4 18.5q-1 4 -1.5 6.5t-0.5 7.5q1 14 11.5 19
t24.5 5q20 0 40.5 -6t29.5 -11q29 -20 39.5 -55t7.5 -73q-3 -39 -13 -76t-20 -66l-6 -19q-9 -29 -21.5 -69.5t-24 -83t-21 -83t-12.5 -70.5q-1 -22 1.5 -38t11.5 -16q12 0 30.5 16.5t40 43.5t44.5 62t46 71.5t44 71.5t37 63v-1l8 12t7 12l-1 -1q15 77 23 129.5t9 69.5
q2 17 0 30t-4 24q-2 6 -2 10.5v7.5q2 14 12.5 18.5t26.5 5.5q66 0 94.5 -28.5t33.5 -69.5q-4 -51 -9.5 -102.5t-13.5 -107.5t-18.5 -119.5t-25.5 -138.5q28 22 56.5 60t56 82t52.5 91.5t46 89.5zM-87 -608q0 -26 11.5 -43.5t38.5 -17.5q23 3 45 20t42 43q29 39 55.5 93
t49.5 114.5t43 122t37 114.5q6 18 10.5 35.5t9.5 32.5v-1l10 39q-70 -55 -134.5 -125t-116.5 -149q-11 -18 -28 -52t-33.5 -73.5t-28 -80.5t-11.5 -72z" />
    <glyph glyph-name="z" unicode="z" horiz-adv-x="823" 
d="M879 503q17 10 26 5t15 -16l-259 -468q0 -5 -0.5 -13t-1.5 -13q-5 -16 -16 -16q-29 28 -76 37.5t-104 9.5q-38 0 -77.5 -2.5t-78.5 -5.5q-36 -3 -70 -5.5t-63 -2.5q-25 0 -46 2.5t-37 7.5q-48 13 -48 59q0 19 9.5 42t31.5 51q32 40 74.5 83t90.5 85.5t98.5 84t98 78
t89 67.5t72.5 54l42 32q-12 3 -35 3q-17 0 -41 -1.5t-48 -3.5q-32 -3 -69 -5.5t-72 -2.5q-54 0 -101.5 9t-78.5 35l-154 -296q-12 -4 -23.5 -3t-21.5 14l176 334q0 7 2.5 22.5t7 31t11 26.5t15.5 10q7 -2 9 -7t4 -13l4 -10q6 -10 20.5 -17t35.5 -11t47 -6t54 -2
q40 0 80.5 2.5t76.5 4.5q51 3 79 3q27 0 54 -7.5t47.5 -22.5t31 -38t4.5 -55q-1 -6 -4 -11t-10 -5t-13 5l-2 1q-72 -38 -148 -97t-149 -127.5t-139.5 -140.5t-120.5 -137q10 -5 46 -5q21 0 48 2t57 4q36 2 73.5 4.5t72.5 2.5q38 0 69.5 -4t50.5 -16q14 -9 26 -18.5t21 -24.5
q5 9 10.5 19.5t15 28t25 44.5t40 70.5t60 105t84.5 147.5z" />
    <glyph glyph-name="braceleft" unicode="{" horiz-adv-x="320" 
d="M158 516q18 -22 24.5 -58t5 -80.5t-8.5 -95t-15 -101.5q-9 -54 -17 -105.5t-9.5 -94t5.5 -73t28 -42.5q17 -9 38 -13.5t50 -2.5q12 1 16.5 -5.5t4 -15t-6.5 -16.5t-15 -11l1 -1q-68 -8 -115 6q-59 17 -88 55t-38 92.5t-3.5 123t16.5 146.5q7 47 13 95.5t10 100.5
q2 19 3.5 33t-2.5 29q-3 14 -6 23t-11 15q-7 6 -7 12q-5 7 9 10q8 4 12.5 5.5t10.5 8.5q11 9 18 23q16 39 28.5 87.5t23.5 102t23.5 108.5t30.5 107q15 46 35.5 87t48 72.5t64 51t84.5 23.5q26 2 54 -4t60 -17l-2 -1q8 -5 10.5 -14t0 -17.5t-10 -13.5t-17.5 -2
q-26 9 -49.5 11t-40.5 -6q-26 -11 -46 -32.5t-35 -51t-26.5 -65t-20.5 -74.5q-15 -63 -26 -130t-25 -125.5t-34 -101.5t-53 -58z" />
    <glyph glyph-name="bar" unicode="|" horiz-adv-x="212" 
d="M21 323q18 153 30 256.5t20 170.5t12 101.5t6 49.5q6 35 10.5 74t2.5 78q1 19 -3.5 32.5t-5.5 17.5q-1 9 5 12.5t14 0.5q14 -4 26 -6.5t21 -6.5t16 -10.5t12 -17.5q12 -21 16 -54t3.5 -68.5t-3.5 -67.5t-5 -51q-20 -148 -33.5 -252t-22 -172.5t-13.5 -106.5t-7 -55
q-6 -40 -11.5 -84t-3.5 -89q-1 -21 3 -36.5t4 -20.5q1 -10 -4.5 -14t-13.5 -1q-27 9 -47.5 20.5t-28.5 36.5q-11 23 -13 59t0 74.5t7 73.5t7 56z" />
    <glyph glyph-name="braceright" unicode="}" horiz-adv-x="493" 
d="M342 485q-27 21 -31 66t3.5 103.5t21 125.5t21.5 131q5 39 6.5 75.5t-3 68t-16 56t-32.5 39.5q-14 11 -37 13.5t-52 -1.5q-11 -1 -16 5t-5 15t5.5 17.5t15.5 11.5l-1 1q70 11 117 -1q45 -12 73.5 -38t44 -61.5t21 -78.5t3.5 -91q-2 -53 -9.5 -109t-15.5 -109.5
t-13.5 -103t-3.5 -89.5q3 -16 9 -25q3 -8 6.5 -10.5l10.5 -7.5q12 -6 6 -12q-2 -2 -4 -5t-7 -5q-10 -5 -16 -12.5t-15 -20.5q-9 -14 -12 -28t-8 -33q-15 -51 -26.5 -99t-20.5 -94q-18 -78 -36.5 -145t-46.5 -118t-70 -82t-106 -37q-52 -5 -111 15l1 1q-8 4 -11 13t-0.5 17.5
t9 13.5t17.5 2q27 -7 48.5 -6.5t41.5 6.5q25 7 42.5 35t31 70t24 93t21.5 105q10 51 21 101t25.5 93.5t33.5 77t45 51.5z" />
    <glyph glyph-name="asciitilde" unicode="~" horiz-adv-x="503" 
d="M25 1060q-1 6 -1 13.5t1.5 12.5t3.5 6.5t6 -4.5q21 -23 51 -30t64.5 -4.5t72.5 10.5t74.5 14t69 7t57.5 -11t39.5 -40t14.5 -80q-1 -6 -2 -13.5t-3 -12.5t-4.5 -6t-5.5 6q-22 29 -50.5 40.5t-61.5 12t-68.5 -6t-69.5 -13t-65.5 -9t-56.5 6t-42.5 32t-23.5 69.5z" />
    <glyph glyph-name="exclamdown" unicode="&#xa1;" horiz-adv-x="228" 
d="M172 621q-26 -116 -43 -195t-28 -129.5t-16.5 -77t-7.5 -37.5q-8 -26 -14.5 -56t-4.5 -59q-2 -14 2.5 -24.5t3.5 -13.5q2 -7 -5 -9.5t-15 -0.5q-31 6 -50.5 10t-28.5 21q-12 16 -15 41t-1 52t6.5 51.5t7.5 38.5q27 112 45.5 191t30.5 131t18 81t9 42q10 30 17 63.5
t7 67.5q2 16 -2 28l-5 15q0 8 6.5 11t14.5 1q29 -7 50.5 -15.5t29.5 -28.5q11 -18 12 -45t-3.5 -56t-11 -55.5t-9.5 -42.5zM136 986q-19 36 -12 65q3 16 11.5 28.5t20.5 21t26 13t27 4.5q23 0 38 -17t8 -60q-3 -16 -10 -31.5t-16.5 -28t-21.5 -20.5t-25 -8q-12 0 -23.5 7.5
t-22.5 25.5z" />
    <glyph glyph-name="cent" unicode="&#xa2;" 
d="M367 -172q2 -21 7.5 -36t3.5 -21q2 -10 -3.5 -13t-13.5 0q-30 9 -49 25t-30 38q-17 32 -22 77.5t-4 90.5q-17 -5 -35.5 -7.5t-38.5 -2.5q-52 0 -88.5 22t-59 58.5t-32.5 84t-10 99.5v25.5t2 26.5v-1q7 80 34 163t70.5 152t100 116t121.5 55q0 11 1 15q5 40 8 83.5t1 87.5
q-1 22 -5.5 37.5t-4.5 20.5q-2 10 4 13t15 0q58 -16 79 -63q12 -20 17.5 -48.5t7 -59t0.5 -61t-3 -55.5q22 -16 38.5 -38.5t27 -49t15 -55t2.5 -57.5q-1 -9 -2.5 -20t-5 -21t-11 -16.5t-20.5 -6.5q-5 1 -9.5 3t-10.5 8q4 14 6.5 26.5t3.5 23.5q1 19 -0.5 38.5t-7 35
t-13.5 26.5t-20 13l-47 -531q33 35 60.5 77t48.5 77v-1q24 42 44.5 82.5t37.5 73.5q8 15 18 34t18 33q12 5 15 5q9 0 14.5 -5.5t9.5 -13.5l-10 -22q-18 -37 -44.5 -88.5t-58.5 -106.5q-30 -55 -68.5 -114t-90.5 -104l-5 -56q-1 -9 -1.5 -20t-1 -29.5t-2 -47.5t-3.5 -75z
M177 178q0 -24 4 -45t13 -37.5t24 -26t38 -9.5h4l2 15l38 462q-21 -34 -40.5 -74t-35.5 -82.5t-27.5 -85t-17.5 -82.5q-1 -8 -1.5 -17.5t-0.5 -17.5z" />
    <glyph glyph-name="sterling" unicode="&#xa3;" horiz-adv-x="913" 
d="M712 495q6 4 10 2t6.5 -6.5t3 -10.5t-2.5 -11q-24 -45 -51 -74.5t-57 -47.5t-62.5 -25t-66.5 -7q-17 0 -31.5 1t-31.5 3q-28 -103 -58 -208.5t-64 -195.5q17 3 35.5 4t37.5 1q61 0 121.5 -11t122.5 -24q61 -14 120.5 -25t117.5 -11q22 0 48 3q57 7 108 32t93 81q3 5 8 12
t11 13.5t12.5 11t12.5 3.5q13 -4 15 -24t-1 -40q-14 -92 -60.5 -138t-114.5 -60q-44 -9 -89 -9q-69 0 -145 16t-150 36q-73 20 -145.5 35.5t-138.5 15.5q-14 0 -28.5 -1t-28.5 -3q-23 -30 -51.5 -60.5t-54.5 -50.5q-32 -26 -68 -42t-73 -16q-9 0 -17.5 1t-17.5 3
q-43 2 -86 19t-78 46q-57 48 -84 99.5t-27 97.5q0 42 16.5 79t44 64.5t63 43.5t72.5 16q25 0 49.5 -7.5t47.5 -24.5q7 -5 16 -14t17 -18q14 -17 21.5 -38t7.5 -44q0 -21 -10 -49.5t-26 -52.5q21 7 46.5 12t49.5 9l5 12l7 15q37 92 63 194t50 208l4 20q-27 5 -52 8.5t-50 3.5
q-28 0 -54 -5t-51 -17h1q-10 -7 -14.5 -5.5t-5.5 7.5t1 14t5 15q26 48 64.5 65.5t86.5 17.5q21 0 43.5 -2.5t45.5 -6.5l13 52q10 41 27.5 95t43 110.5t58.5 111t73.5 97.5t88 69t102.5 26q36 0 67 -10q57 -20 102 -78t57 -154q-2 -12 -6 -21t-10 -13t-15.5 -1.5t-21.5 14.5
q-20 90 -46.5 128t-56.5 39q-36 1 -69.5 -26.5t-63.5 -71t-55 -97t-44.5 -103.5t-32.5 -90.5t-18 -59.5q-5 -15 -8.5 -27t-6.5 -25q16 -2 30.5 -3t30.5 -1q54 0 104 17.5t92 65.5zM-51 -203q-7 -5 -14.5 -6.5t-14.5 5.5q-3 11 -3 17t11 12h-1q41 29 59.5 65t18.5 71
q0 39 -24 65q-25 25 -54 25q-21 0 -40.5 -13t-35 -34t-24.5 -48.5t-9 -56.5q0 -35 16.5 -69.5t52.5 -60.5l16 -10l4 -2q18 -7 37 -7q21 0 41.5 7.5t40 20.5t37 29t32.5 34v1q-57 -2 -92.5 -16t-53.5 -29z" />
    <glyph glyph-name="currency" unicode="&#xa4;" horiz-adv-x="674" 
d="M344 887q55 0 91 -12.5t59 -33.5q10 17 19 35t19 37q4 7 10 17t14.5 20.5t19 18.5t24.5 11q14 2 29 0.5t36 -9.5q5 -2 8.5 -4.5t0.5 -5.5q-2 -1 -8.5 -3.5t-11.5 -8.5q-17 -27 -23 -36.5t-9 -16.5l-47 -88q-5 -9 -14 -24.5t-23 -27.5q6 -29 6 -59q0 -19 -1.5 -38.5
t-3.5 -36.5q-6 -47 -27 -101.5t-59 -103.5q9 -11 14.5 -21t9.5 -17l47 -88q3 -7 9 -16.5t23 -36.5q5 -6 11.5 -8.5t8.5 -3.5q3 -3 -0.5 -5.5t-8.5 -4.5q-21 -8 -36 -9.5t-29 0.5q-14 3 -24.5 11t-19 18.5t-14.5 20.5t-10 17q-11 21 -21.5 41t-21.5 40q-33 -25 -74.5 -40
t-91.5 -15q-39 0 -67 9q-2 -4 -4 -7t-4 -7q-4 -7 -13 -20.5t-21 -27.5t-26 -25t-27 -14q-14 -2 -29 -0.5t-36 9.5q-5 2 -8.5 4.5t-0.5 5.5q2 1 8.5 3.5t11.5 8.5q17 27 32.5 46.5t18.5 26.5l24 45q-30 35 -41 80.5t-11 89.5q0 14 0.5 28t2.5 25q4 28 15 61t29.5 66.5t44 65
t57.5 56.5q-8 10 -13.5 20t-8.5 17l-47 88q-3 7 -9 16.5t-23 36.5q-5 6 -11.5 8.5t-8.5 3.5q-3 3 0.5 5.5t8.5 4.5q21 8 36 9.5t29 -0.5q13 -3 24 -11t19.5 -18.5t14.5 -20.5t10 -17q12 -23 23.5 -45.5t23.5 -43.5q1 -4 5 -12q20 8 42.5 12.5t47.5 4.5zM350 846
q-25 0 -46.5 -20t-40 -51t-33.5 -69t-25.5 -74t-17 -65.5t-8.5 -44.5q-2 -11 -3 -28.5t-1 -36.5q0 -20 2.5 -41t10 -37.5t21 -27t34.5 -10.5q34 0 64.5 30.5t54.5 78t40.5 104t22.5 108.5q2 13 2.5 26.5t0.5 24.5q0 60 -19 96.5t-59 36.5z" />
    <glyph glyph-name="yen" unicode="&#xa5;" horiz-adv-x="1602" 
d="M1341 -674q11 2 19 7t11 5q5 2 7 -2.5t1 -11.5q-2 -25 -8 -40.5t-17 -26.5q-12 -12 -30 -18t-37.5 -8.5t-37.5 -2t-30 0.5q-4 0 -7 0.5t-6 0.5q-26 -55 -54 -102.5t-59 -84t-65 -59.5t-71 -27q-8 -1 -17 -1.5t-17 -0.5q-60 0 -98.5 25.5t-61.5 69.5q-18 35 -25 70t-7 70
q0 66 22 129q19 55 50.5 109t71.5 106t85.5 100.5t91.5 92.5t90 83t82 72q43 158 77 308.5t67 302.5q-97 -147 -176 -255.5t-137 -177.5q-77 -85 -137.5 -128t-111.5 -43q-37 0 -75 16q-32 14 -43.5 46t-11.5 70q0 30 4.5 61t9.5 56l17 63q13 50 26.5 104t26 109t23 110
t18.5 107q5 46 9.5 98t4.5 106q0 76 -12.5 152.5t-46 141t-92.5 110t-153 60.5h1q-56 5 -111.5 -18t-101 -64.5t-77 -98t-38.5 -118.5v1q-5 -56 9.5 -110.5t41.5 -97.5t63.5 -69.5t75.5 -27.5q39 -4 75.5 15t66.5 50t51.5 67.5t32.5 68.5q0 3 1 6t1 6q2 13 8 23.5t27 10.5
q15 0 19.5 -8t4.5 -19q0 -13 -2 -22.5t-4 -16.5q-3 -5 -3 -10q-17 -48 -48.5 -93t-74 -80t-96 -56.5t-114.5 -21.5q-21 0 -42.5 2.5t-44.5 8.5q-55 18 -96.5 47.5t-69.5 67.5t-42.5 83t-14.5 93t15 95q21 72 67.5 134.5t112.5 108.5t148.5 72t175.5 26q94 1 181 -26t146 -74
q50 -41 84.5 -89t55.5 -102t30.5 -111.5t9.5 -117.5q0 -47 -4 -95t-11 -94q-8 -58 -22.5 -123.5t-30.5 -128.5q-12 -49 -23 -97t-19 -94l-3 -14q-4 -20 -8.5 -46.5t-4.5 -48.5q0 -15 3 -25.5t10 -14.5q13 -4 37.5 13t54.5 50q29 30 62.5 71.5t69 89.5t71.5 99.5t69.5 101.5
t63 97t51.5 86l-1 -1q9 52 15 95.5t6 73.5q0 13 -3.5 24t-6.5 20q-2 5 -3 6.5t-1 8.5q0 13 12 18t29 6q43 1 71.5 -8.5t46 -26.5t25 -38.5t7.5 -43.5q-4 -80 -18 -177.5t-35 -203t-47 -215.5t-53 -215.5t-54 -202t-50 -175.5l-23 -75h39q12 2 19.5 7t10.5 5q11 2 9 -14
q-2 -25 -8 -40.5t-17 -26.5q-14 -14 -37.5 -20t-46.5 -8q-10 -27 -20 -54.5t-21 -54.5h1h11h16.5t26 0.5t40.5 0.5zM1010 -762q-23 0 -40 -4q-11 -2 -19 -6.5t-11 -5.5q-10 -1 -8 15q3 48 25 67q14 16 39.5 21.5t50.5 7.5q10 26 19.5 53t18.5 55h-4q-23 1 -47 2t-47 -4
q-11 -2 -19 -6.5t-11 -5.5q-10 -1 -8 15q3 48 25 67q12 12 30 18t37.5 8.5t37.5 2t30 -0.5h8q20 63 38 123.5t34 111.5q-48 -44 -103.5 -98.5t-106.5 -114.5t-93.5 -123.5t-65.5 -125.5q-8 -28 -14 -55.5t-6 -52.5q0 -8 1 -16.5t3 -17.5q8 -50 26.5 -73t41.5 -23
q26 -1 55.5 26t53.5 76z" />
    <glyph glyph-name="brokenbar" unicode="&#xa6;" horiz-adv-x="336" 
d="M136 733q18 74 30 124.5t19.5 83t11 49t5.5 23.5q6 17 10.5 36.5t2.5 38.5q1 9 -3.5 15.5t-5.5 7.5q0 10 20 7q28 -4 46 -6.5t27 -13.5q13 -10 17 -26t3.5 -33.5t-3.5 -33t-4 -24.5q-20 -72 -33.5 -122.5t-22.5 -84t-13.5 -52t-7.5 -26.5q-5 -20 -10.5 -41t-3.5 -44
q-1 -9 3 -17t4 -10q1 -5 -5 -7t-14 0q-26 4 -46.5 9.5t-28.5 18.5q-11 11 -13 28.5t0.5 36t7 35.5t7.5 28zM27 167q18 74 30 124.5t19.5 83t11.5 49.5t6 24q5 17 9.5 36t2.5 38q1 9 -3.5 15.5t-5.5 8.5q0 9 20 7q29 -4 47 -7t26 -14q13 -10 17 -26t4 -33.5t-3 -33t-5 -24.5
q-20 -72 -33.5 -122.5t-22.5 -84t-13.5 -52t-7.5 -26.5q-5 -19 -10.5 -40t-3.5 -44q-1 -10 3 -17.5t4 -9.5q1 -5 -5 -7t-14 0q-26 4 -46.5 9.5t-28.5 17.5q-11 12 -13 29.5t0.5 36t7.5 35t7 27.5z" />
    <glyph glyph-name="section" unicode="&#xa7;" horiz-adv-x="643" 
d="M37 505q0 97 38.5 172t128.5 122q14 7 28.5 12t28.5 10q-44 14 -77.5 38.5t-48.5 71.5q-4 13 -6.5 29.5t-2.5 30.5q0 26 6 57.5t18 66.5q14 42 37 80t52.5 68.5t63 51t68.5 27.5q11 4 21 5t20 1q42 0 81 -22t68.5 -58t47.5 -82t18 -94v-12.5t-1 -14.5q-5 -32 -20.5 -59
t-37 -47.5t-47 -32t-49.5 -11.5q-25 0 -48 17.5t-34 49.5q-7 17 2 26q12 7 18 1.5t11 -16.5q8 -20 19.5 -29.5t23.5 -9.5q13 0 26 9.5t23 26.5t16.5 39t7.5 48q-3 37 -17.5 75.5t-36.5 70t-50 52t-58 20.5q-33 0 -57 -17t-40 -45.5t-24.5 -64.5t-9.5 -73q0 -3 -0.5 -6
t-0.5 -5v-11q0 -51 16 -89q8 -21 23 -37.5t33.5 -29.5t38.5 -22.5t39 -16.5q1 -1 4 -2t5 -1l9 -4q11 -5 20.5 -9t20.5 -11h-1q26 -14 47.5 -36.5t32.5 -55.5v1q7 -21 7 -47q0 -31 -10.5 -59.5t-28.5 -53t-42.5 -44t-51.5 -32.5q-39 -18 -89 -18q-46 0 -89 17t-73 46
q3 -41 16 -71q8 -21 23 -37.5t33.5 -29.5t38.5 -22.5t39 -16.5q1 -1 4 -2t5 -1l9 -4q11 -5 20.5 -9t20.5 -11h-1q26 -14 47.5 -36.5t32.5 -55.5v1q7 -21 7 -47q0 -31 -10.5 -59.5t-28.5 -53t-42.5 -44t-51.5 -32.5q-39 -18 -89 -18q-40 0 -78 13.5t-68 36.5t-47 55t-15 70
q1 9 4 23.5t9 28t14 23.5t19 10q13 0 10 -15l-4 -7q0 -1 -0.5 -1.5t-0.5 -1.5q-2 -3 -3 -6.5t-1 -8.5q0 -9 4 -22q6 -25 19 -43t32 -29.5t41.5 -17t47.5 -5.5q22 0 45.5 4.5t43.5 12.5q16 7 35 18t35.5 24.5t27.5 28.5t11 32q0 9 -3 17q-6 12 -20 21t-31 15l-70 15
q-2 0 -4 1t-4 1l-12 2q-35 6 -69 13.5t-63.5 22t-52 37t-33.5 57.5q-4 13 -6.5 29.5t-2.5 30.5zM494 746q-10 19 -39 29t-65 11.5t-72.5 -5.5t-60.5 -20q-29 -17 -51.5 -38.5t-35.5 -49.5q18 -33 52.5 -48.5t76.5 -15.5q22 0 45.5 4.5t43.5 12.5q16 7 35 18t35.5 24.5
t27.5 28.5t11 32q0 9 -3 17z" />
    <glyph glyph-name="dieresis" unicode="&#xa8;" horiz-adv-x="358" 
d="M127 1068q13 -19 18.5 -35t5.5 -30q0 -32 -23.5 -49.5t-50.5 -17.5q-23 0 -42 17t-19 60q0 16 4 31.5t12 28t18.5 20.5t24.5 8q12 0 25 -7.5t27 -25.5zM309 1068q13 -19 18.5 -35t5.5 -30q0 -32 -23.5 -49.5t-50.5 -17.5q-23 0 -42 17t-19 60q0 16 4 31.5t12 28
t18.5 20.5t24.5 8q12 0 25 -7.5t27 -25.5z" />
    <glyph glyph-name="copyright" unicode="&#xa9;" horiz-adv-x="842" 
d="M556 605q-14 -24 -32 -49.5t-41 -46.5t-53 -35t-68 -14q-29 0 -49.5 11t-33.5 29.5t-18.5 43t-5.5 50.5v13t1 12v-1q4 42 20 85t41.5 78t59 57t72.5 22q25 0 44.5 -10.5t32.5 -27t19 -37.5t4 -43q-1 -10 -5 -23t-21 -13l-6 2t-10 6q2 9 4 15.5t3 10.5q2 19 -3.5 35
t-17.5 16q-15 0 -34.5 -21t-38.5 -52.5t-34 -69t-21 -70.5v-7q0 -2 -0.5 -4.5t-0.5 -5.5q0 -20 8.5 -35.5t28.5 -15.5q19 0 37 11t34 26.5t29.5 34t24.5 33.5t18 28t12 23q3 6 7 12t7 12h-1l15 26v-1l6 9q12 5 11 5q12 0 18 -16l-8 -13l1 1q-8 -18 -22.5 -42.5t-33.5 -53.5z
M492 1056q113 0 186 -33.5t110.5 -88t42.5 -124.5t-17.5 -143.5t-69 -143.5t-112.5 -124.5t-148.5 -88t-176.5 -33.5q-70 0 -120.5 17.5t-85 47t-54 67.5t-28.5 79t-9.5 82t4.5 76q5 38 23 83t47.5 90.5t70.5 88.5t92 75.5t112.5 52.5t132.5 20zM500 1013q-66 0 -124.5 -30
t-106 -78.5t-81.5 -111t-52 -127.5t-17.5 -127.5t23.5 -111t70 -78.5t122 -30q57 0 111.5 30t102 78.5t84.5 111t58.5 127.5t24.5 127.5t-18 111t-69 78.5t-128 30z" />
    <glyph glyph-name="ordfeminine" unicode="&#xaa;" horiz-adv-x="3484" 
d="M1550 826h-1q-6 -1 -14.5 -9.5t-17.5 -21t-18 -27.5t-17 -29l-21 -32v1q-5 -14 -8 -26t-4 -23q-2 -16 5 -33q0 -7 -10 -7q-23 0 -32.5 13.5t-9.5 33.5v1q4 30 13.5 60t18.5 53q7 15 11 27.5t4 18.5v2q-7 0 -17.5 -12.5t-22 -29t-21.5 -34t-16 -27.5l-5 -7v1
q-5 -12 -8.5 -28t-4.5 -29q-1 -10 0 -17.5t2 -11.5v1q1 -2 1 -7q0 -6 -10 -6q-24 0 -32 16.5t-8 35.5v2q2 22 5 41t7 33q-14 -9 -28 -13t-31 -6q-4 -20 -5 -43.5t-1 -46.5q0 -27 3.5 -52.5t11.5 -45.5t21.5 -32t34.5 -12q20 0 42 10q12 -5 12 -10q0 -6 -5 -13
q-38 -16 -69 -16q-32 0 -53.5 16t-35 42t-19.5 60t-6 70q0 17 1 36.5t4 39.5l-26 6t-27 8q-26 -41 -56 -77t-62 -64q-21 -18 -45 -32.5t-56 -14.5q-23 0 -44 8.5t-37 24.5t-26 38.5t-10 50.5q0 24 8 49t23 45t36.5 33t48.5 13q28 0 45 -16.5t17 -41.5q0 -7 -2 -17
q25 16 57 26t58 10q8 0 17 -1t17 -3q37 58 65.5 121.5t45.5 125.5q2 6 7 8q5 5 14 5q28 0 37 -16.5t9 -39.5v-15q-4 -35 -13.5 -80t-20.5 -94q-2 -11 -5 -20.5t-5 -20.5q31 1 62 31q3 12 5 22t3 18q1 4 0 7.5t-2 7.5l-1 -1v2q3 15 16 15q25 0 32 -14.5t5 -30.5t-4 -24v-1
l4 6q8 13 16.5 25.5t18.5 23t21 17t24 6.5q18 0 24.5 -12.5t5.5 -27.5l-2 -12t-3 -13q15 23 33.5 43t41.5 20q17 0 23.5 -12t5.5 -29q-2 -17 -8 -38.5t-14 -41.5q-7 -19 -12.5 -37t-6.5 -31q-1 -5 0 -12t4 -7t9 6.5t13 17t14.5 23.5t14.5 25v-1q8 22 21 45.5t29.5 42.5
t35.5 31t40 12q28 0 42.5 -24t13.5 -51q-1 -4 -2 -8.5t-4 -11.5h-7q10 -6 12 -19q1 -8 -1.5 -17.5t-4.5 -19.5q-1 -1 -1 -3q0 -1 -0.5 -1.5t-0.5 -2.5q-1 -5 -1.5 -11.5t-0.5 -12.5t0.5 -9.5t3.5 -1.5v-1q12 13 28 39t27 49l10 20v-1q2 7 4.5 10t4.5 7q-22 3 -30 18.5
t-6 34.5q2 22 17.5 41.5t38.5 19.5q27 0 25 -35q-2 -15 -6 -29t-7 -24q-1 -1 -1 -2v-1h25q1 0 2 0.5t3 0.5q4 0 9 -1t10 -3q10 -3 10 -18q0 -16 -8 -37.5t-15 -35.5q-1 -3 -2.5 -6t-2.5 -6l-3 -9q-11 -30 -21 -61.5t-15 -59.5l2 -2v1q5 -5 7 -6t6 -6q2 15 12 26.5t22 16.5
q7 3 12.5 4t10.5 1q23 0 36 -16t13 -37q0 -22 -18.5 -43t-56.5 -29q-5 -1 -10 -1h-10q-32 0 -55 21t-25 63q-42 11 -92 11q-21 0 -45.5 -2t-49.5 -6q-33 -6 -66.5 -16t-62.5 -25.5t-52 -35.5t-36 -45q0 -1 -0.5 -1.5t-0.5 -1.5q-2 -5 -5 -11t-10 -6t-12 7.5t-7 16.5
q-2 5 -3 11t-1 10q0 26 15.5 49.5t35.5 40.5q16 12 39 21.5t49.5 17t54 12.5t53.5 8q20 2 33.5 2.5t23.5 0.5q38 0 76 -6t69 -20q10 54 23.5 94t27.5 70l7 21q-1 0 -2.5 0.5t-2.5 0.5h-9q-2 -3 -2.5 -7t-2.5 -6l-3 -7q-6 -13 -15 -31t-20 -36.5t-22.5 -35t-21.5 -25.5
q-6 -5 -15 -8t-18 -3q-10 0 -16.5 5.5t-10 14.5t-4.5 19.5t-1 19.5q-16 -24 -36 -42t-45 -18q-23 0 -33.5 12t-12.5 32q-13 -20 -26.5 -32t-28.5 -12q-23 0 -32 11.5t-9 30.5v2q4 29 13.5 59t18.5 53q6 16 11 29t5 17v2zM2387 623q-16 0 -27 7t-18.5 19t-11.5 26.5t-5 29.5
q-9 -16 -18.5 -31t-20 -27t-22 -19t-23.5 -7q-16 0 -26.5 6.5t-17 17.5t-9 25t-2.5 28q-17 -32 -37.5 -54.5t-45.5 -22.5q-15 0 -25 6.5t-16 17t-8.5 23.5t-2.5 26v4q-17 -29 -36.5 -52t-36.5 -23q-23 0 -32 16.5t-9 40.5v4q4 35 12 66.5t17 58.5l4 14l-1 -1q0 1 0.5 2.5
t0.5 4.5v4q4 11 18 9q25 -11 25 -26q0 -5 -0.5 -7.5l-1.5 -7.5q0 -4 -2 -8v1q-3 -9 -6.5 -22.5t-7 -28.5t-6.5 -29.5t-4 -26.5v-13q0 -19 6 -19q5 0 12.5 9t16 23t17.5 29.5t16 29.5v-1l4 8q0 -1 1 -1h1q6 30 16 66t24.5 66.5t32.5 51.5t40 21q8 0 13.5 -5t8.5 -12.5
t4 -15.5t1 -15q-2 -20 -10.5 -40t-21.5 -39.5t-28.5 -37.5t-30.5 -32q-1 -3 -5 -22.5t-6 -42.5q-1 -5 -1 -12q0 -13 3.5 -21.5t11.5 -8.5q11 0 22.5 10.5t22 25.5t19.5 32t16 31q0 -1 0.5 -1.5t0.5 0.5q6 32 16 73t25 77t34.5 61t43.5 25q8 0 13.5 -5.5t9 -14t5 -17.5
t1.5 -16q-2 -20 -11.5 -42t-23 -43.5t-29 -41t-30.5 -34.5q-1 -4 -5.5 -25.5t-6.5 -44.5q-1 -5 -1 -9v-6q0 -14 3 -23.5t13 -9.5q11 0 21.5 9.5t20 24t18.5 32t17 33.5q2 10 3.5 19t5.5 17q12 15 32 15q8 0 16 -4q2 16 6 31.5t11.5 27.5t19.5 19.5t30 7.5q31 0 44 -23.5
t13 -57.5v-17q-2 -21 -9 -45t-16 -43q17 8 29 25.5t23 36.5l7 13l4 2t4 1t4.5 -1.5t4.5 -8.5q-5 -12 -13.5 -27.5t-20 -29.5t-25.5 -24t-31 -12q-16 -23 -37 -38t-44 -15zM966 592q33 18 73.5 61t77.5 100q-17 4 -34 4q-35 0 -65.5 -17t-57.5 -46q-2 -2 -5 -3t-5 -1
q-5 0 -9.5 3.5t-2.5 9.5q11 12 18.5 28.5t5.5 32.5q-4 11 -11.5 16t-13.5 6q-11 0 -21.5 -8.5t-20.5 -22.5t-17 -32t-10 -36q-3 -15 -1 -33t9.5 -34t21 -26.5t32.5 -10.5q10 0 18.5 2.5t18.5 6.5h-1zM1742 768q16 -2 24 -4l4 15q-1 14 -7 28t-19 14q-15 0 -30.5 -17t-28 -40
t-20.5 -46.5t-9 -36.5q-1 -8 1 -15.5t10 -7.5q9 0 18 9t18 21.5t17 26.5t14 24q0 4 3 7q1 2 2 5t-1 10q0 7 4 7zM2421 779q0 -24 6.5 -48t28.5 -30q11 18 18.5 41.5t9.5 47.5v14q0 23 -8.5 40.5t-26.5 17.5q-13 0 -19 -17.5t-8 -39.5v-11q0 -4 -0.5 -7.5t-0.5 -7.5z
M1201 757q11 51 20.5 94t15.5 76q-17 -37 -37 -77.5t-43 -80.5q12 -4 22.5 -6.5t21.5 -5.5zM1902 517q-2 5 -7 11.5t-15 13.5q3 -14 11.5 -26.5t24.5 -10.5h-1q24 4 36 19.5t12 32.5q0 8 -4 14.5t-12 6.5q-4 0 -6 -1q-10 -3 -18 -13.5t-8 -24.5q0 -9 3 -16q7 -7 -4 -12
q-10 -4 -12 6zM2315 954q-9 0 -25 -37.5t-33 -100.5q7 7 16.5 19.5t18.5 28t16.5 32.5t10.5 33q0 6 -1 15.5t-3 9.5zM2176 926q-9 0 -25 -35t-32 -93q7 7 17 19t19 26.5t15.5 31t8.5 32.5q2 6 1 12.5t-4 6.5zM2029 900q4 -6 5 -11.5t1 -10.5q-1 -12 -10 -18.5t-18 -6.5
q-8 0 -14 7t-5 21q1 11 7 21t16 10q9 0 18 -12zM2409 665q17 0 30 13q-23 9 -35.5 24.5t-17.5 35.5v-20q0 -21 4.5 -37t18.5 -16zM1864 821q-2 -8 6 -9q3 8 7.5 21t5.5 24q0 2 2 2q-4 0 -12 -13.5t-9 -24.5zM1120 753h-1v-1zM3062 37q-28 0 -39.5 14t-11.5 40v8
q-17 -24 -37.5 -42.5t-44.5 -18.5t-34 14.5t-11 34.5q-14 -20 -28 -32.5t-28 -12.5q-23 0 -32 11.5t-9 30.5v10q-14 -22 -30.5 -38.5t-39.5 -16.5q-17 0 -24 11t-7 30v6q0 2 0.5 3t0.5 3v4.5t2 8.5q-17 -27 -35.5 -47.5t-40.5 -20.5q-29 0 -40.5 14t-11.5 39v5q1 13 5 32
t8.5 41t10 45.5t10.5 44.5l3 12q-6 -1 -12.5 -1h-12.5q0 -10 -1 -15q-3 -21 -14 -38.5t-26.5 -31t-33 -21t-34.5 -7.5t-33.5 12t-23.5 32q-2 5 -2 10t4 8q7 5 9.5 1t7.5 -10q5 -14 14 -20.5t19 -6.5q18 0 34 22.5t16 57.5h1q-1 25 -11 50.5t-25.5 46t-35.5 33.5t-42 13
q-24 0 -41.5 -11t-29 -29.5t-17 -42t-6.5 -48.5v-15q0 -34 10 -58q13 -29 40.5 -44.5t54.5 -25.5v1q1 0 1 -1t2 -1l12 -5l10 -5t11 -5l7.5 -3t0.5 1q19 -8 33 -22.5t21 -36.5q5 -17 5 -30q0 -20 -7.5 -39t-20.5 -35t-30 -29t-36 -22q-27 -12 -63 -12q-28 0 -55 9t-48 24.5
t-33 36.5t-10 46q0 6 2.5 15.5t6.5 18.5t9.5 15.5t13.5 6.5t5 -12l-4 -6h1q-3 -5 -3 -10q0 -3 3 -13q9 -32 36.5 -47.5t62.5 -15.5q17 0 34 3t31 8q10 5 23.5 12t25 16t19.5 19t8 20q0 7 -2 11q-4 8 -14.5 14.5t-21.5 10.5q-12 3 -27 6t-29 5q-2 0 -4.5 0.5t-3.5 0.5
q-24 4 -48 9.5t-45 15t-37 24t-24 37.5q-3 10 -5 20.5t-2 18.5q0 31 18 81q10 27 26.5 51.5t37.5 44.5t44.5 34t47.5 19q20 5 29 5q27 0 51.5 -12t44.5 -32t34 -45.5t19 -53.5q12 0 20 0.5t15 1.5q3 0 0 0.5t0 0.5q4 16 6.5 30t3.5 19q1 4 0 8.5t-2 9.5q0 1 -0.5 -2t-0.5 -1
q2 11 6 13.5t9 2.5q25 0 32 -14.5t5 -31.5l-2 -16t-3 -16q25 1 44 -5.5t33 -26.5q5 0 11 -2t10 -4q8 -7 11.5 -18t1.5 -23q-1 -14 -4 -27t-6 -22q-6 -17 -14 -44.5t-10 -44.5q0 -12 1 -12q5 0 15 11.5t20.5 28l21 33l17.5 27.5q5 18 9.5 32.5t6.5 30.5h-1q0 1 -0.5 2t-0.5 2
v7q1 17 21 17q16 0 21.5 -11.5t4.5 -25.5q-2 -16 -7 -35t-10 -37q-2 -4 -2 -5l-2 -6q-5 -17 -8.5 -31t-4.5 -22q-1 -5 -0.5 -12t4.5 -7t11 8.5t15.5 21t17 27t16.5 27.5v-1q8 21 20.5 41t28 36.5t33 26.5t36.5 10q8 0 14 -1t12 -6l2 6q6 29 10.5 50.5t5.5 29.5q1 5 0 8.5
t-2 6.5l-1 -1v3q3 15 16 15q25 0 32 -14.5t5 -31.5q-1 -14 -8.5 -46.5t-15.5 -65.5q-1 -6 -2.5 -12.5t-2.5 -12.5q0 -2 -1 -4t-1 -4q-7 -24 -13.5 -54t-6.5 -48v-10q1 -8 8 -8t15.5 5.5t13.5 11.5q13 15 25 37.5t21 39.5l3 6v-1l5 10q3 11 6.5 23.5t8.5 23.5l4 14l-1 -1
q0 1 0.5 2.5t0.5 4.5v4q4 11 18 9q25 -11 25 -26q0 -5 -0.5 -7.5t-1.5 -6.5q0 -5 -2 -9v1q-3 -9 -6.5 -22.5t-7 -28.5t-6.5 -29.5t-4 -26.5q0 -2 -0.5 -3.5t-0.5 -3.5v-5q0 -19 6 -19q5 0 13.5 10t17.5 24t18 30.5t17 30.5q1 11 3 20.5t5 18.5q12 15 32 15q8 0 16 -4
q2 16 6 31.5t11.5 27.5t19.5 19.5t30 7.5q30 0 43.5 -23.5t13.5 -57.5v-9.5t-1 -8.5q-2 -21 -9 -44t-16 -43q17 8 29.5 26t23.5 36l7 13q2 1 3.5 2t3.5 1q5 0 8 -10q-5 -11 -12.5 -26t-18.5 -29t-25.5 -24.5t-31.5 -12.5q-16 -23 -37 -38t-44 -15q-16 0 -27 7t-18.5 18.5
t-11.5 26t-5 29.5q-17 -31 -38 -56t-38 -25q-23 0 -32 16.5t-9 39.5v11q-5 -9 -10.5 -17.5t-10.5 -16.5q-11 -14 -24 -24.5t-33 -12.5zM1811 112q-8 -14 -17.5 -28t-22 -25t-28.5 -18.5t-36 -7.5q-33 0 -46.5 24t-13.5 56v2l-1 -1q-17 -29 -35 -50.5t-38 -21.5
q-23 0 -31.5 12t-8.5 32v1q5 28 13.5 58t17.5 53v1q6 15 11 28t5 16h-1v2q-7 0 -16.5 -11t-20 -26t-20.5 -31.5t-17 -27.5l-4 -6l-4 -8v1q-6 -13 -9 -28t-5 -28v-10q0 -5 1 -10t2 -9q0 -1 0.5 -2t0.5 -3q0 -8 -9 -8q-24 0 -32.5 17t-8.5 36v6q0 1 0.5 2.5t0.5 3.5l2 6
q-11 -17 -22.5 -33t-20.5 -24q-6 -5 -15 -8.5t-18 -3.5q-10 0 -16 6t-9.5 14.5t-4.5 18.5t-1 18q-17 -23 -37.5 -40.5t-43.5 -17.5t-33 12t-12 31q-14 -21 -25 -30q-6 -5 -15 -8.5t-18 -3.5q-17 0 -24 17t-7 40v2q1 9 3 22.5t5 27.5t6.5 27t6.5 22q-4 0 -6.5 0.5t-6.5 0.5
l-5 -13v1l-15 -30l-20 5l21 40q-20 4 -29 19.5t-7 32.5q3 21 17.5 40.5t37.5 19.5q29 0 26 -34q-2 -14 -6.5 -28.5t-8.5 -24.5q0 -3 -1 -4q5 -1 11 -0.5t12 0.5q14 0 22 -3.5t6 -20.5q0 -3 -2 -11l-3 -12q-5 -21 -10.5 -46t-7.5 -39q-2 -19 3 -21q9 6 22.5 25t26.5 41v-1
q7 22 20 46.5t29.5 44t36 32.5t40.5 13q28 0 42.5 -24t13.5 -51q-1 -4 -2 -8.5t-4 -11.5h-7q10 -6 12 -18q1 -8 -0.5 -15.5t-3.5 -15.5q-2 -6 -2 -11q-1 -3 -2 -10t-1.5 -14.5t0.5 -11.5t4 -1v-1q6 6 13.5 17t15.5 24t15.5 26.5t13.5 24.5l3 7v-1l3 11l-1 -1q0 2 0.5 1.5
t0.5 1.5q9 34 11 51h-1q0 2 -0.5 4.5t-0.5 4.5v5q-1 2 -1 5q0 7 5 9.5t10 2.5q24 0 31 -14.5t6 -30.5q-2 -16 -4 -24v-2l4 8q17 25 36 48t43 23q19 0 25 -11.5t4 -28.5t-7.5 -38.5t-13.5 -41.5q0 -2 -1 -3.5t-1 -3.5q-5 -17 -10 -33.5t-7 -26.5q-1 -5 0 -12t4 -7
q4 0 12.5 11t18 26.5t19 32t16.5 27.5l6 11v-1q14 40 39 69t57 29q13 0 24 -6.5t18 -17t10.5 -23.5t2.5 -26q0 -6 -2 -14t-12 -8q-4 0 -9 5l3 17q1 11 -2 21t-9 10q-8 0 -19 -12.5t-21.5 -32t-19 -42.5t-11.5 -44v-9q0 -13 4 -22.5t16 -9.5q11 0 21 6.5t18.5 16t15.5 21
t13 20.5q6 10 11.5 20.5t10.5 19.5l3 6l3 6v-1q2 10 5 19t5 19l3 9l5 14l-1 -1v7q0 2 0.5 2t0.5 2q4 11 18 9q26 -11 26 -26q0 -5 -0.5 -7.5l-1.5 -7.5q0 -4 -2 -8v1q-3 -9 -6.5 -22.5t-7.5 -28.5t-7 -29.5t-4 -26.5q0 -2 -0.5 -3.5t-0.5 -3.5v-5q0 -19 7 -19q4 0 11 8
t15.5 20.5t16.5 27.5t16 29v-1l14 34q-10 14 -16.5 32.5t-6.5 35.5q0 15 5.5 28.5t18.5 24.5v-1q6 6 14 9t16 3q10 0 19 -5.5t9 -19.5q0 -9 -3.5 -20t-8.5 -22q-2 -4 -2 -6l-9 -25q20 -31 36.5 -63t19.5 -53q13 20 22.5 39.5t17.5 33.5q0 1 1 2.5t1 2.5q4 10 12 10t10 -9
l-2 -7q-7 -13 -16.5 -32t-21 -38.5t-24.5 -36.5t-25 -26q-14 -10 -34 -15.5t-38 -5.5q-20 0 -34.5 8t-12.5 25v1q-9 -9 -18 -14.5t-17 -5.5q-23 0 -31.5 16.5t-8.5 39.5q0 2 0.5 4t0.5 4v7zM438 193h1l2 1q2 0 5.5 -0.5t9.5 -5.5q-8 -16 -18 -34t-21 -35t-22.5 -31
t-21.5 -22q-10 -49 -23.5 -96.5t-31.5 -85t-41.5 -59t-52.5 -17.5q-19 2 -29.5 17t-10.5 37q0 2 0.5 8t2.5 14q14 52 49 93.5t75 75.5l11 57q-18 -28 -38 -49.5t-42 -21.5q-17 0 -24.5 11t-7.5 30v5t2 8q1 5 2 10.5t1 13.5q-18 -21 -41 -40.5t-50 -31.5h1
q-11 -6 -26.5 -10.5t-31.5 -4.5q-11 0 -15 1q-17 5 -28.5 20.5t-9.5 39.5q1 23 9 62.5t18 81.5l9 39q6 27 10.5 47t5.5 28q1 5 0 9.5t-2 7.5v4q0 6 4.5 8.5t9.5 2.5q26 0 33 -14.5t5 -31.5q-2 -23 -10 -54.5t-16 -63.5q15 18 32.5 31t36.5 13q25 0 34.5 -15.5t9.5 -37.5v-10
q-2 -21 -12.5 -48t-26.5 -53q36 31 64 72l4 14q5 18 9 34.5t5 26.5q1 3 0 6.5t-2 6.5v2q0 7 4.5 9.5t9.5 2.5q6 0 13 -2t9 -4q10 -7 13.5 -18t2.5 -23q-3 -24 -10 -43q-2 -4 -2 -6q-6 -17 -13.5 -44.5t-9.5 -44.5q0 -12 1 -12q4 0 12 9t17 22t18 28.5t17 27.5l5 7l1 1h1h1
q4 23 6 38.5t2 20.5q2 8 1 13.5t-2 9.5v2q0 7 4.5 9t10.5 2q22 0 31 -9.5t11 -22.5q-2 -15 -3 -29t-3 -29t-5 -32.5t-7 -39.5q14 16 28 41t25 45zM881 92l4 22t3 22q-13 -8 -23 -18t-15 -24q-3 -4 -8.5 -3.5t-5.5 3.5q4 31 19 52t35 31v32q0 1 0.5 2t0.5 2v14q0 2 0.5 4
t0.5 4q0 9 1 18t2 24q-10 -5 -25 -8t-29 -3q-11 0 -21 6t-13 19q0 2 -0.5 1.5t-0.5 1.5v4q0 12 6.5 23t17.5 20t24 15t27 8q-6 0 -4 1h10q30 0 53 -20q29 8 62 15t65 14q21 4 47 10t52 13t50.5 13.5t44.5 12.5q8 3 19 7.5t13 9.5l-1 -1v5q0 2 1 4.5t8 4.5q3 0 8 -6
q4 -7 0.5 -14t-9.5 -13.5t-12.5 -11.5t-10.5 -7q-25 -15 -57 -27t-65.5 -22.5t-67 -19t-61.5 -14.5l-15 -4l-11 -3l-39 -9v-3q0 -3 0.5 -8t0.5 -13q0 -11 -0.5 -28.5t-2.5 -52.5h3l-1 -1q27 5 53.5 13t40.5 24q6 8 9.5 2.5t3.5 -11.5q-2 -15 -11 -25.5t-22.5 -17.5
t-29.5 -11.5t-33 -7.5l-8 -2q-2 -1 -8 -1v-7q-3 -31 -8.5 -64.5t-16 -66t-28 -61t-42.5 -49.5q-17 -12 -40 -20t-46 -8h-13q-53 8 -81.5 47t-28.5 94q1 43 23 81.5t60 53.5q15 4 24 4q29 0 41 -22.5t12 -52.5q0 -13 -0.5 -21t-1.5 -14q-5 -9 -10.5 -8.5t-7.5 2.5q-1 0 -1 2
q-1 1 -1 6v23q0 17 -3.5 31.5t-17.5 15.5q-11 1 -21.5 -8t-19.5 -24t-16 -34t-10 -38v1q-1 -8 -1 -13v-8q0 -18 4.5 -34.5t13 -29t19.5 -20.5t24 -9q25 4 45 22.5t34.5 45t24.5 57t15 59.5zM2701 176q2 4 4 7.5t4 6.5q5 16 8 30t5 23l-1 -1q0 8 -1 11q-2 4 -2 6
q-12 10 -27.5 13t-32.5 3h-5l-13 -52l-6 -23q0 -1 -0.5 -2t-0.5 -2q-2 -8 -5 -21t-6 -28t-5 -30t-2 -27q0 -14 5 -21q5 0 18 8q9 7 17.5 18.5t16.5 24t14.5 25.5t11.5 24v-1zM1349 185q16 -2 24 -4q2 6 2 10q0 1 0.5 2t0.5 2q1 14 -5 28.5t-20 14.5q-15 0 -30 -17t-27.5 -40
t-20.5 -46.5t-9 -36.5q-1 -7 1 -14.5t10 -7.5q9 0 18.5 8.5t18.5 21.5t17 26.5t13 24.5q0 4 3 7q0 2 0.5 3.5t0.5 6.5l1 -1q-1 12 2 12zM3353 196q0 -12 1.5 -24.5t5 -23.5t10.5 -19t18 -11q11 19 18 42t9 47v14q0 23 -8 40.5t-26 17.5q-13 0 -19 -17.5t-8 -39.5v-11
q0 -4 -0.5 -7.5t-0.5 -7.5zM2952 74q9 0 19 10t19.5 23.5t18 28t13.5 24.5v1l15 63l-1 -1q0 1 0.5 2t0.5 2l2 6q-6 3 -10 3q-15 0 -30.5 -17t-28 -40t-20.5 -46t-9 -36q-1 -7 1 -15t10 -8zM136 225q-7 0 -15.5 -7.5t-17 -18.5t-16 -23.5t-13.5 -23.5q-2 -4 -2 -6
q-4 -14 -8.5 -33t-4.5 -33q0 -15 6 -15q3 0 7 2q14 7 27 24.5t23.5 38t17 40.5t7.5 31q1 8 -1 16t-10 8zM206 -137q0 -14 12 -14v-1q13 1 23 17q18 23 31.5 61t23.5 70l6 20l1 2q-39 -31 -66 -75q-3 -5 -8.5 -15t-10.5 -21.5t-8.5 -23t-3.5 -20.5zM1952 169
q-11 -21 -25.5 -47t-29.5 -46q1 1 4 1q5 0 6 -4.5t1 -9.5q-1 -8 6.5 -9.5t15.5 -1.5v-1q23 1 32.5 14.5t11.5 36.5q-1 14 -6.5 32t-15.5 35zM3232 316q4 -5 5 -10.5t1 -10.5q-1 -12 -10 -18.5t-18 -6.5t-15 5.5t-6 17.5q2 12 8.5 23.5t15.5 11.5q10 0 19 -12zM1903 316
q3 -5 4 -10.5t1 -10.5q-2 -12 -10 -18.5t-17 -6.5t-15.5 4t-6.5 12q2 14 9 28t16 14q10 0 19 -12zM500 145q6 -11 5 -23q-2 -11 -10 -16.5t-17 -5.5q-7 0 -13.5 6t-4.5 20q1 11 7 21t15 10t18 -12zM510 225q6 -11 5 -23q-2 -10 -10 -16t-17 -6q-8 0 -14 6t-4 20q1 11 6.5 21
t15.5 10q9 0 18 -12zM3341 83q17 0 30 13q-23 8 -35.5 23.5t-17.5 36.5v-2q0 -3 -0.5 -5.5t-0.5 -4.5v-9q0 -21 5 -36.5t19 -15.5zM890 323q-1 9 -5.5 13t-9.5 4q-11 0 -22 -9t-14 -21q2 0 11.5 2t17.5 4l3 2l7 2l-1 -1q12 3 13 2v2zM1960 243q5 13 11 28.5t4 20.5v-1
q-1 2 -3 3q-5 -3 -9 -16t-4 -26q0 -3 -0.5 -4.5t1.5 -4.5zM1113 238q-2 -6 4 -10q3 7 8 21.5t6 23.5h-1v1q-5 -4 -10.5 -15.5t-6.5 -20.5zM1647 115v-2q-1 -2 -1 1q1 0 1 1z" />
    <glyph glyph-name="guillemotleft" unicode="&#xab;" horiz-adv-x="783" 
d="M392 170q3 -6 5 -15.5t2 -19.5t-2 -18t-7 -11q-2 -1 -13 6t-24 16t-24.5 17.5t-15.5 10.5q-10 4 -29.5 14.5t-45 24.5t-54.5 31t-56.5 34t-51.5 33.5t-39 29.5q-8 3 -13 10t-8.5 16t-5 18t-0.5 16q2 1 2 2t1 2q0 11 7 16q13 20 40.5 51t62 65.5t72 71t72 68t61 55.5
t38.5 35q6 5 19.5 20.5t29 32.5t28.5 30.5t17 13.5q10 0 18 -6.5t13.5 -16t7.5 -20.5t1 -19q-4 -22 -29.5 -55t-62.5 -71.5t-82 -80t-88.5 -80.5t-80.5 -73t-59 -57q36 -21 82 -46.5t89.5 -52t77.5 -52t45 -46.5zM692 170q3 -6 5 -15.5t2 -19.5t-2 -18t-7 -11q-2 -1 -13 6
t-24 16t-24.5 17.5t-15.5 10.5q-10 4 -29.5 14.5t-45 24.5t-54.5 31t-56.5 34t-51.5 33.5t-39 29.5q-8 3 -13 10t-8.5 16t-5 18t-0.5 16q2 1 2 2t1 2q0 11 7 16q13 20 40.5 51t62 65.5t72 71t72 68t61 55.5t38.5 35q6 5 19.5 20.5t29 32.5t28.5 30.5t17 13.5q10 0 18 -6.5
t13.5 -16t7.5 -20.5t1 -19q-4 -22 -29.5 -55t-62.5 -71.5t-82 -80t-88.5 -80.5t-80.5 -73t-59 -57q36 -21 82 -46.5t89.5 -52t77.5 -52t45 -46.5z" />
    <glyph glyph-name="logicalnot" unicode="&#xac;" horiz-adv-x="964" 
d="M754 394q13 63 22 108.5t15.5 77.5t10.5 52t6 31q-29 -5 -56 -6t-43 -1q-123 1 -209.5 1t-143.5 -0.5t-88.5 -0.5h-45.5q-33 2 -69.5 1t-72.5 -8q-17 -2 -29 -8.5t-16 -7.5q-8 -2 -12.5 3.5t-2.5 13.5q3 29 8.5 51t25.5 34q17 15 46 21.5t60 9t60 2.5t47 1q102 1 173.5 2
t120.5 2t82 2t59 1t50 -0.5t56 -1.5q33 6 61 5.5t46 -12.5t24 -38t-5 -71q-17 -72 -29 -123t-19.5 -84.5t-11.5 -52t-6 -26.5q-6 -20 -9.5 -41.5t-0.5 -42.5q-1 -11 4 -18t6 -9q1 -4 -6 -6.5t-15 -2.5q-29 1 -52 4t-34 13q-13 10 -16 26.5t-1.5 35t5 35.5t5.5 28z" />
    <glyph glyph-name="uni00AD" unicode="&#xad;" horiz-adv-x="487" 
d="M425 549q12 2 20 7t11 5q5 2 7 -2.5t1 -11.5q-2 -25 -8 -40.5t-17 -26.5q-12 -12 -30 -18t-37.5 -8.5t-37.5 -2t-30 0.5q-42 2 -80 3.5t-75 3.5q-23 1 -47 2t-47 -4q-11 -2 -19.5 -6.5t-10.5 -5.5q-10 -1 -8 15q3 48 25 67q11 12 29.5 18t38 8.5t37.5 2t30 -0.5
q42 -2 79.5 -3.5t75.5 -3.5h11h16t26 0.5t40 0.5z" />
    <glyph glyph-name="registered" unicode="&#xae;" horiz-adv-x="842" 
d="M492 1056q113 0 186 -33.5t110.5 -88t42.5 -124.5t-17.5 -143.5t-69 -143.5t-112.5 -124.5t-148.5 -88t-176.5 -33.5q-70 0 -120.5 17.5t-85 47t-54 67.5t-28.5 79t-9.5 82t4.5 76q5 38 23 83t47.5 90.5t70.5 88.5t92 75.5t112.5 52.5t132.5 20zM250 666q10 2 19 11
q0 2 0.5 2.5t0.5 1.5q6 6 9 19q10 8 18 9t12 -17q0 -11 -12 -36q-15 -19 -41 -27h1q-15 -6 -31 -6q-36 0 -55.5 23t-23.5 56q-24 -69 -28 -137.5t17 -123t69.5 -88.5t128.5 -34q51 0 100.5 24t94.5 66q-29 8 -50.5 24t-38 37t-28 45t-19.5 48q-15 -42 -40.5 -70t-68.5 -28
q-12 0 -25.5 2.5t-25.5 7.5q-10 11 -10 20t15 14q6 -2 11 -2.5t13 -0.5q13 0 23.5 7.5t19 18.5t14.5 25t11 27q12 44 19.5 96.5t11.5 92.5q0 5 -3 8l-1 11q0 8 5.5 11t13.5 3q31 2 40.5 -11.5t9.5 -31.5q1 -26 -3 -55.5t-9 -61.5q0 -2 0.5 -0.5t-0.5 -0.5q35 5 54 40t19 77
q0 21 -6 40.5t-19 35.5t-33 25.5t-47 9.5q-12 0 -31.5 -3.5t-39.5 -8.5h1q-18 -8 -36 -20.5t-33 -28t-26 -34t-17 -37.5q-1 -5 -1.5 -10t-0.5 -7q0 -23 11 -40.5t32 -17.5h9zM500 1013q-81 0 -149.5 -43.5t-119.5 -110.5q16 13 32 23t33 19q28 14 59.5 22t59.5 8
q26 0 51.5 -6t46.5 -20q32 -22 47 -54.5t15 -68.5q0 -29 -10 -58t-28 -53.5t-42.5 -42t-54.5 -23.5l10 -19q23 -42 50.5 -82t65.5 -57q44 50 77.5 111.5t52 124.5t19.5 122.5t-21 105.5t-69.5 74t-124.5 28z" />
    <glyph glyph-name="degree" unicode="&#xb0;" horiz-adv-x="259" 
d="M149 1099q39 0 60 -11.5t30.5 -29t10 -39t-0.5 -41.5q-2 -21 -11 -46.5t-26.5 -47t-44.5 -36.5t-64 -15q-34 0 -54 13t-30.5 32t-13.5 41t-1 40q1 19 11.5 43.5t29 46t45 36t59.5 14.5zM150 1062q-14 0 -25 -16.5t-18.5 -38t-12 -42t-5.5 -28.5q-1 -7 -1 -18.5t2 -22.5
t7 -19t16 -8q13 0 24 12t19.5 30t14 40t7.5 43q2 29 -4 48.5t-24 19.5z" />
    <glyph glyph-name="plusminus" unicode="&#xb1;" horiz-adv-x="632" 
d="M556 783q15 2 25 6t14 3q9 3 11.5 -1t1.5 -10q-4 -22 -13 -36.5t-23 -25.5q-17 -10 -42 -15t-51 -7t-50 -1.5t-39 0.5h-15l-13 -98q-1 -8 -2 -16.5t-1.5 -23.5t-2 -38t-4.5 -59q2 -17 8 -27t6 -15q2 -8 -5 -11.5t-17 -3.5q-35 -1 -55.5 6.5t-34.5 21.5q-15 16 -21.5 42
t-7 54.5t2 55t4.5 43.5l9 74l-59 3q-31 0 -61.5 2t-65.5 -3q-13 -2 -23.5 -5.5t-14.5 -5.5q-8 -1 -9.5 3t-2.5 9q3 23 13.5 38t24.5 25q16 10 40.5 15t50.5 7t50 1.5t39 -0.5h30l9 67q5 32 8.5 67.5t0.5 69.5q-1 17 -6.5 27.5t-7.5 14.5q0 8 6.5 11.5t17.5 3.5
q34 1 55.5 -6.5t33.5 -21.5q16 -15 22 -41.5t7 -55t-1.5 -55.5t-4.5 -44l-6 -43q11 -1 21.5 -1h21.5q7 0 15 -0.5t21.5 -0.5t35 0.5t54.5 0.5zM468 348q12 2 20 7t11 5q5 2 7 -2.5t1 -11.5q-2 -25 -8 -40.5t-17 -26.5q-12 -12 -30 -18t-37.5 -8.5t-37.5 -2t-30 0.5
q-42 2 -80 3.5t-75 3.5q-23 1 -47 2t-47 -4q-11 -2 -19.5 -6.5t-10.5 -5.5q-10 -1 -8 15q3 48 25 67q11 12 29.5 18t38 8.5t37.5 2t30 -0.5q42 -2 79.5 -3.5t75.5 -3.5h11h16t26 0.5t40 0.5z" />
    <glyph glyph-name="twosuperior" unicode="&#xb2;" horiz-adv-x="3484" 
d="M1550 826h-1q-6 -1 -14.5 -9.5t-17.5 -21t-18 -27.5t-17 -29l-21 -32v1q-5 -14 -8 -26t-4 -23q-2 -16 5 -33q0 -7 -10 -7q-23 0 -32.5 13.5t-9.5 33.5v1q4 30 13.5 60t18.5 53q7 15 11 27.5t4 18.5v2q-7 0 -17.5 -12.5t-22 -29t-21.5 -34t-16 -27.5l-5 -7v1
q-5 -12 -8.5 -28t-4.5 -29q-1 -10 0 -17.5t2 -11.5v1q1 -2 1 -7q0 -6 -10 -6q-24 0 -32 16.5t-8 35.5v2q2 22 5 41t7 33q-14 -9 -28 -13t-31 -6q-4 -20 -5 -43.5t-1 -46.5q0 -27 3.5 -52.5t11.5 -45.5t21.5 -32t34.5 -12q20 0 42 10q12 -5 12 -10q0 -6 -5 -13
q-38 -16 -69 -16q-32 0 -53.5 16t-35 42t-19.5 60t-6 70q0 17 1 36.5t4 39.5l-26 6t-27 8q-26 -41 -56 -77t-62 -64q-21 -18 -45 -32.5t-56 -14.5q-23 0 -44 8.5t-37 24.5t-26 38.5t-10 50.5q0 24 8 49t23 45t36.5 33t48.5 13q28 0 45 -16.5t17 -41.5q0 -7 -2 -17
q25 16 57 26t58 10q8 0 17 -1t17 -3q37 58 65.5 121.5t45.5 125.5q2 6 7 8q5 5 14 5q28 0 37 -16.5t9 -39.5v-15q-4 -35 -13.5 -80t-20.5 -94q-2 -11 -5 -20.5t-5 -20.5q31 1 62 31q3 12 5 22t3 18q1 4 0 7.5t-2 7.5l-1 -1v2q3 15 16 15q25 0 32 -14.5t5 -30.5t-4 -24v-1
l4 6q8 13 16.5 25.5t18.5 23t21 17t24 6.5q18 0 24.5 -12.5t5.5 -27.5l-2 -12t-3 -13q15 23 33.5 43t41.5 20q17 0 23.5 -12t5.5 -29q-2 -17 -8 -38.5t-14 -41.5q-7 -19 -12.5 -37t-6.5 -31q-1 -5 0 -12t4 -7t9 6.5t13 17t14.5 23.5t14.5 25v-1q8 22 21 45.5t29.5 42.5
t35.5 31t40 12q28 0 42.5 -24t13.5 -51q-1 -4 -2 -8.5t-4 -11.5h-7q10 -6 12 -19q1 -8 -1.5 -17.5t-4.5 -19.5q-1 -1 -1 -3q0 -1 -0.5 -1.5t-0.5 -2.5q-1 -5 -1.5 -11.5t-0.5 -12.5t0.5 -9.5t3.5 -1.5v-1q12 13 28 39t27 49l10 20v-1q2 7 4.5 10t4.5 7q-22 3 -30 18.5
t-6 34.5q2 22 17.5 41.5t38.5 19.5q27 0 25 -35q-2 -15 -6 -29t-7 -24q-1 -1 -1 -2v-1h25q1 0 2 0.5t3 0.5q4 0 9 -1t10 -3q10 -3 10 -18q0 -16 -8 -37.5t-15 -35.5q-1 -3 -2.5 -6t-2.5 -6l-3 -9q-11 -30 -21 -61.5t-15 -59.5l2 -2v1q5 -5 7 -6t6 -6q2 15 12 26.5t22 16.5
q7 3 12.5 4t10.5 1q23 0 36 -16t13 -37q0 -22 -18.5 -43t-56.5 -29q-5 -1 -10 -1h-10q-32 0 -55 21t-25 63q-42 11 -92 11q-21 0 -45.5 -2t-49.5 -6q-33 -6 -66.5 -16t-62.5 -25.5t-52 -35.5t-36 -45q0 -1 -0.5 -1.5t-0.5 -1.5q-2 -5 -5 -11t-10 -6t-12 7.5t-7 16.5
q-2 5 -3 11t-1 10q0 26 15.5 49.5t35.5 40.5q16 12 39 21.5t49.5 17t54 12.5t53.5 8q20 2 33.5 2.5t23.5 0.5q38 0 76 -6t69 -20q10 54 23.5 94t27.5 70l7 21q-1 0 -2.5 0.5t-2.5 0.5h-9q-2 -3 -2.5 -7t-2.5 -6l-3 -7q-6 -13 -15 -31t-20 -36.5t-22.5 -35t-21.5 -25.5
q-6 -5 -15 -8t-18 -3q-10 0 -16.5 5.5t-10 14.5t-4.5 19.5t-1 19.5q-16 -24 -36 -42t-45 -18q-23 0 -33.5 12t-12.5 32q-13 -20 -26.5 -32t-28.5 -12q-23 0 -32 11.5t-9 30.5v2q4 29 13.5 59t18.5 53q6 16 11 29t5 17v2zM2387 623q-16 0 -27 7t-18.5 19t-11.5 26.5t-5 29.5
q-9 -16 -18.5 -31t-20 -27t-22 -19t-23.5 -7q-16 0 -26.5 6.5t-17 17.5t-9 25t-2.5 28q-17 -32 -37.5 -54.5t-45.5 -22.5q-15 0 -25 6.5t-16 17t-8.5 23.5t-2.5 26v4q-17 -29 -36.5 -52t-36.5 -23q-23 0 -32 16.5t-9 40.5v4q4 35 12 66.5t17 58.5l4 14l-1 -1q0 1 0.5 2.5
t0.5 4.5v4q4 11 18 9q25 -11 25 -26q0 -5 -0.5 -7.5l-1.5 -7.5q0 -4 -2 -8v1q-3 -9 -6.5 -22.5t-7 -28.5t-6.5 -29.5t-4 -26.5v-13q0 -19 6 -19q5 0 12.5 9t16 23t17.5 29.5t16 29.5v-1l4 8q0 -1 1 -1h1q6 30 16 66t24.5 66.5t32.5 51.5t40 21q8 0 13.5 -5t8.5 -12.5
t4 -15.5t1 -15q-2 -20 -10.5 -40t-21.5 -39.5t-28.5 -37.5t-30.5 -32q-1 -3 -5 -22.5t-6 -42.5q-1 -5 -1 -12q0 -13 3.5 -21.5t11.5 -8.5q11 0 22.5 10.5t22 25.5t19.5 32t16 31q0 -1 0.5 -1.5t0.5 0.5q6 32 16 73t25 77t34.5 61t43.5 25q8 0 13.5 -5.5t9 -14t5 -17.5
t1.5 -16q-2 -20 -11.5 -42t-23 -43.5t-29 -41t-30.5 -34.5q-1 -4 -5.5 -25.5t-6.5 -44.5q-1 -5 -1 -9v-6q0 -14 3 -23.5t13 -9.5q11 0 21.5 9.5t20 24t18.5 32t17 33.5q2 10 3.5 19t5.5 17q12 15 32 15q8 0 16 -4q2 16 6 31.5t11.5 27.5t19.5 19.5t30 7.5q31 0 44 -23.5
t13 -57.5v-17q-2 -21 -9 -45t-16 -43q17 8 29 25.5t23 36.5l7 13l4 2t4 1t4.5 -1.5t4.5 -8.5q-5 -12 -13.5 -27.5t-20 -29.5t-25.5 -24t-31 -12q-16 -23 -37 -38t-44 -15zM966 592q33 18 73.5 61t77.5 100q-17 4 -34 4q-35 0 -65.5 -17t-57.5 -46q-2 -2 -5 -3t-5 -1
q-5 0 -9.5 3.5t-2.5 9.5q11 12 18.5 28.5t5.5 32.5q-4 11 -11.5 16t-13.5 6q-11 0 -21.5 -8.5t-20.5 -22.5t-17 -32t-10 -36q-3 -15 -1 -33t9.5 -34t21 -26.5t32.5 -10.5q10 0 18.5 2.5t18.5 6.5h-1zM1742 768q16 -2 24 -4l4 15q-1 14 -7 28t-19 14q-15 0 -30.5 -17t-28 -40
t-20.5 -46.5t-9 -36.5q-1 -8 1 -15.5t10 -7.5q9 0 18 9t18 21.5t17 26.5t14 24q0 4 3 7q1 2 2 5t-1 10q0 7 4 7zM2421 779q0 -24 6.5 -48t28.5 -30q11 18 18.5 41.5t9.5 47.5v14q0 23 -8.5 40.5t-26.5 17.5q-13 0 -19 -17.5t-8 -39.5v-11q0 -4 -0.5 -7.5t-0.5 -7.5z
M1201 757q11 51 20.5 94t15.5 76q-17 -37 -37 -77.5t-43 -80.5q12 -4 22.5 -6.5t21.5 -5.5zM1902 517q-2 5 -7 11.5t-15 13.5q3 -14 11.5 -26.5t24.5 -10.5h-1q24 4 36 19.5t12 32.5q0 8 -4 14.5t-12 6.5q-4 0 -6 -1q-10 -3 -18 -13.5t-8 -24.5q0 -9 3 -16q7 -7 -4 -12
q-10 -4 -12 6zM2315 954q-9 0 -25 -37.5t-33 -100.5q7 7 16.5 19.5t18.5 28t16.5 32.5t10.5 33q0 6 -1 15.5t-3 9.5zM2176 926q-9 0 -25 -35t-32 -93q7 7 17 19t19 26.5t15.5 31t8.5 32.5q2 6 1 12.5t-4 6.5zM2029 900q4 -6 5 -11.5t1 -10.5q-1 -12 -10 -18.5t-18 -6.5
q-8 0 -14 7t-5 21q1 11 7 21t16 10q9 0 18 -12zM2409 665q17 0 30 13q-23 9 -35.5 24.5t-17.5 35.5v-20q0 -21 4.5 -37t18.5 -16zM1864 821q-2 -8 6 -9q3 8 7.5 21t5.5 24q0 2 2 2q-4 0 -12 -13.5t-9 -24.5zM1120 753h-1v-1zM3062 37q-28 0 -39.5 14t-11.5 40v8
q-17 -24 -37.5 -42.5t-44.5 -18.5t-34 14.5t-11 34.5q-14 -20 -28 -32.5t-28 -12.5q-23 0 -32 11.5t-9 30.5v10q-14 -22 -30.5 -38.5t-39.5 -16.5q-17 0 -24 11t-7 30v6q0 2 0.5 3t0.5 3v4.5t2 8.5q-17 -27 -35.5 -47.5t-40.5 -20.5q-29 0 -40.5 14t-11.5 39v5q1 13 5 32
t8.5 41t10 45.5t10.5 44.5l3 12q-6 -1 -12.5 -1h-12.5q0 -10 -1 -15q-3 -21 -14 -38.5t-26.5 -31t-33 -21t-34.5 -7.5t-33.5 12t-23.5 32q-2 5 -2 10t4 8q7 5 9.5 1t7.5 -10q5 -14 14 -20.5t19 -6.5q18 0 34 22.5t16 57.5h1q-1 25 -11 50.5t-25.5 46t-35.5 33.5t-42 13
q-24 0 -41.5 -11t-29 -29.5t-17 -42t-6.5 -48.5v-15q0 -34 10 -58q13 -29 40.5 -44.5t54.5 -25.5v1q1 0 1 -1t2 -1l12 -5l10 -5t11 -5l7.5 -3t0.5 1q19 -8 33 -22.5t21 -36.5q5 -17 5 -30q0 -20 -7.5 -39t-20.5 -35t-30 -29t-36 -22q-27 -12 -63 -12q-28 0 -55 9t-48 24.5
t-33 36.5t-10 46q0 6 2.5 15.5t6.5 18.5t9.5 15.5t13.5 6.5t5 -12l-4 -6h1q-3 -5 -3 -10q0 -3 3 -13q9 -32 36.5 -47.5t62.5 -15.5q17 0 34 3t31 8q10 5 23.5 12t25 16t19.5 19t8 20q0 7 -2 11q-4 8 -14.5 14.5t-21.5 10.5q-12 3 -27 6t-29 5q-2 0 -4.5 0.5t-3.5 0.5
q-24 4 -48 9.5t-45 15t-37 24t-24 37.5q-3 10 -5 20.5t-2 18.5q0 31 18 81q10 27 26.5 51.5t37.5 44.5t44.5 34t47.5 19q20 5 29 5q27 0 51.5 -12t44.5 -32t34 -45.5t19 -53.5q12 0 20 0.5t15 1.5q3 0 0 0.5t0 0.5q4 16 6.5 30t3.5 19q1 4 0 8.5t-2 9.5q0 1 -0.5 -2t-0.5 -1
q2 11 6 13.5t9 2.5q25 0 32 -14.5t5 -31.5l-2 -16t-3 -16q25 1 44 -5.5t33 -26.5q5 0 11 -2t10 -4q8 -7 11.5 -18t1.5 -23q-1 -14 -4 -27t-6 -22q-6 -17 -14 -44.5t-10 -44.5q0 -12 1 -12q5 0 15 11.5t20.5 28l21 33l17.5 27.5q5 18 9.5 32.5t6.5 30.5h-1q0 1 -0.5 2t-0.5 2
v7q1 17 21 17q16 0 21.5 -11.5t4.5 -25.5q-2 -16 -7 -35t-10 -37q-2 -4 -2 -5l-2 -6q-5 -17 -8.5 -31t-4.5 -22q-1 -5 -0.5 -12t4.5 -7t11 8.5t15.5 21t17 27t16.5 27.5v-1q8 21 20.5 41t28 36.5t33 26.5t36.5 10q8 0 14 -1t12 -6l2 6q6 29 10.5 50.5t5.5 29.5q1 5 0 8.5
t-2 6.5l-1 -1v3q3 15 16 15q25 0 32 -14.5t5 -31.5q-1 -14 -8.5 -46.5t-15.5 -65.5q-1 -6 -2.5 -12.5t-2.5 -12.5q0 -2 -1 -4t-1 -4q-7 -24 -13.5 -54t-6.5 -48v-10q1 -8 8 -8t15.5 5.5t13.5 11.5q13 15 25 37.5t21 39.5l3 6v-1l5 10q3 11 6.5 23.5t8.5 23.5l4 14l-1 -1
q0 1 0.5 2.5t0.5 4.5v4q4 11 18 9q25 -11 25 -26q0 -5 -0.5 -7.5t-1.5 -6.5q0 -5 -2 -9v1q-3 -9 -6.5 -22.5t-7 -28.5t-6.5 -29.5t-4 -26.5q0 -2 -0.5 -3.5t-0.5 -3.5v-5q0 -19 6 -19q5 0 13.5 10t17.5 24t18 30.5t17 30.5q1 11 3 20.5t5 18.5q12 15 32 15q8 0 16 -4
q2 16 6 31.5t11.5 27.5t19.5 19.5t30 7.5q30 0 43.5 -23.5t13.5 -57.5v-9.5t-1 -8.5q-2 -21 -9 -44t-16 -43q17 8 29.5 26t23.5 36l7 13q2 1 3.5 2t3.5 1q5 0 8 -10q-5 -11 -12.5 -26t-18.5 -29t-25.5 -24.5t-31.5 -12.5q-16 -23 -37 -38t-44 -15q-16 0 -27 7t-18.5 18.5
t-11.5 26t-5 29.5q-17 -31 -38 -56t-38 -25q-23 0 -32 16.5t-9 39.5v11q-5 -9 -10.5 -17.5t-10.5 -16.5q-11 -14 -24 -24.5t-33 -12.5zM1811 112q-8 -14 -17.5 -28t-22 -25t-28.5 -18.5t-36 -7.5q-33 0 -46.5 24t-13.5 56v2l-1 -1q-17 -29 -35 -50.5t-38 -21.5
q-23 0 -31.5 12t-8.5 32v1q5 28 13.5 58t17.5 53v1q6 15 11 28t5 16h-1v2q-7 0 -16.5 -11t-20 -26t-20.5 -31.5t-17 -27.5l-4 -6l-4 -8v1q-6 -13 -9 -28t-5 -28v-10q0 -5 1 -10t2 -9q0 -1 0.5 -2t0.5 -3q0 -8 -9 -8q-24 0 -32.5 17t-8.5 36v6q0 1 0.5 2.5t0.5 3.5l2 6
q-11 -17 -22.5 -33t-20.5 -24q-6 -5 -15 -8.5t-18 -3.5q-10 0 -16 6t-9.5 14.5t-4.5 18.5t-1 18q-17 -23 -37.5 -40.5t-43.5 -17.5t-33 12t-12 31q-14 -21 -25 -30q-6 -5 -15 -8.5t-18 -3.5q-17 0 -24 17t-7 40v2q1 9 3 22.5t5 27.5t6.5 27t6.5 22q-4 0 -6.5 0.5t-6.5 0.5
l-5 -13v1l-15 -30l-20 5l21 40q-20 4 -29 19.5t-7 32.5q3 21 17.5 40.5t37.5 19.5q29 0 26 -34q-2 -14 -6.5 -28.5t-8.5 -24.5q0 -3 -1 -4q5 -1 11 -0.5t12 0.5q14 0 22 -3.5t6 -20.5q0 -3 -2 -11l-3 -12q-5 -21 -10.5 -46t-7.5 -39q-2 -19 3 -21q9 6 22.5 25t26.5 41v-1
q7 22 20 46.5t29.5 44t36 32.5t40.5 13q28 0 42.5 -24t13.5 -51q-1 -4 -2 -8.5t-4 -11.5h-7q10 -6 12 -18q1 -8 -0.5 -15.5t-3.5 -15.5q-2 -6 -2 -11q-1 -3 -2 -10t-1.5 -14.5t0.5 -11.5t4 -1v-1q6 6 13.5 17t15.5 24t15.5 26.5t13.5 24.5l3 7v-1l3 11l-1 -1q0 2 0.5 1.5
t0.5 1.5q9 34 11 51h-1q0 2 -0.5 4.5t-0.5 4.5v5q-1 2 -1 5q0 7 5 9.5t10 2.5q24 0 31 -14.5t6 -30.5q-2 -16 -4 -24v-2l4 8q17 25 36 48t43 23q19 0 25 -11.5t4 -28.5t-7.5 -38.5t-13.5 -41.5q0 -2 -1 -3.5t-1 -3.5q-5 -17 -10 -33.5t-7 -26.5q-1 -5 0 -12t4 -7
q4 0 12.5 11t18 26.5t19 32t16.5 27.5l6 11v-1q14 40 39 69t57 29q13 0 24 -6.5t18 -17t10.5 -23.5t2.5 -26q0 -6 -2 -14t-12 -8q-4 0 -9 5l3 17q1 11 -2 21t-9 10q-8 0 -19 -12.5t-21.5 -32t-19 -42.5t-11.5 -44v-9q0 -13 4 -22.5t16 -9.5q11 0 21 6.5t18.5 16t15.5 21
t13 20.5q6 10 11.5 20.5t10.5 19.5l3 6l3 6v-1q2 10 5 19t5 19l3 9l5 14l-1 -1v7q0 2 0.5 2t0.5 2q4 11 18 9q26 -11 26 -26q0 -5 -0.5 -7.5l-1.5 -7.5q0 -4 -2 -8v1q-3 -9 -6.5 -22.5t-7.5 -28.5t-7 -29.5t-4 -26.5q0 -2 -0.5 -3.5t-0.5 -3.5v-5q0 -19 7 -19q4 0 11 8
t15.5 20.5t16.5 27.5t16 29v-1l14 34q-10 14 -16.5 32.5t-6.5 35.5q0 15 5.5 28.5t18.5 24.5v-1q6 6 14 9t16 3q10 0 19 -5.5t9 -19.5q0 -9 -3.5 -20t-8.5 -22q-2 -4 -2 -6l-9 -25q20 -31 36.5 -63t19.5 -53q13 20 22.5 39.5t17.5 33.5q0 1 1 2.5t1 2.5q4 10 12 10t10 -9
l-2 -7q-7 -13 -16.5 -32t-21 -38.5t-24.5 -36.5t-25 -26q-14 -10 -34 -15.5t-38 -5.5q-20 0 -34.5 8t-12.5 25v1q-9 -9 -18 -14.5t-17 -5.5q-23 0 -31.5 16.5t-8.5 39.5q0 2 0.5 4t0.5 4v7zM438 193h1l2 1q2 0 5.5 -0.5t9.5 -5.5q-8 -16 -18 -34t-21 -35t-22.5 -31
t-21.5 -22q-10 -49 -23.5 -96.5t-31.5 -85t-41.5 -59t-52.5 -17.5q-19 2 -29.5 17t-10.5 37q0 2 0.5 8t2.5 14q14 52 49 93.5t75 75.5l11 57q-18 -28 -38 -49.5t-42 -21.5q-17 0 -24.5 11t-7.5 30v5t2 8q1 5 2 10.5t1 13.5q-18 -21 -41 -40.5t-50 -31.5h1
q-11 -6 -26.5 -10.5t-31.5 -4.5q-11 0 -15 1q-17 5 -28.5 20.5t-9.5 39.5q1 23 9 62.5t18 81.5l9 39q6 27 10.5 47t5.5 28q1 5 0 9.5t-2 7.5v4q0 6 4.5 8.5t9.5 2.5q26 0 33 -14.5t5 -31.5q-2 -23 -10 -54.5t-16 -63.5q15 18 32.5 31t36.5 13q25 0 34.5 -15.5t9.5 -37.5v-10
q-2 -21 -12.5 -48t-26.5 -53q36 31 64 72l4 14q5 18 9 34.5t5 26.5q1 3 0 6.5t-2 6.5v2q0 7 4.5 9.5t9.5 2.5q6 0 13 -2t9 -4q10 -7 13.5 -18t2.5 -23q-3 -24 -10 -43q-2 -4 -2 -6q-6 -17 -13.5 -44.5t-9.5 -44.5q0 -12 1 -12q4 0 12 9t17 22t18 28.5t17 27.5l5 7l1 1h1h1
q4 23 6 38.5t2 20.5q2 8 1 13.5t-2 9.5v2q0 7 4.5 9t10.5 2q22 0 31 -9.5t11 -22.5q-2 -15 -3 -29t-3 -29t-5 -32.5t-7 -39.5q14 16 28 41t25 45zM881 92l4 22t3 22q-13 -8 -23 -18t-15 -24q-3 -4 -8.5 -3.5t-5.5 3.5q4 31 19 52t35 31v32q0 1 0.5 2t0.5 2v14q0 2 0.5 4
t0.5 4q0 9 1 18t2 24q-10 -5 -25 -8t-29 -3q-11 0 -21 6t-13 19q0 2 -0.5 1.5t-0.5 1.5v4q0 12 6.5 23t17.5 20t24 15t27 8q-6 0 -4 1h10q30 0 53 -20q29 8 62 15t65 14q21 4 47 10t52 13t50.5 13.5t44.5 12.5q8 3 19 7.5t13 9.5l-1 -1v5q0 2 1 4.5t8 4.5q3 0 8 -6
q4 -7 0.5 -14t-9.5 -13.5t-12.5 -11.5t-10.5 -7q-25 -15 -57 -27t-65.5 -22.5t-67 -19t-61.5 -14.5l-15 -4l-11 -3l-39 -9v-3q0 -3 0.5 -8t0.5 -13q0 -11 -0.5 -28.5t-2.5 -52.5h3l-1 -1q27 5 53.5 13t40.5 24q6 8 9.5 2.5t3.5 -11.5q-2 -15 -11 -25.5t-22.5 -17.5
t-29.5 -11.5t-33 -7.5l-8 -2q-2 -1 -8 -1v-7q-3 -31 -8.5 -64.5t-16 -66t-28 -61t-42.5 -49.5q-17 -12 -40 -20t-46 -8h-13q-53 8 -81.5 47t-28.5 94q1 43 23 81.5t60 53.5q15 4 24 4q29 0 41 -22.5t12 -52.5q0 -13 -0.5 -21t-1.5 -14q-5 -9 -10.5 -8.5t-7.5 2.5q-1 0 -1 2
q-1 1 -1 6v23q0 17 -3.5 31.5t-17.5 15.5q-11 1 -21.5 -8t-19.5 -24t-16 -34t-10 -38v1q-1 -8 -1 -13v-8q0 -18 4.5 -34.5t13 -29t19.5 -20.5t24 -9q25 4 45 22.5t34.5 45t24.5 57t15 59.5zM2701 176q2 4 4 7.5t4 6.5q5 16 8 30t5 23l-1 -1q0 8 -1 11q-2 4 -2 6
q-12 10 -27.5 13t-32.5 3h-5l-13 -52l-6 -23q0 -1 -0.5 -2t-0.5 -2q-2 -8 -5 -21t-6 -28t-5 -30t-2 -27q0 -14 5 -21q5 0 18 8q9 7 17.5 18.5t16.5 24t14.5 25.5t11.5 24v-1zM1349 185q16 -2 24 -4q2 6 2 10q0 1 0.5 2t0.5 2q1 14 -5 28.5t-20 14.5q-15 0 -30 -17t-27.5 -40
t-20.5 -46.5t-9 -36.5q-1 -7 1 -14.5t10 -7.5q9 0 18.5 8.5t18.5 21.5t17 26.5t13 24.5q0 4 3 7q0 2 0.5 3.5t0.5 6.5l1 -1q-1 12 2 12zM3353 196q0 -12 1.5 -24.5t5 -23.5t10.5 -19t18 -11q11 19 18 42t9 47v14q0 23 -8 40.5t-26 17.5q-13 0 -19 -17.5t-8 -39.5v-11
q0 -4 -0.5 -7.5t-0.5 -7.5zM2952 74q9 0 19 10t19.5 23.5t18 28t13.5 24.5v1l15 63l-1 -1q0 1 0.5 2t0.5 2l2 6q-6 3 -10 3q-15 0 -30.5 -17t-28 -40t-20.5 -46t-9 -36q-1 -7 1 -15t10 -8zM136 225q-7 0 -15.5 -7.5t-17 -18.5t-16 -23.5t-13.5 -23.5q-2 -4 -2 -6
q-4 -14 -8.5 -33t-4.5 -33q0 -15 6 -15q3 0 7 2q14 7 27 24.5t23.5 38t17 40.5t7.5 31q1 8 -1 16t-10 8zM206 -137q0 -14 12 -14v-1q13 1 23 17q18 23 31.5 61t23.5 70l6 20l1 2q-39 -31 -66 -75q-3 -5 -8.5 -15t-10.5 -21.5t-8.5 -23t-3.5 -20.5zM1952 169
q-11 -21 -25.5 -47t-29.5 -46q1 1 4 1q5 0 6 -4.5t1 -9.5q-1 -8 6.5 -9.5t15.5 -1.5v-1q23 1 32.5 14.5t11.5 36.5q-1 14 -6.5 32t-15.5 35zM3232 316q4 -5 5 -10.5t1 -10.5q-1 -12 -10 -18.5t-18 -6.5t-15 5.5t-6 17.5q2 12 8.5 23.5t15.5 11.5q10 0 19 -12zM1903 316
q3 -5 4 -10.5t1 -10.5q-2 -12 -10 -18.5t-17 -6.5t-15.5 4t-6.5 12q2 14 9 28t16 14q10 0 19 -12zM500 145q6 -11 5 -23q-2 -11 -10 -16.5t-17 -5.5q-7 0 -13.5 6t-4.5 20q1 11 7 21t15 10t18 -12zM510 225q6 -11 5 -23q-2 -10 -10 -16t-17 -6q-8 0 -14 6t-4 20q1 11 6.5 21
t15.5 10q9 0 18 -12zM3341 83q17 0 30 13q-23 8 -35.5 23.5t-17.5 36.5v-2q0 -3 -0.5 -5.5t-0.5 -4.5v-9q0 -21 5 -36.5t19 -15.5zM890 323q-1 9 -5.5 13t-9.5 4q-11 0 -22 -9t-14 -21q2 0 11.5 2t17.5 4l3 2l7 2l-1 -1q12 3 13 2v2zM1960 243q5 13 11 28.5t4 20.5v-1
q-1 2 -3 3q-5 -3 -9 -16t-4 -26q0 -3 -0.5 -4.5t1.5 -4.5zM1113 238q-2 -6 4 -10q3 7 8 21.5t6 23.5h-1v1q-5 -4 -10.5 -15.5t-6.5 -20.5zM1647 115v-2q-1 -2 -1 1q1 0 1 1z" />
    <glyph glyph-name="threesuperior" unicode="&#xb3;" horiz-adv-x="3484" 
d="M1550 826h-1q-6 -1 -14.5 -9.5t-17.5 -21t-18 -27.5t-17 -29l-21 -32v1q-5 -14 -8 -26t-4 -23q-2 -16 5 -33q0 -7 -10 -7q-23 0 -32.5 13.5t-9.5 33.5v1q4 30 13.5 60t18.5 53q7 15 11 27.5t4 18.5v2q-7 0 -17.5 -12.5t-22 -29t-21.5 -34t-16 -27.5l-5 -7v1
q-5 -12 -8.5 -28t-4.5 -29q-1 -10 0 -17.5t2 -11.5v1q1 -2 1 -7q0 -6 -10 -6q-24 0 -32 16.5t-8 35.5v2q2 22 5 41t7 33q-14 -9 -28 -13t-31 -6q-4 -20 -5 -43.5t-1 -46.5q0 -27 3.5 -52.5t11.5 -45.5t21.5 -32t34.5 -12q20 0 42 10q12 -5 12 -10q0 -6 -5 -13
q-38 -16 -69 -16q-32 0 -53.5 16t-35 42t-19.5 60t-6 70q0 17 1 36.5t4 39.5l-26 6t-27 8q-26 -41 -56 -77t-62 -64q-21 -18 -45 -32.5t-56 -14.5q-23 0 -44 8.5t-37 24.5t-26 38.5t-10 50.5q0 24 8 49t23 45t36.5 33t48.5 13q28 0 45 -16.5t17 -41.5q0 -7 -2 -17
q25 16 57 26t58 10q8 0 17 -1t17 -3q37 58 65.5 121.5t45.5 125.5q2 6 7 8q5 5 14 5q28 0 37 -16.5t9 -39.5v-15q-4 -35 -13.5 -80t-20.5 -94q-2 -11 -5 -20.5t-5 -20.5q31 1 62 31q3 12 5 22t3 18q1 4 0 7.5t-2 7.5l-1 -1v2q3 15 16 15q25 0 32 -14.5t5 -30.5t-4 -24v-1
l4 6q8 13 16.5 25.5t18.5 23t21 17t24 6.5q18 0 24.5 -12.5t5.5 -27.5l-2 -12t-3 -13q15 23 33.5 43t41.5 20q17 0 23.5 -12t5.5 -29q-2 -17 -8 -38.5t-14 -41.5q-7 -19 -12.5 -37t-6.5 -31q-1 -5 0 -12t4 -7t9 6.5t13 17t14.5 23.5t14.5 25v-1q8 22 21 45.5t29.5 42.5
t35.5 31t40 12q28 0 42.5 -24t13.5 -51q-1 -4 -2 -8.5t-4 -11.5h-7q10 -6 12 -19q1 -8 -1.5 -17.5t-4.5 -19.5q-1 -1 -1 -3q0 -1 -0.5 -1.5t-0.5 -2.5q-1 -5 -1.5 -11.5t-0.5 -12.5t0.5 -9.5t3.5 -1.5v-1q12 13 28 39t27 49l10 20v-1q2 7 4.5 10t4.5 7q-22 3 -30 18.5
t-6 34.5q2 22 17.5 41.5t38.5 19.5q27 0 25 -35q-2 -15 -6 -29t-7 -24q-1 -1 -1 -2v-1h25q1 0 2 0.5t3 0.5q4 0 9 -1t10 -3q10 -3 10 -18q0 -16 -8 -37.5t-15 -35.5q-1 -3 -2.5 -6t-2.5 -6l-3 -9q-11 -30 -21 -61.5t-15 -59.5l2 -2v1q5 -5 7 -6t6 -6q2 15 12 26.5t22 16.5
q7 3 12.5 4t10.5 1q23 0 36 -16t13 -37q0 -22 -18.5 -43t-56.5 -29q-5 -1 -10 -1h-10q-32 0 -55 21t-25 63q-42 11 -92 11q-21 0 -45.5 -2t-49.5 -6q-33 -6 -66.5 -16t-62.5 -25.5t-52 -35.5t-36 -45q0 -1 -0.5 -1.5t-0.5 -1.5q-2 -5 -5 -11t-10 -6t-12 7.5t-7 16.5
q-2 5 -3 11t-1 10q0 26 15.5 49.5t35.5 40.5q16 12 39 21.5t49.5 17t54 12.5t53.5 8q20 2 33.5 2.5t23.5 0.5q38 0 76 -6t69 -20q10 54 23.5 94t27.5 70l7 21q-1 0 -2.5 0.5t-2.5 0.5h-9q-2 -3 -2.5 -7t-2.5 -6l-3 -7q-6 -13 -15 -31t-20 -36.5t-22.5 -35t-21.5 -25.5
q-6 -5 -15 -8t-18 -3q-10 0 -16.5 5.5t-10 14.5t-4.5 19.5t-1 19.5q-16 -24 -36 -42t-45 -18q-23 0 -33.5 12t-12.5 32q-13 -20 -26.5 -32t-28.5 -12q-23 0 -32 11.5t-9 30.5v2q4 29 13.5 59t18.5 53q6 16 11 29t5 17v2zM2387 623q-16 0 -27 7t-18.5 19t-11.5 26.5t-5 29.5
q-9 -16 -18.5 -31t-20 -27t-22 -19t-23.5 -7q-16 0 -26.5 6.5t-17 17.5t-9 25t-2.5 28q-17 -32 -37.5 -54.5t-45.5 -22.5q-15 0 -25 6.5t-16 17t-8.5 23.5t-2.5 26v4q-17 -29 -36.5 -52t-36.5 -23q-23 0 -32 16.5t-9 40.5v4q4 35 12 66.5t17 58.5l4 14l-1 -1q0 1 0.5 2.5
t0.5 4.5v4q4 11 18 9q25 -11 25 -26q0 -5 -0.5 -7.5l-1.5 -7.5q0 -4 -2 -8v1q-3 -9 -6.5 -22.5t-7 -28.5t-6.5 -29.5t-4 -26.5v-13q0 -19 6 -19q5 0 12.5 9t16 23t17.5 29.5t16 29.5v-1l4 8q0 -1 1 -1h1q6 30 16 66t24.5 66.5t32.5 51.5t40 21q8 0 13.5 -5t8.5 -12.5
t4 -15.5t1 -15q-2 -20 -10.5 -40t-21.5 -39.5t-28.5 -37.5t-30.5 -32q-1 -3 -5 -22.5t-6 -42.5q-1 -5 -1 -12q0 -13 3.5 -21.5t11.5 -8.5q11 0 22.5 10.5t22 25.5t19.5 32t16 31q0 -1 0.5 -1.5t0.5 0.5q6 32 16 73t25 77t34.5 61t43.5 25q8 0 13.5 -5.5t9 -14t5 -17.5
t1.5 -16q-2 -20 -11.5 -42t-23 -43.5t-29 -41t-30.5 -34.5q-1 -4 -5.5 -25.5t-6.5 -44.5q-1 -5 -1 -9v-6q0 -14 3 -23.5t13 -9.5q11 0 21.5 9.5t20 24t18.5 32t17 33.5q2 10 3.5 19t5.5 17q12 15 32 15q8 0 16 -4q2 16 6 31.5t11.5 27.5t19.5 19.5t30 7.5q31 0 44 -23.5
t13 -57.5v-17q-2 -21 -9 -45t-16 -43q17 8 29 25.5t23 36.5l7 13l4 2t4 1t4.5 -1.5t4.5 -8.5q-5 -12 -13.5 -27.5t-20 -29.5t-25.5 -24t-31 -12q-16 -23 -37 -38t-44 -15zM966 592q33 18 73.5 61t77.5 100q-17 4 -34 4q-35 0 -65.5 -17t-57.5 -46q-2 -2 -5 -3t-5 -1
q-5 0 -9.5 3.5t-2.5 9.5q11 12 18.5 28.5t5.5 32.5q-4 11 -11.5 16t-13.5 6q-11 0 -21.5 -8.5t-20.5 -22.5t-17 -32t-10 -36q-3 -15 -1 -33t9.5 -34t21 -26.5t32.5 -10.5q10 0 18.5 2.5t18.5 6.5h-1zM1742 768q16 -2 24 -4l4 15q-1 14 -7 28t-19 14q-15 0 -30.5 -17t-28 -40
t-20.5 -46.5t-9 -36.5q-1 -8 1 -15.5t10 -7.5q9 0 18 9t18 21.5t17 26.5t14 24q0 4 3 7q1 2 2 5t-1 10q0 7 4 7zM2421 779q0 -24 6.5 -48t28.5 -30q11 18 18.5 41.5t9.5 47.5v14q0 23 -8.5 40.5t-26.5 17.5q-13 0 -19 -17.5t-8 -39.5v-11q0 -4 -0.5 -7.5t-0.5 -7.5z
M1201 757q11 51 20.5 94t15.5 76q-17 -37 -37 -77.5t-43 -80.5q12 -4 22.5 -6.5t21.5 -5.5zM1902 517q-2 5 -7 11.5t-15 13.5q3 -14 11.5 -26.5t24.5 -10.5h-1q24 4 36 19.5t12 32.5q0 8 -4 14.5t-12 6.5q-4 0 -6 -1q-10 -3 -18 -13.5t-8 -24.5q0 -9 3 -16q7 -7 -4 -12
q-10 -4 -12 6zM2315 954q-9 0 -25 -37.5t-33 -100.5q7 7 16.5 19.5t18.5 28t16.5 32.5t10.5 33q0 6 -1 15.5t-3 9.5zM2176 926q-9 0 -25 -35t-32 -93q7 7 17 19t19 26.5t15.5 31t8.5 32.5q2 6 1 12.5t-4 6.5zM2029 900q4 -6 5 -11.5t1 -10.5q-1 -12 -10 -18.5t-18 -6.5
q-8 0 -14 7t-5 21q1 11 7 21t16 10q9 0 18 -12zM2409 665q17 0 30 13q-23 9 -35.5 24.5t-17.5 35.5v-20q0 -21 4.5 -37t18.5 -16zM1864 821q-2 -8 6 -9q3 8 7.5 21t5.5 24q0 2 2 2q-4 0 -12 -13.5t-9 -24.5zM1120 753h-1v-1zM3062 37q-28 0 -39.5 14t-11.5 40v8
q-17 -24 -37.5 -42.5t-44.5 -18.5t-34 14.5t-11 34.5q-14 -20 -28 -32.5t-28 -12.5q-23 0 -32 11.5t-9 30.5v10q-14 -22 -30.5 -38.5t-39.5 -16.5q-17 0 -24 11t-7 30v6q0 2 0.5 3t0.5 3v4.5t2 8.5q-17 -27 -35.5 -47.5t-40.5 -20.5q-29 0 -40.5 14t-11.5 39v5q1 13 5 32
t8.5 41t10 45.5t10.5 44.5l3 12q-6 -1 -12.5 -1h-12.5q0 -10 -1 -15q-3 -21 -14 -38.5t-26.5 -31t-33 -21t-34.5 -7.5t-33.5 12t-23.5 32q-2 5 -2 10t4 8q7 5 9.5 1t7.5 -10q5 -14 14 -20.5t19 -6.5q18 0 34 22.5t16 57.5h1q-1 25 -11 50.5t-25.5 46t-35.5 33.5t-42 13
q-24 0 -41.5 -11t-29 -29.5t-17 -42t-6.5 -48.5v-15q0 -34 10 -58q13 -29 40.5 -44.5t54.5 -25.5v1q1 0 1 -1t2 -1l12 -5l10 -5t11 -5l7.5 -3t0.5 1q19 -8 33 -22.5t21 -36.5q5 -17 5 -30q0 -20 -7.5 -39t-20.5 -35t-30 -29t-36 -22q-27 -12 -63 -12q-28 0 -55 9t-48 24.5
t-33 36.5t-10 46q0 6 2.5 15.5t6.5 18.5t9.5 15.5t13.5 6.5t5 -12l-4 -6h1q-3 -5 -3 -10q0 -3 3 -13q9 -32 36.5 -47.5t62.5 -15.5q17 0 34 3t31 8q10 5 23.5 12t25 16t19.5 19t8 20q0 7 -2 11q-4 8 -14.5 14.5t-21.5 10.5q-12 3 -27 6t-29 5q-2 0 -4.5 0.5t-3.5 0.5
q-24 4 -48 9.5t-45 15t-37 24t-24 37.5q-3 10 -5 20.5t-2 18.5q0 31 18 81q10 27 26.5 51.5t37.5 44.5t44.5 34t47.5 19q20 5 29 5q27 0 51.5 -12t44.5 -32t34 -45.5t19 -53.5q12 0 20 0.5t15 1.5q3 0 0 0.5t0 0.5q4 16 6.5 30t3.5 19q1 4 0 8.5t-2 9.5q0 1 -0.5 -2t-0.5 -1
q2 11 6 13.5t9 2.5q25 0 32 -14.5t5 -31.5l-2 -16t-3 -16q25 1 44 -5.5t33 -26.5q5 0 11 -2t10 -4q8 -7 11.5 -18t1.5 -23q-1 -14 -4 -27t-6 -22q-6 -17 -14 -44.5t-10 -44.5q0 -12 1 -12q5 0 15 11.5t20.5 28l21 33l17.5 27.5q5 18 9.5 32.5t6.5 30.5h-1q0 1 -0.5 2t-0.5 2
v7q1 17 21 17q16 0 21.5 -11.5t4.5 -25.5q-2 -16 -7 -35t-10 -37q-2 -4 -2 -5l-2 -6q-5 -17 -8.5 -31t-4.5 -22q-1 -5 -0.5 -12t4.5 -7t11 8.5t15.5 21t17 27t16.5 27.5v-1q8 21 20.5 41t28 36.5t33 26.5t36.5 10q8 0 14 -1t12 -6l2 6q6 29 10.5 50.5t5.5 29.5q1 5 0 8.5
t-2 6.5l-1 -1v3q3 15 16 15q25 0 32 -14.5t5 -31.5q-1 -14 -8.5 -46.5t-15.5 -65.5q-1 -6 -2.5 -12.5t-2.5 -12.5q0 -2 -1 -4t-1 -4q-7 -24 -13.5 -54t-6.5 -48v-10q1 -8 8 -8t15.5 5.5t13.5 11.5q13 15 25 37.5t21 39.5l3 6v-1l5 10q3 11 6.5 23.5t8.5 23.5l4 14l-1 -1
q0 1 0.5 2.5t0.5 4.5v4q4 11 18 9q25 -11 25 -26q0 -5 -0.5 -7.5t-1.5 -6.5q0 -5 -2 -9v1q-3 -9 -6.5 -22.5t-7 -28.5t-6.5 -29.5t-4 -26.5q0 -2 -0.5 -3.5t-0.5 -3.5v-5q0 -19 6 -19q5 0 13.5 10t17.5 24t18 30.5t17 30.5q1 11 3 20.5t5 18.5q12 15 32 15q8 0 16 -4
q2 16 6 31.5t11.5 27.5t19.5 19.5t30 7.5q30 0 43.5 -23.5t13.5 -57.5v-9.5t-1 -8.5q-2 -21 -9 -44t-16 -43q17 8 29.5 26t23.5 36l7 13q2 1 3.5 2t3.5 1q5 0 8 -10q-5 -11 -12.5 -26t-18.5 -29t-25.5 -24.5t-31.5 -12.5q-16 -23 -37 -38t-44 -15q-16 0 -27 7t-18.5 18.5
t-11.5 26t-5 29.5q-17 -31 -38 -56t-38 -25q-23 0 -32 16.5t-9 39.5v11q-5 -9 -10.5 -17.5t-10.5 -16.5q-11 -14 -24 -24.5t-33 -12.5zM1811 112q-8 -14 -17.5 -28t-22 -25t-28.5 -18.5t-36 -7.5q-33 0 -46.5 24t-13.5 56v2l-1 -1q-17 -29 -35 -50.5t-38 -21.5
q-23 0 -31.5 12t-8.5 32v1q5 28 13.5 58t17.5 53v1q6 15 11 28t5 16h-1v2q-7 0 -16.5 -11t-20 -26t-20.5 -31.5t-17 -27.5l-4 -6l-4 -8v1q-6 -13 -9 -28t-5 -28v-10q0 -5 1 -10t2 -9q0 -1 0.5 -2t0.5 -3q0 -8 -9 -8q-24 0 -32.5 17t-8.5 36v6q0 1 0.5 2.5t0.5 3.5l2 6
q-11 -17 -22.5 -33t-20.5 -24q-6 -5 -15 -8.5t-18 -3.5q-10 0 -16 6t-9.5 14.5t-4.5 18.5t-1 18q-17 -23 -37.5 -40.5t-43.5 -17.5t-33 12t-12 31q-14 -21 -25 -30q-6 -5 -15 -8.5t-18 -3.5q-17 0 -24 17t-7 40v2q1 9 3 22.5t5 27.5t6.5 27t6.5 22q-4 0 -6.5 0.5t-6.5 0.5
l-5 -13v1l-15 -30l-20 5l21 40q-20 4 -29 19.5t-7 32.5q3 21 17.5 40.5t37.5 19.5q29 0 26 -34q-2 -14 -6.5 -28.5t-8.5 -24.5q0 -3 -1 -4q5 -1 11 -0.5t12 0.5q14 0 22 -3.5t6 -20.5q0 -3 -2 -11l-3 -12q-5 -21 -10.5 -46t-7.5 -39q-2 -19 3 -21q9 6 22.5 25t26.5 41v-1
q7 22 20 46.5t29.5 44t36 32.5t40.5 13q28 0 42.5 -24t13.5 -51q-1 -4 -2 -8.5t-4 -11.5h-7q10 -6 12 -18q1 -8 -0.5 -15.5t-3.5 -15.5q-2 -6 -2 -11q-1 -3 -2 -10t-1.5 -14.5t0.5 -11.5t4 -1v-1q6 6 13.5 17t15.5 24t15.5 26.5t13.5 24.5l3 7v-1l3 11l-1 -1q0 2 0.5 1.5
t0.5 1.5q9 34 11 51h-1q0 2 -0.5 4.5t-0.5 4.5v5q-1 2 -1 5q0 7 5 9.5t10 2.5q24 0 31 -14.5t6 -30.5q-2 -16 -4 -24v-2l4 8q17 25 36 48t43 23q19 0 25 -11.5t4 -28.5t-7.5 -38.5t-13.5 -41.5q0 -2 -1 -3.5t-1 -3.5q-5 -17 -10 -33.5t-7 -26.5q-1 -5 0 -12t4 -7
q4 0 12.5 11t18 26.5t19 32t16.5 27.5l6 11v-1q14 40 39 69t57 29q13 0 24 -6.5t18 -17t10.5 -23.5t2.5 -26q0 -6 -2 -14t-12 -8q-4 0 -9 5l3 17q1 11 -2 21t-9 10q-8 0 -19 -12.5t-21.5 -32t-19 -42.5t-11.5 -44v-9q0 -13 4 -22.5t16 -9.5q11 0 21 6.5t18.5 16t15.5 21
t13 20.5q6 10 11.5 20.5t10.5 19.5l3 6l3 6v-1q2 10 5 19t5 19l3 9l5 14l-1 -1v7q0 2 0.5 2t0.5 2q4 11 18 9q26 -11 26 -26q0 -5 -0.5 -7.5l-1.5 -7.5q0 -4 -2 -8v1q-3 -9 -6.5 -22.5t-7.5 -28.5t-7 -29.5t-4 -26.5q0 -2 -0.5 -3.5t-0.5 -3.5v-5q0 -19 7 -19q4 0 11 8
t15.5 20.5t16.5 27.5t16 29v-1l14 34q-10 14 -16.5 32.5t-6.5 35.5q0 15 5.5 28.5t18.5 24.5v-1q6 6 14 9t16 3q10 0 19 -5.5t9 -19.5q0 -9 -3.5 -20t-8.5 -22q-2 -4 -2 -6l-9 -25q20 -31 36.5 -63t19.5 -53q13 20 22.5 39.5t17.5 33.5q0 1 1 2.5t1 2.5q4 10 12 10t10 -9
l-2 -7q-7 -13 -16.5 -32t-21 -38.5t-24.5 -36.5t-25 -26q-14 -10 -34 -15.5t-38 -5.5q-20 0 -34.5 8t-12.5 25v1q-9 -9 -18 -14.5t-17 -5.5q-23 0 -31.5 16.5t-8.5 39.5q0 2 0.5 4t0.5 4v7zM438 193h1l2 1q2 0 5.5 -0.5t9.5 -5.5q-8 -16 -18 -34t-21 -35t-22.5 -31
t-21.5 -22q-10 -49 -23.5 -96.5t-31.5 -85t-41.5 -59t-52.5 -17.5q-19 2 -29.5 17t-10.5 37q0 2 0.5 8t2.5 14q14 52 49 93.5t75 75.5l11 57q-18 -28 -38 -49.5t-42 -21.5q-17 0 -24.5 11t-7.5 30v5t2 8q1 5 2 10.5t1 13.5q-18 -21 -41 -40.5t-50 -31.5h1
q-11 -6 -26.5 -10.5t-31.5 -4.5q-11 0 -15 1q-17 5 -28.5 20.5t-9.5 39.5q1 23 9 62.5t18 81.5l9 39q6 27 10.5 47t5.5 28q1 5 0 9.5t-2 7.5v4q0 6 4.5 8.5t9.5 2.5q26 0 33 -14.5t5 -31.5q-2 -23 -10 -54.5t-16 -63.5q15 18 32.5 31t36.5 13q25 0 34.5 -15.5t9.5 -37.5v-10
q-2 -21 -12.5 -48t-26.5 -53q36 31 64 72l4 14q5 18 9 34.5t5 26.5q1 3 0 6.5t-2 6.5v2q0 7 4.5 9.5t9.5 2.5q6 0 13 -2t9 -4q10 -7 13.5 -18t2.5 -23q-3 -24 -10 -43q-2 -4 -2 -6q-6 -17 -13.5 -44.5t-9.5 -44.5q0 -12 1 -12q4 0 12 9t17 22t18 28.5t17 27.5l5 7l1 1h1h1
q4 23 6 38.5t2 20.5q2 8 1 13.5t-2 9.5v2q0 7 4.5 9t10.5 2q22 0 31 -9.5t11 -22.5q-2 -15 -3 -29t-3 -29t-5 -32.5t-7 -39.5q14 16 28 41t25 45zM881 92l4 22t3 22q-13 -8 -23 -18t-15 -24q-3 -4 -8.5 -3.5t-5.5 3.5q4 31 19 52t35 31v32q0 1 0.5 2t0.5 2v14q0 2 0.5 4
t0.5 4q0 9 1 18t2 24q-10 -5 -25 -8t-29 -3q-11 0 -21 6t-13 19q0 2 -0.5 1.5t-0.5 1.5v4q0 12 6.5 23t17.5 20t24 15t27 8q-6 0 -4 1h10q30 0 53 -20q29 8 62 15t65 14q21 4 47 10t52 13t50.5 13.5t44.5 12.5q8 3 19 7.5t13 9.5l-1 -1v5q0 2 1 4.5t8 4.5q3 0 8 -6
q4 -7 0.5 -14t-9.5 -13.5t-12.5 -11.5t-10.5 -7q-25 -15 -57 -27t-65.5 -22.5t-67 -19t-61.5 -14.5l-15 -4l-11 -3l-39 -9v-3q0 -3 0.5 -8t0.5 -13q0 -11 -0.5 -28.5t-2.5 -52.5h3l-1 -1q27 5 53.5 13t40.5 24q6 8 9.5 2.5t3.5 -11.5q-2 -15 -11 -25.5t-22.5 -17.5
t-29.5 -11.5t-33 -7.5l-8 -2q-2 -1 -8 -1v-7q-3 -31 -8.5 -64.5t-16 -66t-28 -61t-42.5 -49.5q-17 -12 -40 -20t-46 -8h-13q-53 8 -81.5 47t-28.5 94q1 43 23 81.5t60 53.5q15 4 24 4q29 0 41 -22.5t12 -52.5q0 -13 -0.5 -21t-1.5 -14q-5 -9 -10.5 -8.5t-7.5 2.5q-1 0 -1 2
q-1 1 -1 6v23q0 17 -3.5 31.5t-17.5 15.5q-11 1 -21.5 -8t-19.5 -24t-16 -34t-10 -38v1q-1 -8 -1 -13v-8q0 -18 4.5 -34.5t13 -29t19.5 -20.5t24 -9q25 4 45 22.5t34.5 45t24.5 57t15 59.5zM2701 176q2 4 4 7.5t4 6.5q5 16 8 30t5 23l-1 -1q0 8 -1 11q-2 4 -2 6
q-12 10 -27.5 13t-32.5 3h-5l-13 -52l-6 -23q0 -1 -0.5 -2t-0.5 -2q-2 -8 -5 -21t-6 -28t-5 -30t-2 -27q0 -14 5 -21q5 0 18 8q9 7 17.5 18.5t16.5 24t14.5 25.5t11.5 24v-1zM1349 185q16 -2 24 -4q2 6 2 10q0 1 0.5 2t0.5 2q1 14 -5 28.5t-20 14.5q-15 0 -30 -17t-27.5 -40
t-20.5 -46.5t-9 -36.5q-1 -7 1 -14.5t10 -7.5q9 0 18.5 8.5t18.5 21.5t17 26.5t13 24.5q0 4 3 7q0 2 0.5 3.5t0.5 6.5l1 -1q-1 12 2 12zM3353 196q0 -12 1.5 -24.5t5 -23.5t10.5 -19t18 -11q11 19 18 42t9 47v14q0 23 -8 40.5t-26 17.5q-13 0 -19 -17.5t-8 -39.5v-11
q0 -4 -0.5 -7.5t-0.5 -7.5zM2952 74q9 0 19 10t19.5 23.5t18 28t13.5 24.5v1l15 63l-1 -1q0 1 0.5 2t0.5 2l2 6q-6 3 -10 3q-15 0 -30.5 -17t-28 -40t-20.5 -46t-9 -36q-1 -7 1 -15t10 -8zM136 225q-7 0 -15.5 -7.5t-17 -18.5t-16 -23.5t-13.5 -23.5q-2 -4 -2 -6
q-4 -14 -8.5 -33t-4.5 -33q0 -15 6 -15q3 0 7 2q14 7 27 24.5t23.5 38t17 40.5t7.5 31q1 8 -1 16t-10 8zM206 -137q0 -14 12 -14v-1q13 1 23 17q18 23 31.5 61t23.5 70l6 20l1 2q-39 -31 -66 -75q-3 -5 -8.5 -15t-10.5 -21.5t-8.5 -23t-3.5 -20.5zM1952 169
q-11 -21 -25.5 -47t-29.5 -46q1 1 4 1q5 0 6 -4.5t1 -9.5q-1 -8 6.5 -9.5t15.5 -1.5v-1q23 1 32.5 14.5t11.5 36.5q-1 14 -6.5 32t-15.5 35zM3232 316q4 -5 5 -10.5t1 -10.5q-1 -12 -10 -18.5t-18 -6.5t-15 5.5t-6 17.5q2 12 8.5 23.5t15.5 11.5q10 0 19 -12zM1903 316
q3 -5 4 -10.5t1 -10.5q-2 -12 -10 -18.5t-17 -6.5t-15.5 4t-6.5 12q2 14 9 28t16 14q10 0 19 -12zM500 145q6 -11 5 -23q-2 -11 -10 -16.5t-17 -5.5q-7 0 -13.5 6t-4.5 20q1 11 7 21t15 10t18 -12zM510 225q6 -11 5 -23q-2 -10 -10 -16t-17 -6q-8 0 -14 6t-4 20q1 11 6.5 21
t15.5 10q9 0 18 -12zM3341 83q17 0 30 13q-23 8 -35.5 23.5t-17.5 36.5v-2q0 -3 -0.5 -5.5t-0.5 -4.5v-9q0 -21 5 -36.5t19 -15.5zM890 323q-1 9 -5.5 13t-9.5 4q-11 0 -22 -9t-14 -21q2 0 11.5 2t17.5 4l3 2l7 2l-1 -1q12 3 13 2v2zM1960 243q5 13 11 28.5t4 20.5v-1
q-1 2 -3 3q-5 -3 -9 -16t-4 -26q0 -3 -0.5 -4.5t1.5 -4.5zM1113 238q-2 -6 4 -10q3 7 8 21.5t6 23.5h-1v1q-5 -4 -10.5 -15.5t-6.5 -20.5zM1647 115v-2q-1 -2 -1 1q1 0 1 1z" />
    <glyph glyph-name="acute" unicode="&#xb4;" horiz-adv-x="297" 
d="M192 1102q12 10 31 8t35 -13.5t24.5 -31.5t-0.5 -46q-9 -24 -30.5 -58t-50 -65.5t-61.5 -54.5t-64 -26q-20 -2 -38.5 6t-33.5 30q-5 7 3 5t20 3q33 15 59 46t46 67t35 71.5t25 58.5z" />
    <glyph glyph-name="mu" unicode="&#xb5;" horiz-adv-x="3484" 
d="M1550 826h-1q-6 -1 -14.5 -9.5t-17.5 -21t-18 -27.5t-17 -29l-21 -32v1q-5 -14 -8 -26t-4 -23q-2 -16 5 -33q0 -7 -10 -7q-23 0 -32.5 13.5t-9.5 33.5v1q4 30 13.5 60t18.5 53q7 15 11 27.5t4 18.5v2q-7 0 -17.5 -12.5t-22 -29t-21.5 -34t-16 -27.5l-5 -7v1
q-5 -12 -8.5 -28t-4.5 -29q-1 -10 0 -17.5t2 -11.5v1q1 -2 1 -7q0 -6 -10 -6q-24 0 -32 16.5t-8 35.5v2q2 22 5 41t7 33q-14 -9 -28 -13t-31 -6q-4 -20 -5 -43.5t-1 -46.5q0 -27 3.5 -52.5t11.5 -45.5t21.5 -32t34.5 -12q20 0 42 10q12 -5 12 -10q0 -6 -5 -13
q-38 -16 -69 -16q-32 0 -53.5 16t-35 42t-19.5 60t-6 70q0 17 1 36.5t4 39.5l-26 6t-27 8q-26 -41 -56 -77t-62 -64q-21 -18 -45 -32.5t-56 -14.5q-23 0 -44 8.5t-37 24.5t-26 38.5t-10 50.5q0 24 8 49t23 45t36.5 33t48.5 13q28 0 45 -16.5t17 -41.5q0 -7 -2 -17
q25 16 57 26t58 10q8 0 17 -1t17 -3q37 58 65.5 121.5t45.5 125.5q2 6 7 8q5 5 14 5q28 0 37 -16.5t9 -39.5v-15q-4 -35 -13.5 -80t-20.5 -94q-2 -11 -5 -20.5t-5 -20.5q31 1 62 31q3 12 5 22t3 18q1 4 0 7.5t-2 7.5l-1 -1v2q3 15 16 15q25 0 32 -14.5t5 -30.5t-4 -24v-1
l4 6q8 13 16.5 25.5t18.5 23t21 17t24 6.5q18 0 24.5 -12.5t5.5 -27.5l-2 -12t-3 -13q15 23 33.5 43t41.5 20q17 0 23.5 -12t5.5 -29q-2 -17 -8 -38.5t-14 -41.5q-7 -19 -12.5 -37t-6.5 -31q-1 -5 0 -12t4 -7t9 6.5t13 17t14.5 23.5t14.5 25v-1q8 22 21 45.5t29.5 42.5
t35.5 31t40 12q28 0 42.5 -24t13.5 -51q-1 -4 -2 -8.5t-4 -11.5h-7q10 -6 12 -19q1 -8 -1.5 -17.5t-4.5 -19.5q-1 -1 -1 -3q0 -1 -0.5 -1.5t-0.5 -2.5q-1 -5 -1.5 -11.5t-0.5 -12.5t0.5 -9.5t3.5 -1.5v-1q12 13 28 39t27 49l10 20v-1q2 7 4.5 10t4.5 7q-22 3 -30 18.5
t-6 34.5q2 22 17.5 41.5t38.5 19.5q27 0 25 -35q-2 -15 -6 -29t-7 -24q-1 -1 -1 -2v-1h25q1 0 2 0.5t3 0.5q4 0 9 -1t10 -3q10 -3 10 -18q0 -16 -8 -37.5t-15 -35.5q-1 -3 -2.5 -6t-2.5 -6l-3 -9q-11 -30 -21 -61.5t-15 -59.5l2 -2v1q5 -5 7 -6t6 -6q2 15 12 26.5t22 16.5
q7 3 12.5 4t10.5 1q23 0 36 -16t13 -37q0 -22 -18.5 -43t-56.5 -29q-5 -1 -10 -1h-10q-32 0 -55 21t-25 63q-42 11 -92 11q-21 0 -45.5 -2t-49.5 -6q-33 -6 -66.5 -16t-62.5 -25.5t-52 -35.5t-36 -45q0 -1 -0.5 -1.5t-0.5 -1.5q-2 -5 -5 -11t-10 -6t-12 7.5t-7 16.5
q-2 5 -3 11t-1 10q0 26 15.5 49.5t35.5 40.5q16 12 39 21.5t49.5 17t54 12.5t53.5 8q20 2 33.5 2.5t23.5 0.5q38 0 76 -6t69 -20q10 54 23.5 94t27.5 70l7 21q-1 0 -2.5 0.5t-2.5 0.5h-9q-2 -3 -2.5 -7t-2.5 -6l-3 -7q-6 -13 -15 -31t-20 -36.5t-22.5 -35t-21.5 -25.5
q-6 -5 -15 -8t-18 -3q-10 0 -16.5 5.5t-10 14.5t-4.5 19.5t-1 19.5q-16 -24 -36 -42t-45 -18q-23 0 -33.5 12t-12.5 32q-13 -20 -26.5 -32t-28.5 -12q-23 0 -32 11.5t-9 30.5v2q4 29 13.5 59t18.5 53q6 16 11 29t5 17v2zM2387 623q-16 0 -27 7t-18.5 19t-11.5 26.5t-5 29.5
q-9 -16 -18.5 -31t-20 -27t-22 -19t-23.5 -7q-16 0 -26.5 6.5t-17 17.5t-9 25t-2.5 28q-17 -32 -37.5 -54.5t-45.5 -22.5q-15 0 -25 6.5t-16 17t-8.5 23.5t-2.5 26v4q-17 -29 -36.5 -52t-36.5 -23q-23 0 -32 16.5t-9 40.5v4q4 35 12 66.5t17 58.5l4 14l-1 -1q0 1 0.5 2.5
t0.5 4.5v4q4 11 18 9q25 -11 25 -26q0 -5 -0.5 -7.5l-1.5 -7.5q0 -4 -2 -8v1q-3 -9 -6.5 -22.5t-7 -28.5t-6.5 -29.5t-4 -26.5v-13q0 -19 6 -19q5 0 12.5 9t16 23t17.5 29.5t16 29.5v-1l4 8q0 -1 1 -1h1q6 30 16 66t24.5 66.5t32.5 51.5t40 21q8 0 13.5 -5t8.5 -12.5
t4 -15.5t1 -15q-2 -20 -10.5 -40t-21.5 -39.5t-28.5 -37.5t-30.5 -32q-1 -3 -5 -22.5t-6 -42.5q-1 -5 -1 -12q0 -13 3.5 -21.5t11.5 -8.5q11 0 22.5 10.5t22 25.5t19.5 32t16 31q0 -1 0.5 -1.5t0.5 0.5q6 32 16 73t25 77t34.5 61t43.5 25q8 0 13.5 -5.5t9 -14t5 -17.5
t1.5 -16q-2 -20 -11.5 -42t-23 -43.5t-29 -41t-30.5 -34.5q-1 -4 -5.5 -25.5t-6.5 -44.5q-1 -5 -1 -9v-6q0 -14 3 -23.5t13 -9.5q11 0 21.5 9.5t20 24t18.5 32t17 33.5q2 10 3.5 19t5.5 17q12 15 32 15q8 0 16 -4q2 16 6 31.5t11.5 27.5t19.5 19.5t30 7.5q31 0 44 -23.5
t13 -57.5v-17q-2 -21 -9 -45t-16 -43q17 8 29 25.5t23 36.5l7 13l4 2t4 1t4.5 -1.5t4.5 -8.5q-5 -12 -13.5 -27.5t-20 -29.5t-25.5 -24t-31 -12q-16 -23 -37 -38t-44 -15zM966 592q33 18 73.5 61t77.5 100q-17 4 -34 4q-35 0 -65.5 -17t-57.5 -46q-2 -2 -5 -3t-5 -1
q-5 0 -9.5 3.5t-2.5 9.5q11 12 18.5 28.5t5.5 32.5q-4 11 -11.5 16t-13.5 6q-11 0 -21.5 -8.5t-20.5 -22.5t-17 -32t-10 -36q-3 -15 -1 -33t9.5 -34t21 -26.5t32.5 -10.5q10 0 18.5 2.5t18.5 6.5h-1zM1742 768q16 -2 24 -4l4 15q-1 14 -7 28t-19 14q-15 0 -30.5 -17t-28 -40
t-20.5 -46.5t-9 -36.5q-1 -8 1 -15.5t10 -7.5q9 0 18 9t18 21.5t17 26.5t14 24q0 4 3 7q1 2 2 5t-1 10q0 7 4 7zM2421 779q0 -24 6.5 -48t28.5 -30q11 18 18.5 41.5t9.5 47.5v14q0 23 -8.5 40.5t-26.5 17.5q-13 0 -19 -17.5t-8 -39.5v-11q0 -4 -0.5 -7.5t-0.5 -7.5z
M1201 757q11 51 20.5 94t15.5 76q-17 -37 -37 -77.5t-43 -80.5q12 -4 22.5 -6.5t21.5 -5.5zM1902 517q-2 5 -7 11.5t-15 13.5q3 -14 11.5 -26.5t24.5 -10.5h-1q24 4 36 19.5t12 32.5q0 8 -4 14.5t-12 6.5q-4 0 -6 -1q-10 -3 -18 -13.5t-8 -24.5q0 -9 3 -16q7 -7 -4 -12
q-10 -4 -12 6zM2315 954q-9 0 -25 -37.5t-33 -100.5q7 7 16.5 19.5t18.5 28t16.5 32.5t10.5 33q0 6 -1 15.5t-3 9.5zM2176 926q-9 0 -25 -35t-32 -93q7 7 17 19t19 26.5t15.5 31t8.5 32.5q2 6 1 12.5t-4 6.5zM2029 900q4 -6 5 -11.5t1 -10.5q-1 -12 -10 -18.5t-18 -6.5
q-8 0 -14 7t-5 21q1 11 7 21t16 10q9 0 18 -12zM2409 665q17 0 30 13q-23 9 -35.5 24.5t-17.5 35.5v-20q0 -21 4.5 -37t18.5 -16zM1864 821q-2 -8 6 -9q3 8 7.5 21t5.5 24q0 2 2 2q-4 0 -12 -13.5t-9 -24.5zM1120 753h-1v-1zM3062 37q-28 0 -39.5 14t-11.5 40v8
q-17 -24 -37.5 -42.5t-44.5 -18.5t-34 14.5t-11 34.5q-14 -20 -28 -32.5t-28 -12.5q-23 0 -32 11.5t-9 30.5v10q-14 -22 -30.5 -38.5t-39.5 -16.5q-17 0 -24 11t-7 30v6q0 2 0.5 3t0.5 3v4.5t2 8.5q-17 -27 -35.5 -47.5t-40.5 -20.5q-29 0 -40.5 14t-11.5 39v5q1 13 5 32
t8.5 41t10 45.5t10.5 44.5l3 12q-6 -1 -12.5 -1h-12.5q0 -10 -1 -15q-3 -21 -14 -38.5t-26.5 -31t-33 -21t-34.5 -7.5t-33.5 12t-23.5 32q-2 5 -2 10t4 8q7 5 9.5 1t7.5 -10q5 -14 14 -20.5t19 -6.5q18 0 34 22.5t16 57.5h1q-1 25 -11 50.5t-25.5 46t-35.5 33.5t-42 13
q-24 0 -41.5 -11t-29 -29.5t-17 -42t-6.5 -48.5v-15q0 -34 10 -58q13 -29 40.5 -44.5t54.5 -25.5v1q1 0 1 -1t2 -1l12 -5l10 -5t11 -5l7.5 -3t0.5 1q19 -8 33 -22.5t21 -36.5q5 -17 5 -30q0 -20 -7.5 -39t-20.5 -35t-30 -29t-36 -22q-27 -12 -63 -12q-28 0 -55 9t-48 24.5
t-33 36.5t-10 46q0 6 2.5 15.5t6.5 18.5t9.5 15.5t13.5 6.5t5 -12l-4 -6h1q-3 -5 -3 -10q0 -3 3 -13q9 -32 36.5 -47.5t62.5 -15.5q17 0 34 3t31 8q10 5 23.5 12t25 16t19.5 19t8 20q0 7 -2 11q-4 8 -14.5 14.5t-21.5 10.5q-12 3 -27 6t-29 5q-2 0 -4.5 0.5t-3.5 0.5
q-24 4 -48 9.5t-45 15t-37 24t-24 37.5q-3 10 -5 20.5t-2 18.5q0 31 18 81q10 27 26.5 51.5t37.5 44.5t44.5 34t47.5 19q20 5 29 5q27 0 51.5 -12t44.5 -32t34 -45.5t19 -53.5q12 0 20 0.5t15 1.5q3 0 0 0.5t0 0.5q4 16 6.5 30t3.5 19q1 4 0 8.5t-2 9.5q0 1 -0.5 -2t-0.5 -1
q2 11 6 13.5t9 2.5q25 0 32 -14.5t5 -31.5l-2 -16t-3 -16q25 1 44 -5.5t33 -26.5q5 0 11 -2t10 -4q8 -7 11.5 -18t1.5 -23q-1 -14 -4 -27t-6 -22q-6 -17 -14 -44.5t-10 -44.5q0 -12 1 -12q5 0 15 11.5t20.5 28l21 33l17.5 27.5q5 18 9.5 32.5t6.5 30.5h-1q0 1 -0.5 2t-0.5 2
v7q1 17 21 17q16 0 21.5 -11.5t4.5 -25.5q-2 -16 -7 -35t-10 -37q-2 -4 -2 -5l-2 -6q-5 -17 -8.5 -31t-4.5 -22q-1 -5 -0.5 -12t4.5 -7t11 8.5t15.5 21t17 27t16.5 27.5v-1q8 21 20.5 41t28 36.5t33 26.5t36.5 10q8 0 14 -1t12 -6l2 6q6 29 10.5 50.5t5.5 29.5q1 5 0 8.5
t-2 6.5l-1 -1v3q3 15 16 15q25 0 32 -14.5t5 -31.5q-1 -14 -8.5 -46.5t-15.5 -65.5q-1 -6 -2.5 -12.5t-2.5 -12.5q0 -2 -1 -4t-1 -4q-7 -24 -13.5 -54t-6.5 -48v-10q1 -8 8 -8t15.5 5.5t13.5 11.5q13 15 25 37.5t21 39.5l3 6v-1l5 10q3 11 6.5 23.5t8.5 23.5l4 14l-1 -1
q0 1 0.5 2.5t0.5 4.5v4q4 11 18 9q25 -11 25 -26q0 -5 -0.5 -7.5t-1.5 -6.5q0 -5 -2 -9v1q-3 -9 -6.5 -22.5t-7 -28.5t-6.5 -29.5t-4 -26.5q0 -2 -0.5 -3.5t-0.5 -3.5v-5q0 -19 6 -19q5 0 13.5 10t17.5 24t18 30.5t17 30.5q1 11 3 20.5t5 18.5q12 15 32 15q8 0 16 -4
q2 16 6 31.5t11.5 27.5t19.5 19.5t30 7.5q30 0 43.5 -23.5t13.5 -57.5v-9.5t-1 -8.5q-2 -21 -9 -44t-16 -43q17 8 29.5 26t23.5 36l7 13q2 1 3.5 2t3.5 1q5 0 8 -10q-5 -11 -12.5 -26t-18.5 -29t-25.5 -24.5t-31.5 -12.5q-16 -23 -37 -38t-44 -15q-16 0 -27 7t-18.5 18.5
t-11.5 26t-5 29.5q-17 -31 -38 -56t-38 -25q-23 0 -32 16.5t-9 39.5v11q-5 -9 -10.5 -17.5t-10.5 -16.5q-11 -14 -24 -24.5t-33 -12.5zM1811 112q-8 -14 -17.5 -28t-22 -25t-28.5 -18.5t-36 -7.5q-33 0 -46.5 24t-13.5 56v2l-1 -1q-17 -29 -35 -50.5t-38 -21.5
q-23 0 -31.5 12t-8.5 32v1q5 28 13.5 58t17.5 53v1q6 15 11 28t5 16h-1v2q-7 0 -16.5 -11t-20 -26t-20.5 -31.5t-17 -27.5l-4 -6l-4 -8v1q-6 -13 -9 -28t-5 -28v-10q0 -5 1 -10t2 -9q0 -1 0.5 -2t0.5 -3q0 -8 -9 -8q-24 0 -32.5 17t-8.5 36v6q0 1 0.5 2.5t0.5 3.5l2 6
q-11 -17 -22.5 -33t-20.5 -24q-6 -5 -15 -8.5t-18 -3.5q-10 0 -16 6t-9.5 14.5t-4.5 18.5t-1 18q-17 -23 -37.5 -40.5t-43.5 -17.5t-33 12t-12 31q-14 -21 -25 -30q-6 -5 -15 -8.5t-18 -3.5q-17 0 -24 17t-7 40v2q1 9 3 22.5t5 27.5t6.5 27t6.5 22q-4 0 -6.5 0.5t-6.5 0.5
l-5 -13v1l-15 -30l-20 5l21 40q-20 4 -29 19.5t-7 32.5q3 21 17.5 40.5t37.5 19.5q29 0 26 -34q-2 -14 -6.5 -28.5t-8.5 -24.5q0 -3 -1 -4q5 -1 11 -0.5t12 0.5q14 0 22 -3.5t6 -20.5q0 -3 -2 -11l-3 -12q-5 -21 -10.5 -46t-7.5 -39q-2 -19 3 -21q9 6 22.5 25t26.5 41v-1
q7 22 20 46.5t29.5 44t36 32.5t40.5 13q28 0 42.5 -24t13.5 -51q-1 -4 -2 -8.5t-4 -11.5h-7q10 -6 12 -18q1 -8 -0.5 -15.5t-3.5 -15.5q-2 -6 -2 -11q-1 -3 -2 -10t-1.5 -14.5t0.5 -11.5t4 -1v-1q6 6 13.5 17t15.5 24t15.5 26.5t13.5 24.5l3 7v-1l3 11l-1 -1q0 2 0.5 1.5
t0.5 1.5q9 34 11 51h-1q0 2 -0.5 4.5t-0.5 4.5v5q-1 2 -1 5q0 7 5 9.5t10 2.5q24 0 31 -14.5t6 -30.5q-2 -16 -4 -24v-2l4 8q17 25 36 48t43 23q19 0 25 -11.5t4 -28.5t-7.5 -38.5t-13.5 -41.5q0 -2 -1 -3.5t-1 -3.5q-5 -17 -10 -33.5t-7 -26.5q-1 -5 0 -12t4 -7
q4 0 12.5 11t18 26.5t19 32t16.5 27.5l6 11v-1q14 40 39 69t57 29q13 0 24 -6.5t18 -17t10.5 -23.5t2.5 -26q0 -6 -2 -14t-12 -8q-4 0 -9 5l3 17q1 11 -2 21t-9 10q-8 0 -19 -12.5t-21.5 -32t-19 -42.5t-11.5 -44v-9q0 -13 4 -22.5t16 -9.5q11 0 21 6.5t18.5 16t15.5 21
t13 20.5q6 10 11.5 20.5t10.5 19.5l3 6l3 6v-1q2 10 5 19t5 19l3 9l5 14l-1 -1v7q0 2 0.5 2t0.5 2q4 11 18 9q26 -11 26 -26q0 -5 -0.5 -7.5l-1.5 -7.5q0 -4 -2 -8v1q-3 -9 -6.5 -22.5t-7.5 -28.5t-7 -29.5t-4 -26.5q0 -2 -0.5 -3.5t-0.5 -3.5v-5q0 -19 7 -19q4 0 11 8
t15.5 20.5t16.5 27.5t16 29v-1l14 34q-10 14 -16.5 32.5t-6.5 35.5q0 15 5.5 28.5t18.5 24.5v-1q6 6 14 9t16 3q10 0 19 -5.5t9 -19.5q0 -9 -3.5 -20t-8.5 -22q-2 -4 -2 -6l-9 -25q20 -31 36.5 -63t19.5 -53q13 20 22.5 39.5t17.5 33.5q0 1 1 2.5t1 2.5q4 10 12 10t10 -9
l-2 -7q-7 -13 -16.5 -32t-21 -38.5t-24.5 -36.5t-25 -26q-14 -10 -34 -15.5t-38 -5.5q-20 0 -34.5 8t-12.5 25v1q-9 -9 -18 -14.5t-17 -5.5q-23 0 -31.5 16.5t-8.5 39.5q0 2 0.5 4t0.5 4v7zM438 193h1l2 1q2 0 5.5 -0.5t9.5 -5.5q-8 -16 -18 -34t-21 -35t-22.5 -31
t-21.5 -22q-10 -49 -23.5 -96.5t-31.5 -85t-41.5 -59t-52.5 -17.5q-19 2 -29.5 17t-10.5 37q0 2 0.5 8t2.5 14q14 52 49 93.5t75 75.5l11 57q-18 -28 -38 -49.5t-42 -21.5q-17 0 -24.5 11t-7.5 30v5t2 8q1 5 2 10.5t1 13.5q-18 -21 -41 -40.5t-50 -31.5h1
q-11 -6 -26.5 -10.5t-31.5 -4.5q-11 0 -15 1q-17 5 -28.5 20.5t-9.5 39.5q1 23 9 62.5t18 81.5l9 39q6 27 10.5 47t5.5 28q1 5 0 9.5t-2 7.5v4q0 6 4.5 8.5t9.5 2.5q26 0 33 -14.5t5 -31.5q-2 -23 -10 -54.5t-16 -63.5q15 18 32.5 31t36.5 13q25 0 34.5 -15.5t9.5 -37.5v-10
q-2 -21 -12.5 -48t-26.5 -53q36 31 64 72l4 14q5 18 9 34.5t5 26.5q1 3 0 6.5t-2 6.5v2q0 7 4.5 9.5t9.5 2.5q6 0 13 -2t9 -4q10 -7 13.5 -18t2.5 -23q-3 -24 -10 -43q-2 -4 -2 -6q-6 -17 -13.5 -44.5t-9.5 -44.5q0 -12 1 -12q4 0 12 9t17 22t18 28.5t17 27.5l5 7l1 1h1h1
q4 23 6 38.5t2 20.5q2 8 1 13.5t-2 9.5v2q0 7 4.5 9t10.5 2q22 0 31 -9.5t11 -22.5q-2 -15 -3 -29t-3 -29t-5 -32.5t-7 -39.5q14 16 28 41t25 45zM881 92l4 22t3 22q-13 -8 -23 -18t-15 -24q-3 -4 -8.5 -3.5t-5.5 3.5q4 31 19 52t35 31v32q0 1 0.5 2t0.5 2v14q0 2 0.5 4
t0.5 4q0 9 1 18t2 24q-10 -5 -25 -8t-29 -3q-11 0 -21 6t-13 19q0 2 -0.5 1.5t-0.5 1.5v4q0 12 6.5 23t17.5 20t24 15t27 8q-6 0 -4 1h10q30 0 53 -20q29 8 62 15t65 14q21 4 47 10t52 13t50.5 13.5t44.5 12.5q8 3 19 7.5t13 9.5l-1 -1v5q0 2 1 4.5t8 4.5q3 0 8 -6
q4 -7 0.5 -14t-9.5 -13.5t-12.5 -11.5t-10.5 -7q-25 -15 -57 -27t-65.5 -22.5t-67 -19t-61.5 -14.5l-15 -4l-11 -3l-39 -9v-3q0 -3 0.5 -8t0.5 -13q0 -11 -0.5 -28.5t-2.5 -52.5h3l-1 -1q27 5 53.5 13t40.5 24q6 8 9.5 2.5t3.5 -11.5q-2 -15 -11 -25.5t-22.5 -17.5
t-29.5 -11.5t-33 -7.5l-8 -2q-2 -1 -8 -1v-7q-3 -31 -8.5 -64.5t-16 -66t-28 -61t-42.5 -49.5q-17 -12 -40 -20t-46 -8h-13q-53 8 -81.5 47t-28.5 94q1 43 23 81.5t60 53.5q15 4 24 4q29 0 41 -22.5t12 -52.5q0 -13 -0.5 -21t-1.5 -14q-5 -9 -10.5 -8.5t-7.5 2.5q-1 0 -1 2
q-1 1 -1 6v23q0 17 -3.5 31.5t-17.5 15.5q-11 1 -21.5 -8t-19.5 -24t-16 -34t-10 -38v1q-1 -8 -1 -13v-8q0 -18 4.5 -34.5t13 -29t19.5 -20.5t24 -9q25 4 45 22.5t34.5 45t24.5 57t15 59.5zM2701 176q2 4 4 7.5t4 6.5q5 16 8 30t5 23l-1 -1q0 8 -1 11q-2 4 -2 6
q-12 10 -27.5 13t-32.5 3h-5l-13 -52l-6 -23q0 -1 -0.5 -2t-0.5 -2q-2 -8 -5 -21t-6 -28t-5 -30t-2 -27q0 -14 5 -21q5 0 18 8q9 7 17.5 18.5t16.5 24t14.5 25.5t11.5 24v-1zM1349 185q16 -2 24 -4q2 6 2 10q0 1 0.5 2t0.5 2q1 14 -5 28.5t-20 14.5q-15 0 -30 -17t-27.5 -40
t-20.5 -46.5t-9 -36.5q-1 -7 1 -14.5t10 -7.5q9 0 18.5 8.5t18.5 21.5t17 26.5t13 24.5q0 4 3 7q0 2 0.5 3.5t0.5 6.5l1 -1q-1 12 2 12zM3353 196q0 -12 1.5 -24.5t5 -23.5t10.5 -19t18 -11q11 19 18 42t9 47v14q0 23 -8 40.5t-26 17.5q-13 0 -19 -17.5t-8 -39.5v-11
q0 -4 -0.5 -7.5t-0.5 -7.5zM2952 74q9 0 19 10t19.5 23.5t18 28t13.5 24.5v1l15 63l-1 -1q0 1 0.5 2t0.5 2l2 6q-6 3 -10 3q-15 0 -30.5 -17t-28 -40t-20.5 -46t-9 -36q-1 -7 1 -15t10 -8zM136 225q-7 0 -15.5 -7.5t-17 -18.5t-16 -23.5t-13.5 -23.5q-2 -4 -2 -6
q-4 -14 -8.5 -33t-4.5 -33q0 -15 6 -15q3 0 7 2q14 7 27 24.5t23.5 38t17 40.5t7.5 31q1 8 -1 16t-10 8zM206 -137q0 -14 12 -14v-1q13 1 23 17q18 23 31.5 61t23.5 70l6 20l1 2q-39 -31 -66 -75q-3 -5 -8.5 -15t-10.5 -21.5t-8.5 -23t-3.5 -20.5zM1952 169
q-11 -21 -25.5 -47t-29.5 -46q1 1 4 1q5 0 6 -4.5t1 -9.5q-1 -8 6.5 -9.5t15.5 -1.5v-1q23 1 32.5 14.5t11.5 36.5q-1 14 -6.5 32t-15.5 35zM3232 316q4 -5 5 -10.5t1 -10.5q-1 -12 -10 -18.5t-18 -6.5t-15 5.5t-6 17.5q2 12 8.5 23.5t15.5 11.5q10 0 19 -12zM1903 316
q3 -5 4 -10.5t1 -10.5q-2 -12 -10 -18.5t-17 -6.5t-15.5 4t-6.5 12q2 14 9 28t16 14q10 0 19 -12zM500 145q6 -11 5 -23q-2 -11 -10 -16.5t-17 -5.5q-7 0 -13.5 6t-4.5 20q1 11 7 21t15 10t18 -12zM510 225q6 -11 5 -23q-2 -10 -10 -16t-17 -6q-8 0 -14 6t-4 20q1 11 6.5 21
t15.5 10q9 0 18 -12zM3341 83q17 0 30 13q-23 8 -35.5 23.5t-17.5 36.5v-2q0 -3 -0.5 -5.5t-0.5 -4.5v-9q0 -21 5 -36.5t19 -15.5zM890 323q-1 9 -5.5 13t-9.5 4q-11 0 -22 -9t-14 -21q2 0 11.5 2t17.5 4l3 2l7 2l-1 -1q12 3 13 2v2zM1960 243q5 13 11 28.5t4 20.5v-1
q-1 2 -3 3q-5 -3 -9 -16t-4 -26q0 -3 -0.5 -4.5t1.5 -4.5zM1113 238q-2 -6 4 -10q3 7 8 21.5t6 23.5h-1v1q-5 -4 -10.5 -15.5t-6.5 -20.5zM1647 115v-2q-1 -2 -1 1q1 0 1 1z" />
    <glyph glyph-name="paragraph" unicode="&#xb6;" horiz-adv-x="3484" 
d="M1550 826h-1q-6 -1 -14.5 -9.5t-17.5 -21t-18 -27.5t-17 -29l-21 -32v1q-5 -14 -8 -26t-4 -23q-2 -16 5 -33q0 -7 -10 -7q-23 0 -32.5 13.5t-9.5 33.5v1q4 30 13.5 60t18.5 53q7 15 11 27.5t4 18.5v2q-7 0 -17.5 -12.5t-22 -29t-21.5 -34t-16 -27.5l-5 -7v1
q-5 -12 -8.5 -28t-4.5 -29q-1 -10 0 -17.5t2 -11.5v1q1 -2 1 -7q0 -6 -10 -6q-24 0 -32 16.5t-8 35.5v2q2 22 5 41t7 33q-14 -9 -28 -13t-31 -6q-4 -20 -5 -43.5t-1 -46.5q0 -27 3.5 -52.5t11.5 -45.5t21.5 -32t34.5 -12q20 0 42 10q12 -5 12 -10q0 -6 -5 -13
q-38 -16 -69 -16q-32 0 -53.5 16t-35 42t-19.5 60t-6 70q0 17 1 36.5t4 39.5l-26 6t-27 8q-26 -41 -56 -77t-62 -64q-21 -18 -45 -32.5t-56 -14.5q-23 0 -44 8.5t-37 24.5t-26 38.5t-10 50.5q0 24 8 49t23 45t36.5 33t48.5 13q28 0 45 -16.5t17 -41.5q0 -7 -2 -17
q25 16 57 26t58 10q8 0 17 -1t17 -3q37 58 65.5 121.5t45.5 125.5q2 6 7 8q5 5 14 5q28 0 37 -16.5t9 -39.5v-15q-4 -35 -13.5 -80t-20.5 -94q-2 -11 -5 -20.5t-5 -20.5q31 1 62 31q3 12 5 22t3 18q1 4 0 7.5t-2 7.5l-1 -1v2q3 15 16 15q25 0 32 -14.5t5 -30.5t-4 -24v-1
l4 6q8 13 16.5 25.5t18.5 23t21 17t24 6.5q18 0 24.5 -12.5t5.5 -27.5l-2 -12t-3 -13q15 23 33.5 43t41.5 20q17 0 23.5 -12t5.5 -29q-2 -17 -8 -38.5t-14 -41.5q-7 -19 -12.5 -37t-6.5 -31q-1 -5 0 -12t4 -7t9 6.5t13 17t14.5 23.5t14.5 25v-1q8 22 21 45.5t29.5 42.5
t35.5 31t40 12q28 0 42.5 -24t13.5 -51q-1 -4 -2 -8.5t-4 -11.5h-7q10 -6 12 -19q1 -8 -1.5 -17.5t-4.5 -19.5q-1 -1 -1 -3q0 -1 -0.5 -1.5t-0.5 -2.5q-1 -5 -1.5 -11.5t-0.5 -12.5t0.5 -9.5t3.5 -1.5v-1q12 13 28 39t27 49l10 20v-1q2 7 4.5 10t4.5 7q-22 3 -30 18.5
t-6 34.5q2 22 17.5 41.5t38.5 19.5q27 0 25 -35q-2 -15 -6 -29t-7 -24q-1 -1 -1 -2v-1h25q1 0 2 0.5t3 0.5q4 0 9 -1t10 -3q10 -3 10 -18q0 -16 -8 -37.5t-15 -35.5q-1 -3 -2.5 -6t-2.5 -6l-3 -9q-11 -30 -21 -61.5t-15 -59.5l2 -2v1q5 -5 7 -6t6 -6q2 15 12 26.5t22 16.5
q7 3 12.5 4t10.5 1q23 0 36 -16t13 -37q0 -22 -18.5 -43t-56.5 -29q-5 -1 -10 -1h-10q-32 0 -55 21t-25 63q-42 11 -92 11q-21 0 -45.5 -2t-49.5 -6q-33 -6 -66.5 -16t-62.5 -25.5t-52 -35.5t-36 -45q0 -1 -0.5 -1.5t-0.5 -1.5q-2 -5 -5 -11t-10 -6t-12 7.5t-7 16.5
q-2 5 -3 11t-1 10q0 26 15.5 49.5t35.5 40.5q16 12 39 21.5t49.5 17t54 12.5t53.5 8q20 2 33.5 2.5t23.5 0.5q38 0 76 -6t69 -20q10 54 23.5 94t27.5 70l7 21q-1 0 -2.5 0.5t-2.5 0.5h-9q-2 -3 -2.5 -7t-2.5 -6l-3 -7q-6 -13 -15 -31t-20 -36.5t-22.5 -35t-21.5 -25.5
q-6 -5 -15 -8t-18 -3q-10 0 -16.5 5.5t-10 14.5t-4.5 19.5t-1 19.5q-16 -24 -36 -42t-45 -18q-23 0 -33.5 12t-12.5 32q-13 -20 -26.5 -32t-28.5 -12q-23 0 -32 11.5t-9 30.5v2q4 29 13.5 59t18.5 53q6 16 11 29t5 17v2zM2387 623q-16 0 -27 7t-18.5 19t-11.5 26.5t-5 29.5
q-9 -16 -18.5 -31t-20 -27t-22 -19t-23.5 -7q-16 0 -26.5 6.5t-17 17.5t-9 25t-2.5 28q-17 -32 -37.5 -54.5t-45.5 -22.5q-15 0 -25 6.5t-16 17t-8.5 23.5t-2.5 26v4q-17 -29 -36.5 -52t-36.5 -23q-23 0 -32 16.5t-9 40.5v4q4 35 12 66.5t17 58.5l4 14l-1 -1q0 1 0.5 2.5
t0.5 4.5v4q4 11 18 9q25 -11 25 -26q0 -5 -0.5 -7.5l-1.5 -7.5q0 -4 -2 -8v1q-3 -9 -6.5 -22.5t-7 -28.5t-6.5 -29.5t-4 -26.5v-13q0 -19 6 -19q5 0 12.5 9t16 23t17.5 29.5t16 29.5v-1l4 8q0 -1 1 -1h1q6 30 16 66t24.5 66.5t32.5 51.5t40 21q8 0 13.5 -5t8.5 -12.5
t4 -15.5t1 -15q-2 -20 -10.5 -40t-21.5 -39.5t-28.5 -37.5t-30.5 -32q-1 -3 -5 -22.5t-6 -42.5q-1 -5 -1 -12q0 -13 3.5 -21.5t11.5 -8.5q11 0 22.5 10.5t22 25.5t19.5 32t16 31q0 -1 0.5 -1.5t0.5 0.5q6 32 16 73t25 77t34.5 61t43.5 25q8 0 13.5 -5.5t9 -14t5 -17.5
t1.5 -16q-2 -20 -11.5 -42t-23 -43.5t-29 -41t-30.5 -34.5q-1 -4 -5.5 -25.5t-6.5 -44.5q-1 -5 -1 -9v-6q0 -14 3 -23.5t13 -9.5q11 0 21.5 9.5t20 24t18.5 32t17 33.5q2 10 3.5 19t5.5 17q12 15 32 15q8 0 16 -4q2 16 6 31.5t11.5 27.5t19.5 19.5t30 7.5q31 0 44 -23.5
t13 -57.5v-17q-2 -21 -9 -45t-16 -43q17 8 29 25.5t23 36.5l7 13l4 2t4 1t4.5 -1.5t4.5 -8.5q-5 -12 -13.5 -27.5t-20 -29.5t-25.5 -24t-31 -12q-16 -23 -37 -38t-44 -15zM966 592q33 18 73.5 61t77.5 100q-17 4 -34 4q-35 0 -65.5 -17t-57.5 -46q-2 -2 -5 -3t-5 -1
q-5 0 -9.5 3.5t-2.5 9.5q11 12 18.5 28.5t5.5 32.5q-4 11 -11.5 16t-13.5 6q-11 0 -21.5 -8.5t-20.5 -22.5t-17 -32t-10 -36q-3 -15 -1 -33t9.5 -34t21 -26.5t32.5 -10.5q10 0 18.5 2.5t18.5 6.5h-1zM1742 768q16 -2 24 -4l4 15q-1 14 -7 28t-19 14q-15 0 -30.5 -17t-28 -40
t-20.5 -46.5t-9 -36.5q-1 -8 1 -15.5t10 -7.5q9 0 18 9t18 21.5t17 26.5t14 24q0 4 3 7q1 2 2 5t-1 10q0 7 4 7zM2421 779q0 -24 6.5 -48t28.5 -30q11 18 18.5 41.5t9.5 47.5v14q0 23 -8.5 40.5t-26.5 17.5q-13 0 -19 -17.5t-8 -39.5v-11q0 -4 -0.5 -7.5t-0.5 -7.5z
M1201 757q11 51 20.5 94t15.5 76q-17 -37 -37 -77.5t-43 -80.5q12 -4 22.5 -6.5t21.5 -5.5zM1902 517q-2 5 -7 11.5t-15 13.5q3 -14 11.5 -26.5t24.5 -10.5h-1q24 4 36 19.5t12 32.5q0 8 -4 14.5t-12 6.5q-4 0 -6 -1q-10 -3 -18 -13.5t-8 -24.5q0 -9 3 -16q7 -7 -4 -12
q-10 -4 -12 6zM2315 954q-9 0 -25 -37.5t-33 -100.5q7 7 16.5 19.5t18.5 28t16.5 32.5t10.5 33q0 6 -1 15.5t-3 9.5zM2176 926q-9 0 -25 -35t-32 -93q7 7 17 19t19 26.5t15.5 31t8.5 32.5q2 6 1 12.5t-4 6.5zM2029 900q4 -6 5 -11.5t1 -10.5q-1 -12 -10 -18.5t-18 -6.5
q-8 0 -14 7t-5 21q1 11 7 21t16 10q9 0 18 -12zM2409 665q17 0 30 13q-23 9 -35.5 24.5t-17.5 35.5v-20q0 -21 4.5 -37t18.5 -16zM1864 821q-2 -8 6 -9q3 8 7.5 21t5.5 24q0 2 2 2q-4 0 -12 -13.5t-9 -24.5zM1120 753h-1v-1zM3062 37q-28 0 -39.5 14t-11.5 40v8
q-17 -24 -37.5 -42.5t-44.5 -18.5t-34 14.5t-11 34.5q-14 -20 -28 -32.5t-28 -12.5q-23 0 -32 11.5t-9 30.5v10q-14 -22 -30.5 -38.5t-39.5 -16.5q-17 0 -24 11t-7 30v6q0 2 0.5 3t0.5 3v4.5t2 8.5q-17 -27 -35.5 -47.5t-40.5 -20.5q-29 0 -40.5 14t-11.5 39v5q1 13 5 32
t8.5 41t10 45.5t10.5 44.5l3 12q-6 -1 -12.5 -1h-12.5q0 -10 -1 -15q-3 -21 -14 -38.5t-26.5 -31t-33 -21t-34.5 -7.5t-33.5 12t-23.5 32q-2 5 -2 10t4 8q7 5 9.5 1t7.5 -10q5 -14 14 -20.5t19 -6.5q18 0 34 22.5t16 57.5h1q-1 25 -11 50.5t-25.5 46t-35.5 33.5t-42 13
q-24 0 -41.5 -11t-29 -29.5t-17 -42t-6.5 -48.5v-15q0 -34 10 -58q13 -29 40.5 -44.5t54.5 -25.5v1q1 0 1 -1t2 -1l12 -5l10 -5t11 -5l7.5 -3t0.5 1q19 -8 33 -22.5t21 -36.5q5 -17 5 -30q0 -20 -7.5 -39t-20.5 -35t-30 -29t-36 -22q-27 -12 -63 -12q-28 0 -55 9t-48 24.5
t-33 36.5t-10 46q0 6 2.5 15.5t6.5 18.5t9.5 15.5t13.5 6.5t5 -12l-4 -6h1q-3 -5 -3 -10q0 -3 3 -13q9 -32 36.5 -47.5t62.5 -15.5q17 0 34 3t31 8q10 5 23.5 12t25 16t19.5 19t8 20q0 7 -2 11q-4 8 -14.5 14.5t-21.5 10.5q-12 3 -27 6t-29 5q-2 0 -4.5 0.5t-3.5 0.5
q-24 4 -48 9.5t-45 15t-37 24t-24 37.5q-3 10 -5 20.5t-2 18.5q0 31 18 81q10 27 26.5 51.5t37.5 44.5t44.5 34t47.5 19q20 5 29 5q27 0 51.5 -12t44.5 -32t34 -45.5t19 -53.5q12 0 20 0.5t15 1.5q3 0 0 0.5t0 0.5q4 16 6.5 30t3.5 19q1 4 0 8.5t-2 9.5q0 1 -0.5 -2t-0.5 -1
q2 11 6 13.5t9 2.5q25 0 32 -14.5t5 -31.5l-2 -16t-3 -16q25 1 44 -5.5t33 -26.5q5 0 11 -2t10 -4q8 -7 11.5 -18t1.5 -23q-1 -14 -4 -27t-6 -22q-6 -17 -14 -44.5t-10 -44.5q0 -12 1 -12q5 0 15 11.5t20.5 28l21 33l17.5 27.5q5 18 9.5 32.5t6.5 30.5h-1q0 1 -0.5 2t-0.5 2
v7q1 17 21 17q16 0 21.5 -11.5t4.5 -25.5q-2 -16 -7 -35t-10 -37q-2 -4 -2 -5l-2 -6q-5 -17 -8.5 -31t-4.5 -22q-1 -5 -0.5 -12t4.5 -7t11 8.5t15.5 21t17 27t16.5 27.5v-1q8 21 20.5 41t28 36.5t33 26.5t36.5 10q8 0 14 -1t12 -6l2 6q6 29 10.5 50.5t5.5 29.5q1 5 0 8.5
t-2 6.5l-1 -1v3q3 15 16 15q25 0 32 -14.5t5 -31.5q-1 -14 -8.5 -46.5t-15.5 -65.5q-1 -6 -2.5 -12.5t-2.5 -12.5q0 -2 -1 -4t-1 -4q-7 -24 -13.5 -54t-6.5 -48v-10q1 -8 8 -8t15.5 5.5t13.5 11.5q13 15 25 37.5t21 39.5l3 6v-1l5 10q3 11 6.5 23.5t8.5 23.5l4 14l-1 -1
q0 1 0.5 2.5t0.5 4.5v4q4 11 18 9q25 -11 25 -26q0 -5 -0.5 -7.5t-1.5 -6.5q0 -5 -2 -9v1q-3 -9 -6.5 -22.5t-7 -28.5t-6.5 -29.5t-4 -26.5q0 -2 -0.5 -3.5t-0.5 -3.5v-5q0 -19 6 -19q5 0 13.5 10t17.5 24t18 30.5t17 30.5q1 11 3 20.5t5 18.5q12 15 32 15q8 0 16 -4
q2 16 6 31.5t11.5 27.5t19.5 19.5t30 7.5q30 0 43.5 -23.5t13.5 -57.5v-9.5t-1 -8.5q-2 -21 -9 -44t-16 -43q17 8 29.5 26t23.5 36l7 13q2 1 3.5 2t3.5 1q5 0 8 -10q-5 -11 -12.5 -26t-18.5 -29t-25.5 -24.5t-31.5 -12.5q-16 -23 -37 -38t-44 -15q-16 0 -27 7t-18.5 18.5
t-11.5 26t-5 29.5q-17 -31 -38 -56t-38 -25q-23 0 -32 16.5t-9 39.5v11q-5 -9 -10.5 -17.5t-10.5 -16.5q-11 -14 -24 -24.5t-33 -12.5zM1811 112q-8 -14 -17.5 -28t-22 -25t-28.5 -18.5t-36 -7.5q-33 0 -46.5 24t-13.5 56v2l-1 -1q-17 -29 -35 -50.5t-38 -21.5
q-23 0 -31.5 12t-8.5 32v1q5 28 13.5 58t17.5 53v1q6 15 11 28t5 16h-1v2q-7 0 -16.5 -11t-20 -26t-20.5 -31.5t-17 -27.5l-4 -6l-4 -8v1q-6 -13 -9 -28t-5 -28v-10q0 -5 1 -10t2 -9q0 -1 0.5 -2t0.5 -3q0 -8 -9 -8q-24 0 -32.5 17t-8.5 36v6q0 1 0.5 2.5t0.5 3.5l2 6
q-11 -17 -22.5 -33t-20.5 -24q-6 -5 -15 -8.5t-18 -3.5q-10 0 -16 6t-9.5 14.5t-4.5 18.5t-1 18q-17 -23 -37.5 -40.5t-43.5 -17.5t-33 12t-12 31q-14 -21 -25 -30q-6 -5 -15 -8.5t-18 -3.5q-17 0 -24 17t-7 40v2q1 9 3 22.5t5 27.5t6.5 27t6.5 22q-4 0 -6.5 0.5t-6.5 0.5
l-5 -13v1l-15 -30l-20 5l21 40q-20 4 -29 19.5t-7 32.5q3 21 17.5 40.5t37.5 19.5q29 0 26 -34q-2 -14 -6.5 -28.5t-8.5 -24.5q0 -3 -1 -4q5 -1 11 -0.5t12 0.5q14 0 22 -3.5t6 -20.5q0 -3 -2 -11l-3 -12q-5 -21 -10.5 -46t-7.5 -39q-2 -19 3 -21q9 6 22.5 25t26.5 41v-1
q7 22 20 46.5t29.5 44t36 32.5t40.5 13q28 0 42.5 -24t13.5 -51q-1 -4 -2 -8.5t-4 -11.5h-7q10 -6 12 -18q1 -8 -0.5 -15.5t-3.5 -15.5q-2 -6 -2 -11q-1 -3 -2 -10t-1.5 -14.5t0.5 -11.5t4 -1v-1q6 6 13.5 17t15.5 24t15.5 26.5t13.5 24.5l3 7v-1l3 11l-1 -1q0 2 0.5 1.5
t0.5 1.5q9 34 11 51h-1q0 2 -0.5 4.5t-0.5 4.5v5q-1 2 -1 5q0 7 5 9.5t10 2.5q24 0 31 -14.5t6 -30.5q-2 -16 -4 -24v-2l4 8q17 25 36 48t43 23q19 0 25 -11.5t4 -28.5t-7.5 -38.5t-13.5 -41.5q0 -2 -1 -3.5t-1 -3.5q-5 -17 -10 -33.5t-7 -26.5q-1 -5 0 -12t4 -7
q4 0 12.5 11t18 26.5t19 32t16.5 27.5l6 11v-1q14 40 39 69t57 29q13 0 24 -6.5t18 -17t10.5 -23.5t2.5 -26q0 -6 -2 -14t-12 -8q-4 0 -9 5l3 17q1 11 -2 21t-9 10q-8 0 -19 -12.5t-21.5 -32t-19 -42.5t-11.5 -44v-9q0 -13 4 -22.5t16 -9.5q11 0 21 6.5t18.5 16t15.5 21
t13 20.5q6 10 11.5 20.5t10.5 19.5l3 6l3 6v-1q2 10 5 19t5 19l3 9l5 14l-1 -1v7q0 2 0.5 2t0.5 2q4 11 18 9q26 -11 26 -26q0 -5 -0.5 -7.5l-1.5 -7.5q0 -4 -2 -8v1q-3 -9 -6.5 -22.5t-7.5 -28.5t-7 -29.5t-4 -26.5q0 -2 -0.5 -3.5t-0.5 -3.5v-5q0 -19 7 -19q4 0 11 8
t15.5 20.5t16.5 27.5t16 29v-1l14 34q-10 14 -16.5 32.5t-6.5 35.5q0 15 5.5 28.5t18.5 24.5v-1q6 6 14 9t16 3q10 0 19 -5.5t9 -19.5q0 -9 -3.5 -20t-8.5 -22q-2 -4 -2 -6l-9 -25q20 -31 36.5 -63t19.5 -53q13 20 22.5 39.5t17.5 33.5q0 1 1 2.5t1 2.5q4 10 12 10t10 -9
l-2 -7q-7 -13 -16.5 -32t-21 -38.5t-24.5 -36.5t-25 -26q-14 -10 -34 -15.5t-38 -5.5q-20 0 -34.5 8t-12.5 25v1q-9 -9 -18 -14.5t-17 -5.5q-23 0 -31.5 16.5t-8.5 39.5q0 2 0.5 4t0.5 4v7zM438 193h1l2 1q2 0 5.5 -0.5t9.5 -5.5q-8 -16 -18 -34t-21 -35t-22.5 -31
t-21.5 -22q-10 -49 -23.5 -96.5t-31.5 -85t-41.5 -59t-52.5 -17.5q-19 2 -29.5 17t-10.5 37q0 2 0.5 8t2.5 14q14 52 49 93.5t75 75.5l11 57q-18 -28 -38 -49.5t-42 -21.5q-17 0 -24.5 11t-7.5 30v5t2 8q1 5 2 10.5t1 13.5q-18 -21 -41 -40.5t-50 -31.5h1
q-11 -6 -26.5 -10.5t-31.5 -4.5q-11 0 -15 1q-17 5 -28.5 20.5t-9.5 39.5q1 23 9 62.5t18 81.5l9 39q6 27 10.5 47t5.5 28q1 5 0 9.5t-2 7.5v4q0 6 4.5 8.5t9.5 2.5q26 0 33 -14.5t5 -31.5q-2 -23 -10 -54.5t-16 -63.5q15 18 32.5 31t36.5 13q25 0 34.5 -15.5t9.5 -37.5v-10
q-2 -21 -12.5 -48t-26.5 -53q36 31 64 72l4 14q5 18 9 34.5t5 26.5q1 3 0 6.5t-2 6.5v2q0 7 4.5 9.5t9.5 2.5q6 0 13 -2t9 -4q10 -7 13.5 -18t2.5 -23q-3 -24 -10 -43q-2 -4 -2 -6q-6 -17 -13.5 -44.5t-9.5 -44.5q0 -12 1 -12q4 0 12 9t17 22t18 28.5t17 27.5l5 7l1 1h1h1
q4 23 6 38.5t2 20.5q2 8 1 13.5t-2 9.5v2q0 7 4.5 9t10.5 2q22 0 31 -9.5t11 -22.5q-2 -15 -3 -29t-3 -29t-5 -32.5t-7 -39.5q14 16 28 41t25 45zM881 92l4 22t3 22q-13 -8 -23 -18t-15 -24q-3 -4 -8.5 -3.5t-5.5 3.5q4 31 19 52t35 31v32q0 1 0.5 2t0.5 2v14q0 2 0.5 4
t0.5 4q0 9 1 18t2 24q-10 -5 -25 -8t-29 -3q-11 0 -21 6t-13 19q0 2 -0.5 1.5t-0.5 1.5v4q0 12 6.5 23t17.5 20t24 15t27 8q-6 0 -4 1h10q30 0 53 -20q29 8 62 15t65 14q21 4 47 10t52 13t50.5 13.5t44.5 12.5q8 3 19 7.5t13 9.5l-1 -1v5q0 2 1 4.5t8 4.5q3 0 8 -6
q4 -7 0.5 -14t-9.5 -13.5t-12.5 -11.5t-10.5 -7q-25 -15 -57 -27t-65.5 -22.5t-67 -19t-61.5 -14.5l-15 -4l-11 -3l-39 -9v-3q0 -3 0.5 -8t0.5 -13q0 -11 -0.5 -28.5t-2.5 -52.5h3l-1 -1q27 5 53.5 13t40.5 24q6 8 9.5 2.5t3.5 -11.5q-2 -15 -11 -25.5t-22.5 -17.5
t-29.5 -11.5t-33 -7.5l-8 -2q-2 -1 -8 -1v-7q-3 -31 -8.5 -64.5t-16 -66t-28 -61t-42.5 -49.5q-17 -12 -40 -20t-46 -8h-13q-53 8 -81.5 47t-28.5 94q1 43 23 81.5t60 53.5q15 4 24 4q29 0 41 -22.5t12 -52.5q0 -13 -0.5 -21t-1.5 -14q-5 -9 -10.5 -8.5t-7.5 2.5q-1 0 -1 2
q-1 1 -1 6v23q0 17 -3.5 31.5t-17.5 15.5q-11 1 -21.5 -8t-19.5 -24t-16 -34t-10 -38v1q-1 -8 -1 -13v-8q0 -18 4.5 -34.5t13 -29t19.5 -20.5t24 -9q25 4 45 22.5t34.5 45t24.5 57t15 59.5zM2701 176q2 4 4 7.5t4 6.5q5 16 8 30t5 23l-1 -1q0 8 -1 11q-2 4 -2 6
q-12 10 -27.5 13t-32.5 3h-5l-13 -52l-6 -23q0 -1 -0.5 -2t-0.5 -2q-2 -8 -5 -21t-6 -28t-5 -30t-2 -27q0 -14 5 -21q5 0 18 8q9 7 17.5 18.5t16.5 24t14.5 25.5t11.5 24v-1zM1349 185q16 -2 24 -4q2 6 2 10q0 1 0.5 2t0.5 2q1 14 -5 28.5t-20 14.5q-15 0 -30 -17t-27.5 -40
t-20.5 -46.5t-9 -36.5q-1 -7 1 -14.5t10 -7.5q9 0 18.5 8.5t18.5 21.5t17 26.5t13 24.5q0 4 3 7q0 2 0.5 3.5t0.5 6.5l1 -1q-1 12 2 12zM3353 196q0 -12 1.5 -24.5t5 -23.5t10.5 -19t18 -11q11 19 18 42t9 47v14q0 23 -8 40.5t-26 17.5q-13 0 -19 -17.5t-8 -39.5v-11
q0 -4 -0.5 -7.5t-0.5 -7.5zM2952 74q9 0 19 10t19.5 23.5t18 28t13.5 24.5v1l15 63l-1 -1q0 1 0.5 2t0.5 2l2 6q-6 3 -10 3q-15 0 -30.5 -17t-28 -40t-20.5 -46t-9 -36q-1 -7 1 -15t10 -8zM136 225q-7 0 -15.5 -7.5t-17 -18.5t-16 -23.5t-13.5 -23.5q-2 -4 -2 -6
q-4 -14 -8.5 -33t-4.5 -33q0 -15 6 -15q3 0 7 2q14 7 27 24.5t23.5 38t17 40.5t7.5 31q1 8 -1 16t-10 8zM206 -137q0 -14 12 -14v-1q13 1 23 17q18 23 31.5 61t23.5 70l6 20l1 2q-39 -31 -66 -75q-3 -5 -8.5 -15t-10.5 -21.5t-8.5 -23t-3.5 -20.5zM1952 169
q-11 -21 -25.5 -47t-29.5 -46q1 1 4 1q5 0 6 -4.5t1 -9.5q-1 -8 6.5 -9.5t15.5 -1.5v-1q23 1 32.5 14.5t11.5 36.5q-1 14 -6.5 32t-15.5 35zM3232 316q4 -5 5 -10.5t1 -10.5q-1 -12 -10 -18.5t-18 -6.5t-15 5.5t-6 17.5q2 12 8.5 23.5t15.5 11.5q10 0 19 -12zM1903 316
q3 -5 4 -10.5t1 -10.5q-2 -12 -10 -18.5t-17 -6.5t-15.5 4t-6.5 12q2 14 9 28t16 14q10 0 19 -12zM500 145q6 -11 5 -23q-2 -11 -10 -16.5t-17 -5.5q-7 0 -13.5 6t-4.5 20q1 11 7 21t15 10t18 -12zM510 225q6 -11 5 -23q-2 -10 -10 -16t-17 -6q-8 0 -14 6t-4 20q1 11 6.5 21
t15.5 10q9 0 18 -12zM3341 83q17 0 30 13q-23 8 -35.5 23.5t-17.5 36.5v-2q0 -3 -0.5 -5.5t-0.5 -4.5v-9q0 -21 5 -36.5t19 -15.5zM890 323q-1 9 -5.5 13t-9.5 4q-11 0 -22 -9t-14 -21q2 0 11.5 2t17.5 4l3 2l7 2l-1 -1q12 3 13 2v2zM1960 243q5 13 11 28.5t4 20.5v-1
q-1 2 -3 3q-5 -3 -9 -16t-4 -26q0 -3 -0.5 -4.5t1.5 -4.5zM1113 238q-2 -6 4 -10q3 7 8 21.5t6 23.5h-1v1q-5 -4 -10.5 -15.5t-6.5 -20.5zM1647 115v-2q-1 -2 -1 1q1 0 1 1z" />
    <glyph glyph-name="periodcentered" unicode="&#xb7;" horiz-adv-x="213" 
d="M147 652q11 -19 15.5 -35t2.5 -30q-3 -32 -28 -49.5t-52 -17.5q-23 0 -40.5 17t-13.5 60q1 16 7 31.5t14.5 28t20 20.5t25.5 8q12 0 24.5 -7.5t24.5 -25.5z" />
    <glyph glyph-name="cedilla" unicode="&#xb8;" horiz-adv-x="298" 
d="M190 113q12 10 32.5 3.5t38.5 -23t27.5 -41t0.5 -50.5q-9 -24 -32 -53.5t-53 -55.5t-64.5 -45t-65.5 -22q-20 -2 -38.5 6t-33.5 30q-5 8 2.5 8h20.5q47 0 75.5 25.5t45.5 62.5t26 79.5t18 75.5z" />
    </font>
</defs>
</svg>
